<?xml version="1.0" standalone="no"?>
<!DOCTYPE svg PUBLIC "-//W3C//DTD SVG 20010904//EN"
 "http://www.w3.org/TR/2001/REC-SVG-20010904/DTD/svg10.dtd">
<svg version="1.0" xmlns="http://www.w3.org/2000/svg"
 width="700.000000pt" height="700.000000pt" viewBox="0 0 700.000000 700.000000"
 preserveAspectRatio="xMidYMid meet">
<metadata>
Created by potrace 1.14, written by Peter Selinger 2001-2017
</metadata>
<g transform="translate(0.000000,700.000000) scale(0.100000,-0.100000)"
fill="#000000" stroke="none">
<path d="M0 3500 l0 -3500 3500 0 3500 0 0 3500 0 3500 -3500 0 -3500 0 0
-3500z m4030 1979 c189 -22 476 -95 625 -159 l46 -20 -25 -48 c-46 -91 -131
-141 -221 -129 -22 3 -71 20 -110 38 -106 48 -228 87 -350 111 -146 29 -406
32 -505 5 -151 -41 -254 -110 -323 -214 -80 -123 -117 -268 -117 -465 0 -136
21 -242 65 -333 82 -169 214 -262 647 -454 279 -124 355 -164 518 -269 223
-145 335 -258 422 -428 80 -157 108 -272 108 -443 -1 -295 -106 -546 -315
-757 -245 -247 -571 -374 -1037 -404 -269 -17 -530 10 -799 84 -205 56 -439
151 -439 177 0 45 89 133 152 149 60 17 106 6 216 -49 374 -187 892 -222 1165
-79 89 47 185 146 230 238 58 119 78 212 84 390 8 258 -34 389 -168 515 -98
92 -178 141 -408 252 -603 291 -705 349 -858 484 -229 203 -336 471 -320 804
12 264 104 474 283 646 169 162 452 288 774 344 195 34 445 39 660 14z"/>
</g>
</svg>
