<svg width="90" height="28" viewBox="0 0 90 28" fill="none" xmlns="http://www.w3.org/2000/svg">
<g>
<path d="M65.8807 0L65.5479 2.35301H70.0236L66.5335 27.0186H74.0775L74.4109 24.6662H69.5278L73.0179 0H65.8807Z" fill="black"/>
<path d="M19.4934 2.35301H23.5153V19.5427C23.5153 23.7464 22.049 24.861 19.5633 24.861C19.4003 24.861 19.2415 24.8534 19.085 24.8423V27.1861C19.3241 27.2058 19.5609 27.2175 19.7867 27.2175C23.4839 27.2175 26.2885 25.4656 26.2885 19.7654V0.00058142L19.8268 0L19.4934 2.35301Z" fill="black"/>
<path d="M51.4432 0L51.1104 2.35301H55.5867L52.0966 27.0186H59.64L59.9734 24.6662H55.0903L58.5804 0H51.4432Z" fill="black"/>
<path d="M39.3738 4.57287H39.553C39.553 4.57287 39.6019 5.35488 39.7275 6.26771C39.7945 6.75087 42.5461 27.0186 42.5461 27.0186H45.207L41.3841 0H37.5426L33.7197 27.0186H36.3806C36.3806 27.0186 36.7908 24.0644 37.2982 20.4044H38.8239V20.4038H39.8823L40.2151 18.0508H37.6247C38.3427 12.8732 39.1201 6.85204 39.2004 6.26364C39.3528 5.14615 39.3738 4.57287 39.3738 4.57287Z" fill="black"/>
<path d="M53.7302 10.0918C54.5553 10.0918 55.4194 9.89765 56.3341 9.69124C57.5141 9.42553 58.7349 9.1511 59.8759 9.31855C60.6475 9.43193 60.893 9.75811 60.9029 9.77206L60.8988 9.76567L61.4341 9.41565C61.3963 9.35751 61.0309 8.84179 59.969 8.68597C58.7098 8.50108 57.4303 8.78888 56.1932 9.06738C55.314 9.26506 54.4837 9.45228 53.7302 9.45228C53.5533 9.45228 53.4102 9.59531 53.4102 9.77206C53.4102 9.94881 53.5533 10.0918 53.7302 10.0918Z" fill="#B4975A"/>
<path d="M89.9761 15.228C89.9086 15.0646 89.7218 14.9867 89.5583 15.0536C86.2759 16.4019 83.6278 17.1874 81.6873 17.3885C80.0936 17.5537 78.9723 17.3292 78.3538 16.7205C77.0033 15.3919 78.2054 12.336 78.8513 10.6947C79.2405 9.70508 79.3715 9.37192 79.176 9.12889C79.091 9.02307 78.9566 8.97307 78.8164 8.99574C77.4565 9.21087 76.2596 10.8057 74.9929 12.4942C73.8379 14.0332 72.6433 15.6245 71.4679 15.8658C71.1979 15.9216 70.8366 15.9507 70.6533 15.7763C70.3635 15.4995 70.4828 14.7379 70.5468 14.328C70.6033 13.9686 70.6341 13.771 70.4881 13.618C70.4124 13.539 70.3065 13.5006 70.1971 13.5128C69.7962 13.557 69.4232 13.9634 68.9508 14.4785C68.4975 14.9727 67.9331 15.5879 67.513 15.5879C67.4204 15.5879 67.382 15.5594 67.3506 15.514C67.0387 15.0629 67.474 13.3436 67.8824 12.2668C67.94 12.1162 67.876 11.9465 67.7335 11.8709C67.5909 11.7953 67.4146 11.8377 67.3215 11.9697L67.115 12.2639C66.9421 11.5732 66.4464 11.1127 65.8104 11.1127C64.6827 11.1127 63.5911 11.954 62.9621 12.9575C62.9604 12.9599 62.9581 12.9628 62.9563 12.9651C61.8711 14.4192 60.4979 15.7437 60.0755 15.7437C60.0033 15.7437 59.9888 15.7251 59.9824 15.717C59.8148 15.5013 60.0476 14.5983 60.1471 14.2134C60.2809 13.6942 60.3362 13.4797 60.1965 13.2994C60.1296 13.2134 60.0289 13.1639 59.9195 13.1639C59.5256 13.1639 58.9973 13.6849 57.8871 14.8733C57.4821 15.3065 56.9369 15.8896 56.7321 16.0222C56.7123 15.9926 56.65 15.8623 56.6849 15.4466C56.7152 15.0751 56.8077 14.6274 56.8967 14.1942C57.0882 13.2651 57.1778 12.768 56.9549 12.4947C56.8682 12.3889 56.7443 12.3302 56.6052 12.3302C56.2276 12.3302 55.5008 12.5488 53.562 14.4413C53.3299 14.6675 53.1053 14.8943 52.8952 15.1105C53.3706 13.8436 53.8041 12.3081 53.4649 11.7447C53.3578 11.5674 53.1861 11.4703 52.9813 11.4703C52.5257 11.4703 50.9861 12.304 49.45 13.3488C49.454 12.9343 49.3278 12.6087 49.0682 12.4191C48.6266 12.097 47.7259 12.1023 45.9407 13.9593C45.5276 14.3896 45.1069 14.9413 44.699 15.5664C44.7135 14.9972 44.7007 14.5001 44.6617 14.0971C44.6053 13.5186 44.468 12.7401 43.9263 12.6593C43.0267 12.5244 42.2284 13.2831 41.3032 14.1611C40.1232 15.2809 38.7866 16.549 36.86 16.5141C36.7116 16.5112 36.65 16.4501 36.6087 16.3908C36.2427 15.8652 36.6488 14.1221 36.9909 13.1471C37.0445 12.9948 36.9758 12.8267 36.8315 12.7552C36.6872 12.6831 36.5121 12.7302 36.4225 12.8639C36.3154 13.025 36.1472 13.2645 35.9517 13.5372C35.9773 13.3506 35.9913 13.1593 35.9913 12.9634C35.9913 12.3203 35.5392 11.8354 34.9399 11.8354C34.2317 11.8354 33.3886 12.4965 32.8352 13.1157C32.6461 13.3279 32.4762 13.5477 32.3284 13.7721C31.9426 14.2785 30.8202 15.489 29.0397 15.2728C28.7394 15.2361 28.5428 15.1931 28.4148 15.1559C28.3525 14.9227 28.2809 14.8309 28.1954 14.7733C28.061 14.6832 27.8847 14.6966 27.7671 14.8065C27.6124 14.9507 27.5571 15.1355 27.6153 15.3135C27.6519 15.4268 27.7287 15.5228 27.8509 15.6036C27.926 16.1495 27.9469 17.1653 27.606 18.049C27.4582 18.4322 26.8903 19.6753 25.7998 19.5985C25.6043 19.5846 25.4536 19.4863 25.339 19.2974C25.0341 18.7956 24.987 17.6159 25.7696 15.8077C25.8051 15.7263 25.84 15.6449 25.8761 15.5635C26.178 15.2989 26.4847 15.0175 26.7966 14.7187C28.8808 12.718 31.1292 9.94637 32.9656 7.11485C33.5748 6.17527 33.5806 5.35663 33.3833 4.90371C33.2588 4.61765 33.0371 4.42694 32.7753 4.38043C32.4279 4.31938 31.9991 4.5723 31.3846 5.20081C30.858 5.73921 30.229 6.5311 29.5663 7.48928C28.0907 9.62426 26.6005 12.3395 25.3489 15.1728C23.2221 17.0071 21.3311 17.9549 19.8328 17.9252C15.8458 17.8467 15.6671 15.1379 15.6613 15.0129C15.6596 14.9634 15.6462 14.9169 15.6241 14.8756C16.9531 12.2569 18.7161 9.92718 20.9203 9.92718C20.9348 9.92718 20.9499 9.92718 20.9645 9.92776C21.7878 9.93939 21.8868 10.6086 21.8949 10.6848C21.9129 10.8592 22.0677 10.9871 22.2429 10.9702C22.4186 10.954 22.5483 10.7976 22.5315 10.622C22.489 10.1673 22.1079 9.3039 20.9726 9.28762C19.0944 9.25971 17.3202 10.6429 15.7015 13.3948C15.3221 14.0401 14.9724 14.7216 14.6524 15.4065C14.8421 14.939 15.0346 14.4675 15.2255 14C16.0093 12.0808 16.8198 10.0958 17.3749 8.55503C18.189 6.29621 18.2245 5.652 18.0179 5.34501C17.93 5.21419 17.7886 5.13918 17.6304 5.13918C17.3167 5.13918 17.1561 5.42699 16.6226 6.37993C15.0824 9.13354 11.4765 15.5827 3.46765 15.5827C2.45694 15.5827 1.43343 15.4024 0.426796 15.0466C0.260381 14.9873 0.0770915 15.0751 0.0183226 15.2414C-0.0404463 15.4076 0.0468342 15.5908 0.213249 15.6495C1.28913 16.0298 2.38363 16.2222 3.46765 16.2222C7.06361 16.2222 10.2435 14.9541 12.9178 12.4529C15.1016 10.4109 16.4544 7.99163 17.1812 6.69216C17.2603 6.55029 17.3406 6.40726 17.4157 6.27586C17.3255 6.68285 17.1294 7.3573 16.7232 8.47363C16.1745 9.98067 15.3908 11.9017 14.632 13.7587C13.8633 15.6408 13.0691 17.5862 12.5268 19.0863C11.647 21.5213 11.7331 21.9626 11.8966 22.2062C11.9827 22.3341 12.1212 22.4079 12.2766 22.4079C12.5658 22.4079 12.7107 22.1085 12.8841 21.6858C13.0237 21.3457 13.1983 20.8561 13.4008 20.2893C13.8284 19.0915 14.4202 17.4345 15.1766 15.7972C15.2738 16.0908 15.4309 16.4403 15.6852 16.7908C16.2531 17.574 17.4308 18.5182 19.8182 18.5648C21.2694 18.5927 22.958 17.8682 24.8531 16.4054C24.3935 17.7822 24.3655 18.9305 24.7903 19.6293C25.0108 19.9921 25.353 20.2079 25.7527 20.2363C26.7861 20.3102 27.7002 19.5782 28.2012 18.2787C28.5224 17.4473 28.5468 16.5693 28.5329 16.1199C28.53 16.0251 28.5247 15.9303 28.5177 15.8385C28.6493 15.8646 28.7965 15.8873 28.9606 15.9071C30.1109 16.0472 31.025 15.6902 31.6924 15.2396C31.6511 15.4408 31.6296 15.6385 31.6296 15.8303C31.6296 15.846 31.629 15.8646 31.629 15.8867C31.6249 16.2013 31.6145 16.9385 32.0462 17.3758C32.2475 17.5798 32.521 17.688 32.8364 17.688C33.5759 17.688 34.3557 16.8182 34.8805 16.0867C34.927 16.024 35.4228 15.3547 35.9325 14.6535C35.7946 15.4356 35.7545 16.2862 36.0809 16.7554C36.2578 17.0095 36.5225 17.1467 36.8466 17.1531C39.0339 17.1944 40.5357 15.7687 41.7419 14.6239C42.5362 13.8704 43.2234 13.218 43.8087 13.2884C43.9821 13.457 44.1631 14.5175 43.9961 16.7327C42.4943 19.4334 41.3713 22.7958 41.8373 23.8894C41.9601 24.1766 42.1969 24.3412 42.4885 24.3412C42.8771 24.3412 43.349 24.022 43.9053 21.6533C44.2306 20.2672 44.4977 18.5049 44.6245 16.9083C45.2058 15.8792 45.8202 15.0065 46.4009 14.4024C47.8027 12.9442 48.5102 12.8052 48.6889 12.9354C48.8169 13.0291 48.8588 13.3651 48.7267 13.8558C47.7689 14.5512 46.8822 15.2925 46.3445 15.9187C45.8744 16.4658 45.6742 16.9135 45.7318 17.2868C45.7632 17.4915 45.9052 17.6397 46.1019 17.674C46.419 17.7293 46.8915 17.4606 47.5053 16.8757C48.0686 16.3391 48.5824 15.6809 48.914 15.0698C49.0694 14.7832 49.1916 14.5064 49.2789 14.2442C49.5634 14.0419 49.8637 13.8372 50.1761 13.632C51.5691 12.7174 52.6229 12.1889 52.9295 12.1174C52.961 12.2453 53.0011 12.6971 52.6019 13.9872C52.3279 14.8733 51.9078 15.9234 51.5808 16.5397C51.5051 16.6833 51.5488 16.8606 51.682 16.9525C51.8158 17.0443 51.998 17.0217 52.1044 16.8996C52.1132 16.8897 52.993 15.8873 54.0072 14.8977C55.4613 13.4785 56.1502 13.0971 56.4458 13C56.4359 13.25 56.3375 13.7268 56.2683 14.064C56.0297 15.2233 55.8982 16.0141 56.2375 16.4298C56.3649 16.5862 56.5459 16.6693 56.7606 16.6693C57.0567 16.6693 57.3919 16.3368 58.3531 15.3082C58.6802 14.9582 59.1497 14.4559 59.5064 14.1274C59.3272 14.8227 59.1276 15.66 59.475 16.1077C59.5722 16.2327 59.7549 16.3821 60.0737 16.3821C60.7039 16.3821 61.6756 15.453 62.4187 14.6216C62.428 14.9722 62.5385 15.2856 62.7428 15.5274C62.9813 15.8094 63.3276 15.9652 63.718 15.9652C64.9446 15.9652 66.0874 14.9972 66.7036 14.0564C66.5744 14.7663 66.5476 15.4786 66.8217 15.8757C66.98 16.1048 67.2185 16.2263 67.5112 16.2263C68.2129 16.2263 68.8547 15.5268 69.4209 14.9094C69.5565 14.7617 69.7264 14.5762 69.8829 14.4256C69.8009 14.9914 69.7357 15.7862 70.2099 16.2379C70.5177 16.5315 70.9838 16.617 71.5954 16.4914C73.0081 16.2019 74.2766 14.5117 75.5032 12.8773C76.5063 11.5406 77.5397 10.1638 78.5283 9.74171C78.455 9.94869 78.3509 10.2138 78.2537 10.4609C77.8993 11.3615 77.4141 12.5947 77.2017 13.8146C76.9375 15.328 77.1737 16.4589 77.9028 17.1763C78.5167 17.781 79.4582 18.0839 80.7389 18.0833C82.8336 18.0833 85.8366 17.2728 89.7997 15.6449C89.965 15.578 90.043 15.3914 89.9761 15.228ZM30.012 7.96779C31.6395 5.59036 32.4908 5.02406 32.6694 5.00894C32.713 5.02057 32.7613 5.07639 32.7962 5.15604C32.9213 5.44268 32.8998 6.03631 32.4279 6.76425C30.6806 9.45855 28.5579 12.0947 26.5691 14.0448C27.6327 11.8104 28.8267 9.69868 30.012 7.96779ZM34.3638 15.7106C33.6568 16.6955 33.1122 17.0467 32.8381 17.0467C32.6455 17.0467 32.5548 16.9775 32.5036 16.9252C32.2598 16.6786 32.2679 16.1088 32.2708 15.8943C32.2708 15.8693 32.2714 15.8478 32.2714 15.8298C32.2714 15.2385 32.5274 14.6256 32.8899 14.0878C32.9312 14.0314 32.9632 13.9849 32.9859 13.9506C33.6015 13.1023 34.4639 12.4732 34.9399 12.4732C35.2645 12.4732 35.3512 12.7802 35.3512 12.9616C35.3512 13.8326 34.9911 14.8349 34.3638 15.7106ZM43.267 21.5754C42.8574 23.2929 42.5362 23.64 42.4681 23.6964C42.4565 23.6906 42.4448 23.676 42.4279 23.6371C42.2458 23.2091 42.4634 21.7341 43.3735 19.5072C43.5149 19.1613 43.6627 18.8217 43.8163 18.4898C43.6743 19.5898 43.4829 20.6718 43.267 21.5754ZM46.4231 16.9339C46.476 16.8141 46.5732 16.649 46.7507 16.4304C47.0643 16.0443 47.549 15.5856 48.1605 15.0902C47.6089 15.9577 46.8397 16.6722 46.4231 16.9339ZM66.44 13.2227L66.3771 13.3116C66.3434 13.3593 66.3248 13.4134 66.3201 13.468C65.8756 14.2739 64.8201 15.3262 63.7197 15.3262C63.5184 15.3262 63.3502 15.2536 63.2339 15.1158C63.0808 14.935 63.0261 14.6611 63.0803 14.3448C63.1379 14.0047 63.2769 13.6628 63.4713 13.3442C63.4812 13.3308 63.4899 13.3163 63.4975 13.3023C64.0415 12.4366 64.99 11.7517 65.8104 11.7517C66.2334 11.7517 66.5406 12.2 66.5406 12.818C66.5406 12.9273 66.5051 13.0668 66.44 13.2227Z" fill="#B4975A"/>
</g>
</svg>
