<?xml version="1.0" standalone="no"?>
<!DOCTYPE svg PUBLIC "-//W3C//DTD SVG 1.1//EN" "http://www.w3.org/Graphics/SVG/1.1/DTD/svg11.dtd" >
<svg xmlns="http://www.w3.org/2000/svg" xmlns:xlink="http://www.w3.org/1999/xlink" version="1.1">
<metadata>
Created by FontForge 20201107 at Thu Mar 14 15:44:23 2024
 By 
Copyright (c) 2022 Pangram Pangram by Jack Harvatt. All rights reserved.
</metadata>
<defs>
<font id="PPRadioGrotesk-Regular" horiz-adv-x="0" >
  <font-face 
    font-family="PP Radio Grotesk"
    font-weight="400"
    font-stretch="normal"
    units-per-em="2048"
    panose-1="0 0 0 0 0 0 0 0 0 0"
    ascent="1638"
    descent="-410"
    x-height="1032"
    cap-height="1434"
    bbox="-369 -467 3973 1849"
    underline-thickness="102"
    underline-position="-255"
    unicode-range="U+000D-1F150"
  />
<missing-glyph horiz-adv-x="921" 
d="M756 1434v-1844h-584v1844h584zM307 -283h307v62h-188l129 86h59v61h-307v-61h129l-129 -86v-62zM307 -33h307v209h-307v-209zM307 287h307v209h-184v-103h62v41h61v-86h-184v148h-62v-209zM307 537h307v184h-61v-123h-246v-61zM307 641h185v129h122v61h-307v-61h123v-68
h-123v-61zM307 881h307v63h-122v129h-185v-192zM307 1120h307v62h-122v67h122v62h-305v-62h121v-67h-123v-62zM369 29v88h184v-88h-184zM369 944v66h61v-66h-61z" />
    <glyph glyph-name="f_f" unicode="ff" horiz-adv-x="1167" 
d="M164 1155q0 285 291 285h137v-148h-121q-72 0 -101.5 -34.5t-29.5 -108.5v-117h395v123q0 285 291 285h137v-148h-121q-72 0 -101.5 -34.5t-29.5 -108.5v-117h240v-143h-240v-889h-176v889h-395v-889h-176v889h-137v143h137v123z" />
    <glyph glyph-name="f_f_i" unicode="ffi" horiz-adv-x="1611" 
d="M1307 0v1032h174v-1032h-174zM27 889v143h137v123q0 285 291 285h137v-148h-121q-72 0 -101.5 -34.5t-29.5 -108.5v-117h395v123q0 285 291 285h137v-148h-121q-72 0 -101.5 -34.5t-29.5 -108.5v-117h240v-143h-240v-889h-176v889h-395v-889h-176v889h-137zM1303 1176
v206h184v-206h-184z" />
    <glyph glyph-name="f_i" unicode="fi" horiz-adv-x="1038" 
d="M164 1155q0 285 291 285h137v-148h-121q-72 0 -101.5 -34.5t-29.5 -108.5v-117h240v-143h-240v-889h-176v889h-137v143h137v123zM731 1176v206h184v-206h-184zM735 0v1032h174v-1032h-174z" />
    <glyph glyph-name="f_l" unicode="fl" horiz-adv-x="1040" 
d="M164 1155q0 285 291 285h137v-148h-121q-72 0 -101.5 -34.5t-29.5 -108.5v-117h240v-143h-240v-889h-176v889h-137v143h137v123zM733 0v1434h176v-1434h-176z" />
    <glyph glyph-name=".notdef" horiz-adv-x="921" 
d="M756 1434v-1844h-584v1844h584zM307 -283h307v62h-188l129 86h59v61h-307v-61h129l-129 -86v-62zM307 -33h307v209h-307v-209zM307 287h307v209h-184v-103h62v41h61v-86h-184v148h-62v-209zM307 537h307v184h-61v-123h-246v-61zM307 641h185v129h122v61h-307v-61h123v-68
h-123v-61zM307 881h307v63h-122v129h-185v-192zM307 1120h307v62h-122v67h122v62h-305v-62h121v-67h-123v-62zM369 29v88h184v-88h-184zM369 944v66h61v-66h-61z" />
    <glyph glyph-name=".null" horiz-adv-x="1228" 
 />
    <glyph glyph-name="nonmarkingreturn" horiz-adv-x="682" 
 />
    <glyph glyph-name="CR" unicode="&#xd;" horiz-adv-x="1228" 
 />
    <glyph glyph-name="space" unicode=" " horiz-adv-x="520" 
 />
    <glyph glyph-name="exclam" unicode="!" horiz-adv-x="471" 
d="M190 344l-34 424v666h159v-666l-34 -424h-91zM147 0v211h177v-211h-177z" />
    <glyph glyph-name="quotedbl" unicode="&#x22;" horiz-adv-x="612" 
d="M385 1024h90l29 274v136h-150v-136zM109 1298l30 -274h90l29 274v136h-149v-136z" />
    <glyph glyph-name="numbersign" unicode="#" horiz-adv-x="1294" 
d="M610 0l105 401h-299l-105 -401h-139l104 401h-262l39 134h256l92 356h-266l37 133h264l107 410h139l-107 -410h299l107 410h137l-106 -410h268l-37 -133h-266l-92 -356h276l-39 -134h-270l-104 -401h-138zM449 535h299l92 356h-299z" />
    <glyph glyph-name="dollar" unicode="$" horiz-adv-x="1210" 
d="M563 -170v162q-192 20 -326.5 133t-168.5 283l170 43q26 -124 112.5 -207t212.5 -103v531l-90 30q-88 29 -147 58.5t-108.5 72t-73 101t-23.5 135.5q0 161 120.5 265.5t321.5 113.5v158h103v-162q177 -16 291 -111.5t159 -234.5l-174 -39q-31 86 -99.5 150.5t-176.5 84.5
v-481l104 -35q84 -29 141 -57.5t110 -73t79 -107.5t26 -147q0 -174 -122.5 -286t-337.5 -119v-158h-103zM299 1083q0 -90 58 -138t184 -89l22 -8v452q-120 -5 -192 -63t-72 -154zM666 135q125 6 203.5 70.5t78.5 177.5q0 44 -13 78.5t-32.5 58t-55.5 44.5t-67.5 34t-83.5 31
l-30 10v-504z" />
    <glyph glyph-name="percent" unicode="%" horiz-adv-x="1415" 
d="M131 0l993 1434h160l-993 -1434h-160zM104 1174q0 124 73 198t200 74q126 0 198 -74t72 -198q0 -125 -72 -200t-198 -75t-199.5 75.5t-73.5 199.5zM244 1174q0 -74 35 -120t98 -46t98 46t35 120t-35 119.5t-98 45.5t-98 -45.5t-35 -119.5zM766 260q0 124 73 198t199 74
t198.5 -74t72.5 -198t-72.5 -199t-198.5 -75t-199 75t-73 199zM905 260q0 -75 35 -120.5t98 -45.5t98 45.5t35 120.5q0 74 -35 120t-98 46t-98 -46t-35 -120z" />
    <glyph glyph-name="ampersand" unicode="&#x26;" horiz-adv-x="1519" 
d="M96 377q0 78 24.5 140.5t70.5 107.5t98.5 76t120.5 57q-105 185 -105 309q0 173 112.5 277t303.5 104q181 0 284 -92t103 -230q0 -74 -27.5 -134t-70.5 -100.5t-109.5 -74.5t-128.5 -54t-145 -40q193 -288 424 -432q94 133 94 346h166q0 -225 -152 -404q130 -59 283 -59
v-174q-206 0 -410 109q-172 -123 -387 -123q-253 0 -401 102.5t-148 288.5zM283 399q0 -132 106 -205t283 -73q140 0 250 55q-250 175 -465 506q-174 -95 -174 -283zM485 1067q0 -113 97 -272q80 23 137.5 48.5t107.5 62.5t75.5 88.5t25.5 117.5q0 88 -56 140.5t-157 52.5
q-103 0 -166.5 -65.5t-63.5 -172.5z" />
    <glyph glyph-name="quotesingle" unicode="'" horiz-adv-x="366" 
d="M139 1024h90l29 274v136h-149v-136z" />
    <glyph glyph-name="parenleft" unicode="(" horiz-adv-x="555" 
d="M373 -184q-11 11 -37 45.5t-71.5 113t-83.5 169t-66.5 222.5t-28.5 265q0 134 27.5 263.5t64 217.5t81.5 163.5t72 110t42 48.5h143q-252 -322 -252 -803q0 -144 25 -279t56.5 -221t74 -164t62 -104.5t36.5 -46.5h-145z" />
    <glyph glyph-name="parenright" unicode=")" horiz-adv-x="555" 
d="M182 1434q11 -11 37 -45.5t71.5 -113t83.5 -169.5t66.5 -223t28.5 -265q0 -134 -27.5 -263t-64 -217t-81.5 -164t-72 -110t-42 -48h-143q252 322 252 802q0 144 -25 279t-56.5 221.5t-74 164.5t-62 105t-36.5 46h145z" />
    <glyph glyph-name="asterisk" unicode="*" horiz-adv-x="772" 
d="M322 766l24 264l-217 -153l-63 112l241 111l-241 110l63 113l217 -154l-24 265h129l-25 -265l217 154l64 -113l-240 -110l240 -111l-64 -112l-217 155l25 -266h-129z" />
    <glyph glyph-name="plus" unicode="+" horiz-adv-x="1083" 
d="M467 190v377h-373v142h373v374h151v-374h371v-142h-371v-377h-151z" />
    <glyph glyph-name="comma" unicode="," horiz-adv-x="370" 
d="M78 -127q88 0 88 127h-72v211h176v-221q0 -101 -49 -160t-143 -59v102z" />
    <glyph glyph-name="hyphen" unicode="-" horiz-adv-x="831" 
d="M115 674h600v-139h-600v139z" />
    <glyph glyph-name="period" unicode="." horiz-adv-x="376" 
d="M100 0v211h176v-211h-176z" />
    <glyph glyph-name="slash" unicode="/" horiz-adv-x="980" 
d="M27 -211h157l770 1645h-157z" />
    <glyph glyph-name="zero" unicode="0" horiz-adv-x="1212" 
d="M606 -14q-237 0 -379.5 193.5t-142.5 533.5q0 344 142.5 539.5t379.5 195.5t380.5 -195.5t143.5 -539.5q0 -339 -143.5 -533t-380.5 -194zM270 713q0 -275 91 -423.5t245 -148.5t245 148.5t91 423.5q0 281 -90.5 430t-245.5 149t-245.5 -149t-90.5 -430z" />
    <glyph glyph-name="one" unicode="1" horiz-adv-x="632" 
d="M297 0v1174q-59 -175 -242 -175v168q128 0 185 60t57 207h182v-1434h-182z" />
    <glyph glyph-name="two" unicode="2" horiz-adv-x="1105" 
d="M57 45q0 112 26.5 205t71.5 156.5t103.5 116t123 91t128.5 73t122.5 69.5t103.5 74.5t71.5 94.5t26.5 122q0 112 -75 178.5t-196 66.5q-127 0 -208 -73.5t-111 -188.5l-172 43q47 168 178.5 271.5t335.5 103.5q193 0 313.5 -103.5t120.5 -291.5q0 -81 -24 -147
t-64.5 -113.5t-94 -87.5t-114 -73.5t-122 -66.5t-120.5 -73t-107 -85.5t-84 -111t-50 -143.5h813l-41 -152h-955v45z" />
    <glyph glyph-name="three" unicode="3" horiz-adv-x="1132" 
d="M569 -14q-205 0 -349.5 99t-186.5 277l174 44q34 -122 129.5 -193.5t234.5 -71.5q140 0 219.5 69t79.5 198q0 119 -83 192.5t-240 73.5h-139l28 143h119q120 0 197 66t77 184q0 102 -73 163.5t-193 61.5q-122 0 -200 -64t-101 -179l-168 43q28 158 159.5 257t317.5 99
q203 0 323 -97t120 -261q0 -122 -74 -208.5t-195 -119.5q139 -28 226.5 -126.5t87.5 -234.5q0 -191 -130 -303t-360 -112z" />
    <glyph glyph-name="four" unicode="4" horiz-adv-x="1116" 
d="M27 516l639 918h215v-918h215l-27 -147h-188v-369h-181v369h-673v147zM205 516h495v721z" />
    <glyph glyph-name="five" unicode="5" horiz-adv-x="1134" 
d="M573 -14q-190 0 -323 103.5t-174 272.5l174 44q34 -122 118.5 -194.5t209.5 -72.5q135 0 219 94t84 242q0 152 -79 244t-210 92q-101 0 -185.5 -60t-121.5 -157h-189l117 840h813l-20 -148h-629l-76 -518q60 88 151 136t197 48q194 0 307 -130t113 -345q0 -219 -137 -355
t-359 -136z" />
    <glyph glyph-name="six" unicode="6" horiz-adv-x="1157" 
d="M608 -14q-107 0 -201 40t-167 117t-115.5 202t-42.5 284q0 249 62 432.5t185.5 285t297.5 101.5q171 0 285.5 -89t156.5 -243l-174 -41q-69 217 -279 217q-339 0 -368 -667q47 131 157 209.5t244 78.5q196 0 315 -119.5t119 -324.5q0 -216 -129 -349.5t-346 -133.5z
M285 461q0 -138 94.5 -229t222.5 -91q132 0 212.5 87t80.5 233q0 145 -78.5 229t-214.5 84q-83 0 -154.5 -37t-117 -110t-45.5 -166z" />
    <glyph glyph-name="seven" unicode="7" horiz-adv-x="942" 
d="M84 0l645 1286h-678l-28 148h892v-148l-645 -1286h-186z" />
    <glyph glyph-name="eight" unicode="8" horiz-adv-x="1150" 
d="M575 -12q-238 0 -372.5 105t-134.5 292q0 141 90 239t241 124q-122 26 -199 112t-77 215q0 167 122.5 270t329.5 103t330 -103t123 -270q0 -124 -75 -213t-197 -114q147 -26 236 -122t89 -229q0 -195 -133.5 -302t-372.5 -107zM256 397q0 -121 85 -188.5t234 -67.5
q148 0 233 70t85 199q0 112 -87.5 187t-230.5 75q-146 0 -232.5 -76t-86.5 -199zM309 1061q0 -110 71.5 -175t194.5 -65t195 65t72 175q0 104 -72.5 167.5t-194.5 63.5t-194 -63.5t-72 -167.5z" />
    <glyph glyph-name="nine" unicode="9" horiz-adv-x="1157" 
d="M549 1448q107 0 201 -40t167 -117t115.5 -202t42.5 -284q0 -249 -62 -432.5t-185.5 -285t-297.5 -101.5q-171 0 -285.5 88.5t-156.5 242.5l174 41q69 -217 279 -217q339 0 368 668q-47 -131 -157 -210t-244 -79q-196 0 -315 120t-119 325q0 216 129 349.5t346 133.5z
M262 973q0 -145 78.5 -229.5t214.5 -84.5q83 0 154.5 37.5t117 110.5t45.5 166q0 137 -94.5 228t-222.5 91q-133 0 -213 -86.5t-80 -232.5z" />
    <glyph glyph-name="colon" unicode=":" horiz-adv-x="376" 
d="M100 629v211h176v-211h-176zM100 0v211h176v-211h-176z" />
    <glyph glyph-name="semicolon" unicode=";" horiz-adv-x="374" 
d="M96 629v211h176v-211h-176zM78 -229v102q88 0 88 127h-72v211h176v-221q0 -101 -49 -160t-143 -59z" />
    <glyph glyph-name="less" unicode="&#x3c;" horiz-adv-x="923" 
d="M778 975v-158l-530 -223l530 -227v-156l-672 295v170z" />
    <glyph glyph-name="equal" unicode="=" horiz-adv-x="1003" 
d="M94 356v142h815v-142h-815zM94 750v141h815v-141h-815z" />
    <glyph glyph-name="greater" unicode="&#x3e;" horiz-adv-x="923" 
d="M145 211v158l531 223l-531 227v156l672 -295v-170z" />
    <glyph glyph-name="question" unicode="?" horiz-adv-x="991" 
d="M371 406q0 96 22.5 169t58 116.5t79 78t86.5 62t78.5 57.5t58 76.5t22.5 107.5q0 102 -67.5 160.5t-188.5 58.5q-262 0 -317 -282l-170 37q37 188 164 294.5t327 106.5q199 0 315.5 -99.5t116.5 -256.5q0 -79 -23.5 -139.5t-61.5 -99.5t-84 -72l-92 -66t-84 -71.5
t-61.5 -99t-23.5 -138.5v-35h-155v35zM362 0v211h177v-211h-177z" />
    <glyph glyph-name="at" unicode="@" horiz-adv-x="1755" 
d="M899 -283q-375 0 -601 221t-226 594q0 239 101.5 419t285 276t424.5 96q366 0 582 -192.5t216 -520.5q0 -215 -91.5 -339t-248.5 -124q-112 0 -182 51.5t-84 143.5q-35 -93 -107.5 -144t-168.5 -51q-149 0 -239.5 99.5t-90.5 273.5q0 171 92.5 271t237.5 100
q99 0 168.5 -48t103.5 -136v155h160v-454q0 -70 32.5 -108t90.5 -38q75 0 119.5 89.5t44.5 242.5q0 276 -169.5 436t-471.5 160q-295 0 -468 -178t-173 -480q0 -313 180.5 -494t490.5 -181q242 0 535 92l43 -123q-140 -52 -296.5 -80.5t-289.5 -28.5zM641 520
q0 -117 56.5 -182.5t150.5 -65.5q100 0 161.5 66t61.5 178t-58.5 180t-158.5 68q-97 0 -155 -64t-58 -180z" />
    <glyph glyph-name="A" unicode="A" horiz-adv-x="1325" 
d="M776 1434l533 -1434h-183l-139 381h-653l-141 -381h-177l537 1434h223zM387 528h547l-272 744z" />
    <glyph glyph-name="B" unicode="B" horiz-adv-x="1232" 
d="M147 0v1434h494q224 0 335 -92.5t111 -258.5q0 -110 -64.5 -200.5t-170.5 -120.5q141 -24 229 -117t88 -237q0 -194 -134.5 -301t-393.5 -107h-494zM330 147h319q168 0 250 69t82 198q0 122 -87 190t-232 68h-332v-525zM330 815h315q127 0 194.5 64.5t67.5 175.5
q0 231 -274 231h-303v-471z" />
    <glyph glyph-name="C" unicode="C" horiz-adv-x="1406" 
d="M762 -14q-210 0 -367 91.5t-240 257t-83 382.5q0 215 85 381t239.5 258t353.5 92q229 0 388 -127.5t214 -345.5l-176 -43q-42 166 -154.5 263t-273.5 97q-220 0 -354 -157t-134 -412q0 -262 135.5 -422t366.5 -160q159 0 271.5 93.5t150.5 259.5l174 -45
q-55 -208 -213.5 -335.5t-382.5 -127.5z" />
    <glyph glyph-name="D" unicode="D" horiz-adv-x="1388" 
d="M147 0v1434h443q338 0 535.5 -193.5t197.5 -523.5t-197.5 -523.5t-535.5 -193.5h-443zM330 147h260q251 0 398 155.5t147 414.5q0 260 -147 414.5t-398 154.5h-260v-1139z" />
    <glyph glyph-name="E" unicode="E" horiz-adv-x="1067" 
d="M147 0v1434h869v-148h-686v-469h577v-147h-577v-523h686v-147h-869z" />
    <glyph glyph-name="F" unicode="F" horiz-adv-x="1030" 
d="M147 0v1434h865v-148h-682v-510h571v-147h-571v-629h-183z" />
    <glyph glyph-name="G" unicode="G" horiz-adv-x="1478" 
d="M725 -14q-134 0 -253.5 52t-208 145t-140 230t-51.5 298q0 165 52 304t142.5 233.5t214 147t264.5 52.5q127 0 231 -35t176.5 -97.5t119.5 -142t71 -174.5l-176 -41q-98 334 -434 334q-208 0 -340.5 -157t-132.5 -416q0 -166 63.5 -298t176.5 -206t256 -74
q181 0 304 123.5t136 331.5h-348l20 143h496v-739h-145v313q-66 -150 -196.5 -238.5t-297.5 -88.5z" />
    <glyph glyph-name="H" unicode="H" horiz-adv-x="1384" 
d="M1055 0v664h-725v-664h-183v1434h183v-623h725v623h182v-1434h-182z" />
    <glyph glyph-name="I" unicode="I" horiz-adv-x="477" 
d="M147 0v1434h183v-1434h-183z" />
    <glyph glyph-name="J" unicode="J" horiz-adv-x="1089" 
d="M520 -14q-204 0 -333 112t-146 305l166 39q6 -140 86 -220.5t213 -80.5q125 0 193.5 78.5t68.5 224.5v990h182v-1004q0 -210 -115 -327t-315 -117z" />
    <glyph glyph-name="K" unicode="K" horiz-adv-x="1253" 
d="M147 0v1434h183v-822l678 822h202l-540 -650l561 -784h-209l-461 655l-231 -278v-377h-183z" />
    <glyph glyph-name="L" unicode="L" horiz-adv-x="987" 
d="M147 0v1434h183v-1287h637v-147h-820z" />
    <glyph glyph-name="M" unicode="M" horiz-adv-x="1736" 
d="M788 0l-466 1155v-1155h-175v1434h238l487 -1207l480 1207h237v-1434h-174v1174l-467 -1174h-160z" />
    <glyph glyph-name="N" unicode="N" horiz-adv-x="1429" 
d="M147 0v1434h207l754 -1153v1153h174v-1434h-182l-778 1190v-1190h-175z" />
    <glyph glyph-name="O" unicode="O" horiz-adv-x="1476" 
d="M739 -14q-304 0 -485.5 199t-181.5 532t181.5 532t485.5 199q303 0 484.5 -199t181.5 -532t-181.5 -532t-484.5 -199zM260 717q0 -260 131.5 -418t347.5 -158t347 157.5t131 418.5t-131 418t-347 157t-347.5 -157.5t-131.5 -417.5z" />
    <glyph glyph-name="P" unicode="P" horiz-adv-x="1163" 
d="M147 0v1434h443q244 0 386 -122t142 -329q0 -210 -138.5 -332.5t-375.5 -122.5h-274v-528h-183zM330 676h252q161 0 255.5 82t94.5 223t-94.5 223t-255.5 82h-252v-610z" />
    <glyph glyph-name="Q" unicode="Q" horiz-adv-x="1507" 
d="M1452 -10q-235 0 -383 84q-149 -88 -330 -88q-300 0 -483.5 199.5t-183.5 531.5q0 333 181.5 532t485.5 199q199 0 350.5 -91t233.5 -255.5t82 -376.5q0 -179 -62 -325.5t-163 -239.5q107 -41 272 -41v-129zM260 717q0 -262 133 -423t352 -161q100 0 197 41
q-125 119 -225 305l121 66q102 -202 206 -303q81 73 127 194.5t46 280.5q0 261 -131 418t-347 157t-347.5 -157.5t-131.5 -417.5z" />
    <glyph glyph-name="R" unicode="R" horiz-adv-x="1224" 
d="M147 0v1434h484q233 0 367.5 -112.5t134.5 -313.5q0 -154 -87 -258.5t-217 -137.5l355 -612h-199l-317 565h-338v-565h-183zM330 713h303q141 0 226 75.5t85 210.5q0 138 -91 212.5t-259 74.5h-264v-573z" />
    <glyph glyph-name="S" unicode="S" horiz-adv-x="1169" 
d="M616 -12q-218 0 -375 116t-194 304l170 43q31 -143 138.5 -229.5t262.5 -86.5q135 0 222.5 65t87.5 183q0 44 -13 78.5t-32.5 58t-55.5 44.5t-67.5 34t-83.5 31l-223 73q-70 23 -120 45.5t-96.5 54t-75 68t-45 87t-16.5 112.5q0 168 129.5 273.5t343.5 105.5
q207 0 340 -98.5t183 -251.5l-174 -39q-36 104 -126 172.5t-233 68.5q-128 0 -206 -58.5t-78 -158.5q0 -90 57.5 -138t183.5 -89l230 -78q84 -29 141 -57.5t110 -73t79 -107.5t26 -147q0 -181 -130.5 -293t-359.5 -112z" />
    <glyph glyph-name="T" unicode="T" horiz-adv-x="1169" 
d="M494 0v1286h-461v148h1104v-148h-461v-1286h-182z" />
    <glyph glyph-name="U" unicode="U" horiz-adv-x="1429" 
d="M717 -16q-274 0 -426 147.5t-152 411.5v891h183v-889q0 -197 103 -301.5t292 -104.5q190 0 293.5 104.5t103.5 301.5v889h178v-891q0 -264 -151.5 -411.5t-423.5 -147.5z" />
    <glyph glyph-name="V" unicode="V" horiz-adv-x="1304" 
d="M539 0l-521 1434h185l450 -1239l455 1239h180l-528 -1434h-221z" />
    <glyph glyph-name="W" unicode="W" horiz-adv-x="1910" 
d="M406 0l-377 1434h176l313 -1182l359 1182h174l358 -1172l299 1172h174l-362 -1434h-189l-370 1198l-365 -1198h-190z" />
    <glyph glyph-name="X" unicode="X" horiz-adv-x="1210" 
d="M987 0l-385 584l-391 -584h-191l488 727l-465 707h199l374 -570l369 570h191l-463 -715l473 -719h-199z" />
    <glyph glyph-name="Y" unicode="Y" horiz-adv-x="1161" 
d="M489 659l-483 775h191l387 -623l389 623h182l-483 -775v-659h-183v659z" />
    <glyph glyph-name="Z" unicode="Z" horiz-adv-x="1177" 
d="M41 147l877 1139h-867v148h1073v-148l-872 -1139h885v-147h-1096v147z" />
    <glyph glyph-name="bracketleft" unicode="[" horiz-adv-x="706" 
d="M160 1434h487v-138h-313v-1343h313v-137h-487v1618z" />
    <glyph glyph-name="backslash" unicode="\" horiz-adv-x="980" 
d="M954 -211l-770 1645h-157l768 -1645h159z" />
    <glyph glyph-name="bracketright" unicode="]" horiz-adv-x="706" 
d="M547 -184h-488v137h314v1343h-314v138h488v-1618z" />
    <glyph glyph-name="asciicircum" unicode="^" horiz-adv-x="954" 
d="M98 1047l295 591h164l297 -591h-162l-211 442l-211 -442h-172z" />
    <glyph glyph-name="underscore" unicode="_" horiz-adv-x="1062" 
d="M115 -96h831v-137h-831v137z" />
    <glyph glyph-name="grave" unicode="`" horiz-adv-x="350" 
d="M205 1151l-146 244h183l114 -244h-151z" />
    <glyph glyph-name="a" unicode="a" horiz-adv-x="1036" 
d="M748 686q0 103 -58 161t-170 58q-206 0 -274 -188l-160 41q42 128 158 208.5t286 80.5q189 0 291.5 -94t102.5 -269v-684h-176v195q-58 -98 -159.5 -153.5t-219.5 -55.5q-138 0 -229 72t-91 198q0 78 30 135.5t88 93t132 55t172 27.5q137 12 202 32t75 67v20zM236 279
q0 -82 58 -123t144 -41q117 0 207 79t103 218v125q-63 -72 -230 -88q-73 -6 -119 -14.5t-86 -26.5t-58.5 -49.5t-18.5 -79.5z" />
    <glyph glyph-name="b" unicode="b" horiz-adv-x="1161" 
d="M131 0v1434h176v-619q53 109 146 170.5t219 61.5q192 0 313 -145t121 -388q0 -239 -124.5 -383.5t-307.5 -144.5q-123 0 -217.5 61t-149.5 172v-219h-176zM307 520q0 -171 91 -283t223 -112q135 0 219 105.5t84 283.5q0 180 -82 286.5t-217 106.5q-140 0 -229 -108.5
t-89 -278.5z" />
    <glyph glyph-name="c" unicode="c" horiz-adv-x="1056" 
d="M563 -14q-105 0 -197.5 37t-161.5 104t-109 167.5t-40 221.5t38.5 221.5t105.5 168t159 104.5t199 37q170 0 289.5 -92t157.5 -240l-173 -43q-27 110 -99.5 171.5t-180.5 61.5q-136 0 -223.5 -106.5t-87.5 -278.5q0 -185 94 -289t235 -104q103 0 175.5 63.5t105.5 171.5
l164 -40q-44 -148 -161 -242t-290 -94z" />
    <glyph glyph-name="d" unicode="d" horiz-adv-x="1163" 
d="M856 0v221q-53 -111 -146.5 -173t-220.5 -62q-192 0 -313 144.5t-121 387.5q0 239 124.5 384t307.5 145q125 0 220.5 -62.5t148.5 -175.5v625h176v-1434h-176zM238 518q0 -180 82 -286.5t217 -106.5q139 0 228 108.5t89 278.5q0 171 -90.5 283t-222.5 112
q-135 0 -219 -105.5t-84 -283.5z" />
    <glyph glyph-name="e" unicode="e" horiz-adv-x="1073" 
d="M557 -14q-224 0 -363 144t-139 386q0 147 59.5 267t173.5 192t263 72q206 0 332.5 -134.5t126.5 -337.5q0 -39 -6 -77h-768q6 -179 97 -277t230 -98q203 0 287 217l160 -39q-42 -135 -158 -225t-295 -90zM246 629h585q-11 122 -87 201t-197 79q-118 0 -197.5 -76
t-103.5 -204z" />
    <glyph glyph-name="f" unicode="f" horiz-adv-x="593" 
d="M164 1155q0 285 291 285h137v-148h-121q-72 0 -101.5 -34.5t-29.5 -108.5v-117h240v-143h-240v-889h-176v889h-137v143h137v123z" />
    <glyph glyph-name="g" unicode="g" horiz-adv-x="1167" 
d="M582 -424q-187 0 -310.5 85.5t-162.5 236.5l157 39q67 -220 314 -220q127 0 203.5 79.5t76.5 230.5v194q-53 -111 -146 -173t-220 -62q-192 0 -313.5 144.5t-121.5 387.5q0 239 125 384t308 145q125 0 220 -62t148 -176v223h176v-993q0 -225 -121.5 -344t-332.5 -119z
M242 518q0 -180 82 -286.5t217 -106.5q139 0 228 108.5t89 278.5q0 171 -90.5 283t-222.5 112q-135 0 -219 -105.5t-84 -283.5z" />
    <glyph glyph-name="h" unicode="h" horiz-adv-x="1105" 
d="M131 0v1434h176v-633q64 111 164 178.5t225 67.5q140 0 212.5 -91.5t72.5 -269.5v-686h-174v664q0 129 -48 183t-141 54q-114 0 -198.5 -90.5t-112.5 -220.5v-590h-176z" />
    <glyph glyph-name="i" unicode="i" horiz-adv-x="436" 
d="M131 0v1032h174v-1032h-174zM127 1176v206h184v-206h-184z" />
    <glyph glyph-name="j" unicode="j" horiz-adv-x="442" 
d="M-63 -410v148h67q72 0 101.5 34t29.5 109v1151h176v-1157q0 -285 -291 -285h-83zM133 1176v206h184v-206h-184z" />
    <glyph glyph-name="k" unicode="k" horiz-adv-x="995" 
d="M131 0v1434h176v-871l475 469h209l-469 -463l469 -569h-196l-381 461l-107 -105v-356h-176z" />
    <glyph glyph-name="l" unicode="l" horiz-adv-x="438" 
d="M131 0v1434h176v-1434h-176z" />
    <glyph glyph-name="m" unicode="m" horiz-adv-x="1628" 
d="M131 0v1032h176v-209q51 100 136 162t200 62q225 0 262 -234q52 104 138.5 169t203.5 65q266 0 266 -330v-717h-174v678q0 233 -157 233q-79 0 -143 -56.5t-96 -135.5t-32 -158v-561h-176v678q0 233 -157 233q-79 0 -143 -56.5t-96 -135.5t-32 -158v-561h-176z" />
    <glyph glyph-name="n" unicode="n" horiz-adv-x="1105" 
d="M131 0v1032h174v-231q64 111 164 178.5t225 67.5q140 0 212.5 -91.5t72.5 -269.5v-686h-174v664q0 129 -48 183t-141 54q-114 0 -198.5 -90.5t-112.5 -220.5v-590h-174z" />
    <glyph glyph-name="o" unicode="o" horiz-adv-x="1114" 
d="M557 -12q-106 0 -198.5 37.5t-159.5 105.5t-105.5 167.5t-38.5 217.5q0 238 142.5 384.5t359.5 146.5t359.5 -146.5t142.5 -384.5q0 -118 -38.5 -217.5t-105.5 -167.5t-159.5 -105.5t-198.5 -37.5zM240 516q0 -184 87 -286.5t230 -102.5q144 0 232 102.5t88 286.5
t-88 286.5t-232 102.5q-143 0 -230 -102.5t-87 -286.5z" />
    <glyph glyph-name="p" unicode="p" horiz-adv-x="1161" 
d="M131 -410v1442h174v-217q53 109 146 170.5t219 61.5q192 0 313 -145t121 -388q0 -239 -124.5 -383.5t-307.5 -144.5q-123 0 -217.5 61t-149.5 172v-629h-174zM305 520q0 -171 90.5 -283t222.5 -112q135 0 219.5 105.5t84.5 283.5q0 180 -82 286.5t-217 106.5
q-140 0 -229 -108.5t-89 -278.5z" />
    <glyph glyph-name="q" unicode="q" horiz-adv-x="1159" 
d="M854 -410v627q-52 -109 -145.5 -170t-219.5 -61q-192 0 -313 144.5t-121 387.5q0 239 124.5 384t307.5 145q123 0 217.5 -61t149.5 -173v219h176v-1442h-176zM238 518q0 -180 82 -286.5t217 -106.5q139 0 228 108.5t89 278.5q0 171 -90.5 283t-222.5 112
q-135 0 -219 -105.5t-84 -283.5z" />
    <glyph glyph-name="r" unicode="r" horiz-adv-x="688" 
d="M131 0v1032h176v-278q48 136 135.5 214.5t210.5 78.5h4v-183q-166 0 -258 -99t-92 -300v-465h-176z" />
    <glyph glyph-name="s" unicode="s" horiz-adv-x="940" 
d="M498 -14q-188 0 -303.5 86t-153.5 221l162 41q71 -215 299 -215q107 0 166 44.5t59 123.5q0 66 -46.5 102.5t-143.5 61.5l-166 41q-72 17 -122 37t-90.5 50.5t-60.5 74t-20 102.5q0 132 102.5 211.5t270.5 79.5q169 0 278.5 -74t149.5 -199l-164 -39q-29 83 -96 130.5
t-173 47.5q-94 0 -151 -40t-57 -109q0 -61 43.5 -94t124.5 -52l188 -45q147 -34 220 -99.5t73 -178.5q0 -139 -102 -224t-287 -85z" />
    <glyph glyph-name="t" unicode="t" horiz-adv-x="610" 
d="M444 0q-137 0 -213.5 74.5t-76.5 210.5v604h-129v143h129v207l174 76v-283h245v-143h-245v-598q0 -68 35 -106t96 -38h114v-147h-129z" />
    <glyph glyph-name="u" unicode="u" horiz-adv-x="1105" 
d="M975 1032v-1032h-174v236q-63 -113 -164 -181.5t-227 -68.5q-140 0 -212.5 91t-72.5 269v686h174v-663q0 -129 47.5 -183.5t140.5 -54.5q117 0 203.5 94.5t110.5 227.5v579h174z" />
    <glyph glyph-name="v" unicode="v" horiz-adv-x="956" 
d="M383 0l-373 1032h172l297 -819l305 819h164l-383 -1032h-182z" />
    <glyph glyph-name="w" unicode="w" horiz-adv-x="1435" 
d="M309 0l-291 1032h164l221 -788l242 788h156l231 -784l225 784h160l-295 -1032h-159l-246 821l-250 -821h-158z" />
    <glyph glyph-name="x" unicode="x" horiz-adv-x="948" 
d="M16 0l357 522l-357 510h191l276 -393l269 393h180l-359 -524l357 -508h-191l-274 391l-268 -391h-181z" />
    <glyph glyph-name="y" unicode="y" horiz-adv-x="980" 
d="M106 -410v148h95q44 0 74 9.5t51.5 32t34.5 47.5t30 69l35 92l-418 1044h168l330 -825l303 825h162l-416 -1130q-33 -89 -60.5 -141.5t-67.5 -94.5t-93.5 -59t-130.5 -17h-97z" />
    <glyph glyph-name="z" unicode="z" horiz-adv-x="868" 
d="M37 0v139l577 750h-561v143h766v-139l-579 -752h589v-141h-792z" />
    <glyph glyph-name="braceleft" unicode="{" horiz-adv-x="581" 
d="M41 700q95 0 136.5 28t41.5 93v348q0 87 12 138t46.5 80t83.5 38t135 9v-134q-57 0 -79 -24t-22 -96v-381q0 -68 -38 -107.5t-132 -60.5q94 -23 132 -62.5t38 -107.5v-389q0 -74 22 -98.5t79 -24.5v-133q-57 0 -95.5 3.5t-71.5 14t-52.5 28.5t-33.5 48t-19 71t-5 99v358
q0 65 -41.5 93t-136.5 28v141z" />
    <glyph glyph-name="bar" unicode="|" horiz-adv-x="376" 
d="M115 -410v2048h147v-2048h-147z" />
    <glyph glyph-name="braceright" unicode="}" horiz-adv-x="581" 
d="M541 559q-95 0 -137 -28.5t-42 -92.5v-348q0 -58 -5 -99t-19 -71t-33 -48t-52 -28.5t-71.5 -14t-95.5 -3.5v133q56 0 78 24.5t22 96.5v381q0 68 38 107.5t132 60.5q-94 23 -132 62.5t-38 107.5v389q0 74 -22 98.5t-78 24.5v133q57 0 95.5 -3.5t71.5 -14t52 -28.5t33 -48
t19 -71t5 -99v-359q0 -64 42 -92.5t137 -28.5v-141z" />
    <glyph glyph-name="asciitilde" unicode="~" horiz-adv-x="1093" 
d="M137 477q12 111 81 183.5t159 72.5q52 0 102.5 -23t84 -50.5t74 -50.5t73.5 -23q45 0 74.5 37.5t33.5 103.5l137 -33q-6 -118 -65.5 -184t-149.5 -66q-50 0 -99.5 23t-82 50t-73.5 50t-78 23q-50 0 -86.5 -38.5t-49.5 -107.5z" />
    <glyph glyph-name="uni00A0" unicode="&#xa0;" horiz-adv-x="520" 
 />
    <glyph glyph-name="exclamdown" unicode="&#xa1;" horiz-adv-x="471" 
d="M281 688l34 -424v-665h-159v665l34 424h91zM147 821v211h177v-211h-177z" />
    <glyph glyph-name="cent" unicode="&#xa2;" horiz-adv-x="1056" 
d="M494 0v195q-191 24 -315 165.5t-124 360.5q0 223 122.5 364t316.5 162v187h145v-189q139 -21 235.5 -109t129.5 -216l-173 -43q-27 110 -99.5 171.5t-180.5 61.5q-136 0 -223.5 -106.5t-87.5 -278.5q0 -185 94 -289t235 -104q103 0 175.5 63.5t105.5 171.5l164 -41
q-39 -131 -135.5 -220.5t-239.5 -108.5v-197h-145z" />
    <glyph glyph-name="sterling" unicode="&#xa3;" horiz-adv-x="1282" 
d="M117 147q108 0 190 25t129.5 68.5t70.5 96.5t23 114q0 75 -32 141h-316v100h244q-21 22 -62 61.5t-66 67t-53.5 67t-42.5 85.5t-14 100q0 166 125 270.5t328 104.5q196 0 326 -99.5t176 -267.5l-178 -43q-36 120 -121 187t-205 67q-118 0 -191 -57t-73 -158
q0 -59 28.5 -114t64 -91t88.5 -88.5t83 -91.5h303l-20 -100h-226q23 -61 23 -125q0 -229 -242 -320h705l-27 -147h-1038v147z" />
    <glyph glyph-name="currency" unicode="&#xa4;" horiz-adv-x="1095" 
d="M547 264q-125 0 -228 64l-149 -150l-102 103l145 145q-80 108 -80 240q0 130 74 229l-139 139l100 103l141 -142q104 74 238 74q128 0 237 -72l144 142l100 -101l-143 -141q73 -103 73 -231q0 -138 -79 -240l149 -147l-104 -101l-150 150q-103 -64 -227 -64zM305 666
q0 -121 67.5 -197t174.5 -76t173 75.5t66 197.5q0 121 -66 195.5t-173 74.5q-108 0 -175 -74.5t-67 -195.5z" />
    <glyph glyph-name="yen" unicode="&#xa5;" horiz-adv-x="1202" 
d="M211 700h274l-458 734h190l387 -623l389 623h183l-459 -734h303l-21 -100h-307v-104h328l-21 -103h-307v-393h-182v393h-320l21 103h299v104h-320z" />
    <glyph glyph-name="brokenbar" unicode="&#xa6;" horiz-adv-x="376" 
d="M115 764v872h147v-872h-147zM115 -410v875h147v-875h-147z" />
    <glyph glyph-name="section" unicode="&#xa7;" horiz-adv-x="964" 
d="M510 -211q-181 0 -304 87.5t-159 219.5l166 41q69 -211 301 -211q110 0 170.5 57.5t60.5 135.5q0 69 -48.5 114t-141.5 72l-166 43q-145 37 -221 101.5t-76 179.5q0 152 162 245q-162 84 -162 256q0 132 107.5 225t273.5 93q168 0 276 -76t148 -203l-172 -41
q-29 85 -95 135t-163 50q-93 0 -154 -50t-61 -124q0 -71 47 -117t125 -68l190 -49q291 -77 291 -287q0 -149 -145 -251q145 -85 145 -242q0 -66 -25.5 -125.5t-73.5 -107t-124.5 -75.5t-171.5 -28zM252 653q0 -129 180 -180l182 -49l15 -4q53 23 84.5 72.5t31.5 105.5
q0 69 -48.5 113.5t-141.5 70.5l-166 45q-58 -18 -97.5 -66t-39.5 -108z" />
    <glyph glyph-name="dieresis" unicode="&#xa8;" horiz-adv-x="577" 
d="M51 1176v206h146v-206h-146zM348 1176v206h146v-206h-146z" />
    <glyph glyph-name="copyright" unicode="&#xa9;" horiz-adv-x="1636" 
d="M817 -14q-152 0 -288 57.5t-233.5 155t-154.5 233.5t-57 287t57 286t154.5 232t233.5 154t288 57t288.5 -57t234 -154t155 -232.5t57.5 -285.5q0 -151 -57.5 -287t-155 -233.5t-234 -155t-288.5 -57.5zM219 719q0 -170 79.5 -311.5t216.5 -222.5t302 -81q166 0 303 81
t216 222.5t79 311.5q0 169 -79 309.5t-216.5 221.5t-302.5 81q-164 0 -301.5 -81t-217 -222t-79.5 -309zM416 711q0 197 119 316.5t290 119.5q133 0 228.5 -73t134.5 -197l-129 -39q-62 180 -234 180q-104 0 -175.5 -81.5t-71.5 -219.5q0 -143 72.5 -223t180.5 -80
q88 0 152 46.5t92 131.5l129 -41q-47 -124 -148 -196t-227 -72q-175 0 -294 116t-119 312z" />
    <glyph glyph-name="ordfeminine" unicode="&#xaa;" horiz-adv-x="829" 
d="M600 1180q0 69 -48.5 108t-125.5 39q-146 0 -203 -145l-131 39q30 100 124 163.5t224 63.5q142 0 223.5 -69.5t81.5 -196.5v-568h-145v185q-42 -93 -121.5 -145t-175.5 -52q-110 0 -177 55.5t-67 155.5q0 53 20 93.5t51.5 66.5t80.5 44.5t94.5 28t106.5 17.5
q109 14 148.5 37t39.5 80zM211 829q0 -59 39 -91.5t102 -32.5q101 0 174.5 86.5t73.5 240.5v15q-44 -44 -172 -64q-42 -7 -67.5 -12t-57.5 -16.5t-49.5 -26.5t-30 -40.5t-12.5 -58.5z" />
    <glyph glyph-name="guillemotleft" unicode="&#xab;" horiz-adv-x="948" 
d="M485 866v-170l-282 -186l282 -184v-168l-417 299v106zM436 457v106l418 303v-170l-283 -186l283 -184v-168z" />
    <glyph glyph-name="logicalnot" unicode="&#xac;" horiz-adv-x="1079" 
d="M117 637v141h794v-463h-149v322h-645z" />
    <glyph glyph-name="uni00AD" unicode="&#xad;" horiz-adv-x="831" 
d="M115 674h600v-139h-600v139z" />
    <glyph glyph-name="registered" unicode="&#xae;" horiz-adv-x="788" 
d="M393 807q-132 0 -225.5 93.5t-93.5 225.5q0 133 93.5 226.5t225.5 93.5q133 0 226.5 -93t93.5 -227q0 -132 -93.5 -225.5t-226.5 -93.5zM147 1126q0 -107 71 -180.5t175 -73.5q106 0 177 73.5t71 180.5q0 109 -71 181.5t-177 72.5q-105 0 -175.5 -73t-70.5 -181zM276 952
v351h127q66 0 101 -30.5t35 -86.5q0 -82 -70 -107l70 -127h-70l-61 119h-66v-119h-66zM342 1120h68q30 0 47.5 17t17.5 47q0 28 -17.5 45.5t-47.5 17.5h-68v-127z" />
    <glyph glyph-name="macron" unicode="&#xaf;" horiz-adv-x="602" 
d="M43 1311h496v-117h-496v117z" />
    <glyph glyph-name="degree" unicode="&#xb0;" horiz-adv-x="602" 
d="M301 969q-112 0 -181 66t-69 173t69 173.5t181 66.5t181 -66.5t69 -173.5t-69 -173t-181 -66zM172 1208q0 -64 36 -103.5t93 -39.5q58 0 93.5 39t35.5 104q0 64 -35.5 104t-93.5 40q-57 0 -93 -40.5t-36 -103.5z" />
    <glyph glyph-name="plusminus" unicode="&#xb1;" horiz-adv-x="1083" 
d="M467 266v340h-373v139h373v338h151v-338h371v-139h-371v-340h-151zM94 0v141h891v-141h-891z" />
    <glyph glyph-name="uni00B2" unicode="&#xb2;" horiz-adv-x="671" 
d="M53 797q2 79 27 141.5t62.5 102t82.5 71.5t89 57t81 50.5t59.5 61t22.5 79.5q0 56 -39 88.5t-106 32.5q-58 0 -101.5 -38t-64.5 -102l-121 31q30 105 111.5 162t191.5 57q117 0 191.5 -63.5t74.5 -161.5q0 -53 -20 -95.5t-52.5 -71.5t-73 -55t-83.5 -52t-81 -55t-69 -72
t-45 -95h443l-15 -114h-565v41z" />
    <glyph glyph-name="uni00B3" unicode="&#xb3;" horiz-adv-x="710" 
d="M358 748q-126 0 -214 63.5t-113 165.5l121 29q22 -72 72 -111t124 -39q71 0 113.5 37.5t42.5 101.5q0 67 -44 103.5t-124 36.5h-94l18 100h74q69 0 109 35t40 98q0 52 -39.5 84.5t-105.5 32.5q-67 0 -110 -36.5t-54 -94.5l-115 28q17 96 92.5 152.5t192.5 56.5t197 -57.5
t80 -155.5q0 -70 -41.5 -122t-122.5 -72q83 -18 133.5 -71t50.5 -130q0 -106 -80 -170.5t-203 -64.5z" />
    <glyph glyph-name="acute" unicode="&#xb4;" horiz-adv-x="350" 
d="M41 1151l113 244h184l-145 -244h-152z" />
    <glyph glyph-name="uni00B5" unicode="&#xb5;" horiz-adv-x="1112" 
d="M983 1032v-1032h-176v272q-46 -129 -127 -207.5t-191 -78.5q-120 0 -184 94v-490h-174v1442h174v-672q0 -123 53 -181t142 -58q93 0 164.5 65t107 164t35.5 211v471h176z" />
    <glyph glyph-name="paragraph" unicode="&#xb6;" horiz-adv-x="1091" 
d="M526 1434h148v-1633h-148v787q-214 0 -348.5 124t-134.5 306q0 180 134 298t349 118zM797 -199v1633h147v-1633h-147z" />
    <glyph glyph-name="periodcentered" unicode="&#xb7;" horiz-adv-x="376" 
d="M100 459v211h176v-211h-176z" />
    <glyph glyph-name="cedilla" unicode="&#xb8;" horiz-adv-x="460" 
d="M233 -410q-119 0 -208 99l65 69q69 -69 141 -69q36 0 59 19.5t23 53.5q0 42 -49 67.5t-135 25.5v55l90 117l86 -17l-55 -102q75 -7 127.5 -48t52.5 -114q0 -68 -58 -112t-139 -44z" />
    <glyph glyph-name="uni00B9" unicode="&#xb9;" horiz-adv-x="477" 
d="M8 1376q39 0 66.5 4t55.5 16.5t45 35t27.5 60.5t10.5 91h137v-827h-137v616q-24 -65 -73 -94t-132 -29v127z" />
    <glyph glyph-name="ordmasculine" unicode="&#xba;" horiz-adv-x="864" 
d="M432 602q-166 0 -265 111t-99 311q0 201 99 312.5t265 111.5t265.5 -112t99.5 -312t-99.5 -311t-265.5 -111zM221 1024q0 -142 57.5 -220.5t153.5 -78.5t153.5 78.5t57.5 220.5q0 143 -57.5 222t-153.5 79t-153.5 -79t-57.5 -222z" />
    <glyph glyph-name="guillemotright" unicode="&#xbb;" horiz-adv-x="948" 
d="M463 158v170l282 186l-282 184v168l418 -299v-106zM94 158v170l283 186l-283 184v168l418 -299v-106z" />
    <glyph glyph-name="onequarter" unicode="&#xbc;" horiz-adv-x="1538" 
d="M8 1227q39 0 66.5 4t55.5 16.5t45 35t27.5 60.5t10.5 91h137v-828h-137v617q-24 -65 -73 -94t-132 -29v127zM172 0l948 1434h148l-949 -1434h-147zM795 207v102l381 518h157v-518h131l-14 -102h-117v-207h-135v207h-403zM922 309h276v381z" />
    <glyph glyph-name="onehalf" unicode="&#xbd;" horiz-adv-x="1509" 
d="M8 1227q39 0 66.5 4t55.5 16.5t45 35t27.5 60.5t10.5 91h137v-828h-137v617q-24 -65 -73 -94t-132 -29v127zM109 0l948 1434h147l-948 -1434h-147zM881 616q30 105 111.5 162.5t191.5 57.5q117 0 191.5 -63.5t74.5 -162.5q0 -53 -20 -95.5t-52.5 -71.5t-73 -54.5
t-83.5 -51.5t-81 -55t-69 -72t-45 -95h442l-14 -115h-565v41q2 79 27 141.5t62.5 102t82.5 71.5t89 57t81 50.5t59.5 61t22.5 79.5q0 56 -39.5 88.5t-106.5 32.5q-58 0 -101.5 -38t-64.5 -101z" />
    <glyph glyph-name="threequarters" unicode="&#xbe;" horiz-adv-x="1736" 
d="M358 598q-126 0 -214 63.5t-113 165.5l121 29q22 -71 72 -110t124 -39q71 0 113.5 37.5t42.5 101.5q0 67 -44 103t-124 36h-94l18 100h74q69 0 109 35.5t40 98.5q0 52 -39 84t-106 32t-110 -36.5t-54 -94.5l-115 29q17 96 92.5 152.5t192.5 56.5t197 -57.5t80 -155.5
q0 -70 -42 -122.5t-122 -72.5q84 -18 134 -71t50 -129q0 -106 -80 -171t-203 -65zM371 0l948 1434h147l-948 -1434h-147zM993 207v102l381 518h158v-518h131l-14 -102h-117v-207h-135v207h-404zM1120 309h277v381z" />
    <glyph glyph-name="questiondown" unicode="&#xbf;" horiz-adv-x="991" 
d="M621 627q0 -96 -22.5 -169t-58 -117t-79 -78t-87 -62t-79 -58t-58 -76.5t-22.5 -107.5q0 -102 67.5 -160.5t188.5 -58.5q262 0 317 283l170 -37q-37 -188 -164 -295t-327 -107q-199 0 -315.5 100t-116.5 257q0 79 23.5 139.5t61.5 99.5t84 72l92 66t84 71.5t61.5 99
t23.5 138.5v35h156v-35zM453 821v211h176v-211h-176z" />
    <glyph glyph-name="Agrave" unicode="&#xc0;" horiz-adv-x="1325" 
d="M776 1434l533 -1434h-183l-139 381h-653l-141 -381h-177l537 1434h223zM387 528h547l-272 744zM467 1798h182l115 -244h-152z" />
    <glyph glyph-name="Aacute" unicode="&#xc1;" horiz-adv-x="1325" 
d="M776 1434l533 -1434h-183l-139 381h-653l-141 -381h-177l537 1434h223zM387 528h547l-272 744zM569 1554l113 244h184l-145 -244h-152z" />
    <glyph glyph-name="Acircumflex" unicode="&#xc2;" horiz-adv-x="1325" 
d="M776 1434l533 -1434h-183l-139 381h-653l-141 -381h-177l537 1434h223zM383 1554l205 244h153l205 -244h-166l-114 160l-119 -160h-164zM387 528h547l-272 744z" />
    <glyph glyph-name="Atilde" unicode="&#xc3;" horiz-adv-x="1325" 
d="M776 1434l533 -1434h-183l-139 381h-653l-141 -381h-177l537 1434h223zM373 1591q10 91 52 139t110 48q40 0 76 -16t58.5 -34.5t52.5 -34.5t60 -16q62 0 68 97l111 -33q-5 -88 -44 -136.5t-110 -48.5q-39 0 -76 16t-60.5 35.5t-52.5 35.5t-55 16q-60 0 -80 -100zM387 528
h547l-272 744z" />
    <glyph glyph-name="Adieresis" unicode="&#xc4;" horiz-adv-x="1325" 
d="M776 1434l533 -1434h-183l-139 381h-653l-141 -381h-177l537 1434h223zM387 528h547l-272 744zM438 1579v207h146v-207h-146zM735 1579v207h146v-207h-146z" />
    <glyph glyph-name="Aring" unicode="&#xc5;" horiz-adv-x="1325" 
d="M776 1434l533 -1434h-183l-139 381h-653l-141 -381h-177l537 1434h223zM387 528h547l-272 744zM487 1686q0 76 48 119.5t133 43.5q83 0 129.5 -43t46.5 -120t-46.5 -120.5t-129.5 -43.5q-85 0 -133 43.5t-48 120.5zM590 1686q0 -37 20 -58.5t58 -21.5q35 0 54 21.5
t19 58.5q0 79 -73 79q-78 0 -78 -79z" />
    <glyph glyph-name="AE" unicode="&#xc6;" horiz-adv-x="1841" 
d="M16 0l594 1434h1180v-148h-686v-469h577v-147h-577v-523h686v-147h-868v442h-549l-183 -442h-174zM434 590h488v696h-201z" />
    <glyph glyph-name="Ccedilla" unicode="&#xc7;" horiz-adv-x="1406" 
d="M754 -410q-120 0 -209 99l65 69q69 -69 142 -69q36 0 59 19.5t23 53.5q0 42 -49.5 67.5t-135.5 25.5v55l60 78q-294 17 -465.5 215t-171.5 514q0 215 85 381t239.5 258t353.5 92q229 0 388 -127.5t214 -345.5l-176 -43q-42 166 -154.5 263t-273.5 97q-220 0 -354 -157
t-134 -412q0 -262 135.5 -422t366.5 -160q159 0 271.5 93.5t150.5 259.5l174 -45q-52 -195 -196 -320.5t-349 -140.5l-43 -80q75 -7 127.5 -48t52.5 -114q0 -68 -57.5 -112t-138.5 -44z" />
    <glyph glyph-name="Egrave" unicode="&#xc8;" horiz-adv-x="1067" 
d="M147 0v1434h869v-148h-686v-469h577v-147h-577v-523h686v-147h-869zM406 1796h182l114 -244h-151z" />
    <glyph glyph-name="Eacute" unicode="&#xc9;" horiz-adv-x="1067" 
d="M147 0v1434h869v-148h-686v-469h577v-147h-577v-523h686v-147h-869zM508 1552l113 244h184l-146 -244h-151z" />
    <glyph glyph-name="Ecircumflex" unicode="&#xca;" horiz-adv-x="1067" 
d="M147 0v1434h869v-148h-686v-469h577v-147h-577v-523h686v-147h-869zM322 1552l204 244h154l205 -244h-166l-115 160l-119 -160h-163z" />
    <glyph glyph-name="Edieresis" unicode="&#xcb;" horiz-adv-x="1067" 
d="M147 0v1434h869v-148h-686v-469h577v-147h-577v-523h686v-147h-869zM377 1577v207h145v-207h-145zM674 1577v207h145v-207h-145z" />
    <glyph glyph-name="Igrave" unicode="&#xcc;" horiz-adv-x="477" 
d="M147 0v1434h183v-1434h-183zM37 1796h182l115 -244h-152z" />
    <glyph glyph-name="Iacute" unicode="&#xcd;" horiz-adv-x="477" 
d="M147 0v1434h183v-1434h-183zM139 1552l113 244h184l-145 -244h-152z" />
    <glyph glyph-name="Icircumflex" unicode="&#xce;" horiz-adv-x="477" 
d="M147 0v1434h183v-1434h-183zM-45 1552l205 244h153l205 -244h-166l-114 160l-119 -160h-164z" />
    <glyph glyph-name="Idieresis" unicode="&#xcf;" horiz-adv-x="477" 
d="M147 0v1434h183v-1434h-183zM8 1577v207h146v-207h-146zM305 1577v207h146v-207h-146z" />
    <glyph glyph-name="Eth" unicode="&#xd0;" horiz-adv-x="1431" 
d="M18 653v127h172v654h443q338 0 535.5 -193.5t197.5 -523.5t-197.5 -523.5t-535.5 -193.5h-443v653h-172zM373 147h260q251 0 398 155.5t147 414.5q0 260 -147 414.5t-398 154.5h-260v-506h239v-127h-239v-506z" />
    <glyph glyph-name="Ntilde" unicode="&#xd1;" horiz-adv-x="1429" 
d="M147 0v1434h207l754 -1153v1153h174v-1434h-182l-778 1190v-1190h-175zM453 1589q10 91 51.5 139t109.5 48q40 0 76 -16t59 -34.5t53 -34.5t60 -16q62 0 68 97l110 -33q-5 -88 -43.5 -136.5t-109.5 -48.5q-39 0 -76 16t-60.5 35.5t-52.5 35.5t-55 16q-60 0 -80 -101z" />
    <glyph glyph-name="Ograve" unicode="&#xd2;" horiz-adv-x="1476" 
d="M739 -14q-304 0 -485.5 199t-181.5 532t181.5 532t485.5 199q303 0 484.5 -199t181.5 -532t-181.5 -532t-484.5 -199zM260 717q0 -260 131.5 -418t347.5 -158t347 157.5t131 418.5t-131 418t-347 157t-347.5 -157.5t-131.5 -417.5zM539 1796h182l115 -244h-152z" />
    <glyph glyph-name="Oacute" unicode="&#xd3;" horiz-adv-x="1476" 
d="M739 -14q-304 0 -485.5 199t-181.5 532t181.5 532t485.5 199q303 0 484.5 -199t181.5 -532t-181.5 -532t-484.5 -199zM260 717q0 -260 131.5 -418t347.5 -158t347 157.5t131 418.5t-131 418t-347 157t-347.5 -157.5t-131.5 -417.5zM641 1552l113 244h184l-145 -244h-152z
" />
    <glyph glyph-name="Ocircumflex" unicode="&#xd4;" horiz-adv-x="1476" 
d="M739 -14q-304 0 -485.5 199t-181.5 532t181.5 532t485.5 199q303 0 484.5 -199t181.5 -532t-181.5 -532t-484.5 -199zM260 717q0 -260 131.5 -418t347.5 -158t347 157.5t131 418.5t-131 418t-347 157t-347.5 -157.5t-131.5 -417.5zM457 1552l205 244h153l205 -244h-166
l-115 160l-118 -160h-164z" />
    <glyph glyph-name="Otilde" unicode="&#xd5;" horiz-adv-x="1476" 
d="M739 -14q-304 0 -485.5 199t-181.5 532t181.5 532t485.5 199q303 0 484.5 -199t181.5 -532t-181.5 -532t-484.5 -199zM260 717q0 -260 131.5 -418t347.5 -158t347 157.5t131 418.5t-131 418t-347 157t-347.5 -157.5t-131.5 -417.5zM444 1589q10 91 52 139t110 48
q40 0 76 -16t59 -34.5t53 -34.5t60 -16q62 0 68 97l110 -33q-5 -88 -43.5 -136.5t-109.5 -48.5q-39 0 -76 16t-60.5 35.5t-52.5 35.5t-55 16q-60 0 -80 -101z" />
    <glyph glyph-name="Odieresis" unicode="&#xd6;" horiz-adv-x="1476" 
d="M739 -14q-304 0 -485.5 199t-181.5 532t181.5 532t485.5 199q303 0 484.5 -199t181.5 -532t-181.5 -532t-484.5 -199zM260 717q0 -260 131.5 -418t347.5 -158t347 157.5t131 418.5t-131 418t-347 157t-347.5 -157.5t-131.5 -417.5zM510 1577v207h145v-207h-145zM807 1577
v207h145v-207h-145z" />
    <glyph glyph-name="multiply" unicode="&#xd7;" horiz-adv-x="964" 
d="M111 367l268 268l-262 260l98 100l262 -262l266 266l109 -108l-266 -266l262 -263l-98 -98l-263 262l-268 -268z" />
    <glyph glyph-name="Oslash" unicode="&#xd8;" horiz-adv-x="1468" 
d="M135 27l-86 84l148 147q-125 189 -125 459q0 333 181.5 532t485.5 199q288 0 465 -180l129 129l86 -84l-137 -137q123 -186 123 -459q0 -333 -181.5 -532t-484.5 -199q-289 0 -467 178zM260 717q0 -187 70 -324l749 750q-130 149 -340 149q-216 0 -347.5 -157.5
t-131.5 -417.5zM399 291q131 -150 340 -150q216 0 347 157.5t131 418.5q0 186 -70 323z" />
    <glyph glyph-name="Ugrave" unicode="&#xd9;" horiz-adv-x="1429" 
d="M717 -16q-274 0 -426 147.5t-152 411.5v891h183v-889q0 -197 103 -301.5t292 -104.5q190 0 293.5 104.5t103.5 301.5v889h178v-891q0 -264 -151.5 -411.5t-423.5 -147.5zM526 1796h183l114 -244h-151z" />
    <glyph glyph-name="Uacute" unicode="&#xda;" horiz-adv-x="1429" 
d="M717 -16q-274 0 -426 147.5t-152 411.5v891h183v-889q0 -197 103 -301.5t292 -104.5q190 0 293.5 104.5t103.5 301.5v889h178v-891q0 -264 -151.5 -411.5t-423.5 -147.5zM629 1552l112 244h185l-146 -244h-151z" />
    <glyph glyph-name="Ucircumflex" unicode="&#xdb;" horiz-adv-x="1429" 
d="M717 -16q-274 0 -426 147.5t-152 411.5v891h183v-889q0 -197 103 -301.5t292 -104.5q190 0 293.5 104.5t103.5 301.5v889h178v-891q0 -264 -151.5 -411.5t-423.5 -147.5zM442 1552l205 244h154l205 -244h-166l-115 160l-119 -160h-164z" />
    <glyph glyph-name="Udieresis" unicode="&#xdc;" horiz-adv-x="1429" 
d="M717 -16q-274 0 -426 147.5t-152 411.5v891h183v-889q0 -197 103 -301.5t292 -104.5q190 0 293.5 104.5t103.5 301.5v889h178v-891q0 -264 -151.5 -411.5t-423.5 -147.5zM498 1577v207h145v-207h-145zM795 1577v207h145v-207h-145z" />
    <glyph glyph-name="Yacute" unicode="&#xdd;" horiz-adv-x="1161" 
d="M489 659l-483 775h191l387 -623l389 623h182l-483 -775v-659h-183v659zM487 1552l113 244h184l-145 -244h-152z" />
    <glyph glyph-name="Thorn" unicode="&#xde;" horiz-adv-x="1163" 
d="M147 0v1434h183v-265h260q244 0 386 -121.5t142 -328.5q0 -211 -138 -333t-376 -122h-274v-264h-183zM330 410h252q161 0 255.5 82.5t94.5 222.5q0 141 -94.5 224t-255.5 83h-252v-612z" />
    <glyph glyph-name="germandbls" unicode="&#xdf;" horiz-adv-x="1150" 
d="M801 -14q-146 0 -240 71.5t-121 194.5l140 35q61 -172 211 -172q65 0 105 41t40 114q0 59 -33.5 97.5t-111.5 78.5l-158 84q-164 89 -164 228q0 79 50.5 138.5t135.5 111.5q75 47 113.5 85.5t38.5 82.5q0 62 -60 96.5t-172 34.5q-136 0 -206 -78t-70 -225v-1004h-168
v1010q0 207 116 322.5t341 115.5q185 0 286 -74t101 -186q0 -33 -12 -64t-26.5 -52t-47 -49t-52.5 -42t-63 -43q-70 -46 -103.5 -82.5t-33.5 -77.5q0 -72 100 -129l166 -90q94 -51 143.5 -118t49.5 -165q0 -129 -87.5 -209.5t-207.5 -80.5z" />
    <glyph glyph-name="agrave" unicode="&#xe0;" horiz-adv-x="1036" 
d="M748 686q0 103 -58 161t-170 58q-206 0 -274 -188l-160 41q42 128 158 208.5t286 80.5q189 0 291.5 -94t102.5 -269v-684h-176v195q-58 -98 -159.5 -153.5t-219.5 -55.5q-138 0 -229 72t-91 198q0 78 30 135.5t88 93t132 55t172 27.5q137 12 202 32t75 67v20zM236 279
q0 -82 58 -123t144 -41q117 0 207 79t103 218v125q-63 -72 -230 -88q-73 -6 -119 -14.5t-86 -26.5t-58.5 -49.5t-18.5 -79.5zM340 1395h182l115 -244h-152z" />
    <glyph glyph-name="aacute" unicode="&#xe1;" horiz-adv-x="1036" 
d="M748 686q0 103 -58 161t-170 58q-206 0 -274 -188l-160 41q42 128 158 208.5t286 80.5q189 0 291.5 -94t102.5 -269v-684h-176v195q-58 -98 -159.5 -153.5t-219.5 -55.5q-138 0 -229 72t-91 198q0 78 30 135.5t88 93t132 55t172 27.5q137 12 202 32t75 67v20zM236 279
q0 -82 58 -123t144 -41q117 0 207 79t103 218v125q-63 -72 -230 -88q-73 -6 -119 -14.5t-86 -26.5t-58.5 -49.5t-18.5 -79.5zM442 1151l113 244h184l-145 -244h-152z" />
    <glyph glyph-name="acircumflex" unicode="&#xe2;" horiz-adv-x="1036" 
d="M748 686q0 103 -58 161t-170 58q-206 0 -274 -188l-160 41q42 128 158 208.5t286 80.5q189 0 291.5 -94t102.5 -269v-684h-176v195q-58 -98 -159.5 -153.5t-219.5 -55.5q-138 0 -229 72t-91 198q0 78 30 135.5t88 93t132 55t172 27.5q137 12 202 32t75 67v20zM236 279
q0 -82 58 -123t144 -41q117 0 207 79t103 218v125q-63 -72 -230 -88q-73 -6 -119 -14.5t-86 -26.5t-58.5 -49.5t-18.5 -79.5zM256 1151l205 244h153l205 -244h-166l-114 160l-119 -160h-164z" />
    <glyph glyph-name="atilde" unicode="&#xe3;" horiz-adv-x="1036" 
d="M748 686q0 103 -58 161t-170 58q-206 0 -274 -188l-160 41q42 128 158 208.5t286 80.5q189 0 291.5 -94t102.5 -269v-684h-176v195q-58 -98 -159.5 -153.5t-219.5 -55.5q-138 0 -229 72t-91 198q0 78 30 135.5t88 93t132 55t172 27.5q137 12 202 32t75 67v20zM236 279
q0 -82 58 -123t144 -41q117 0 207 79t103 218v125q-63 -72 -230 -88q-73 -6 -119 -14.5t-86 -26.5t-58.5 -49.5t-18.5 -79.5zM246 1188q10 90 52 138t110 48q40 0 76 -15.5t58.5 -34.5t52.5 -34.5t60 -15.5q62 0 68 96l111 -33q-5 -88 -44 -136t-110 -48q-39 0 -76 16
t-60.5 35t-52.5 35t-55 16q-60 0 -80 -100z" />
    <glyph glyph-name="adieresis" unicode="&#xe4;" horiz-adv-x="1036" 
d="M748 686q0 103 -58 161t-170 58q-206 0 -274 -188l-160 41q42 128 158 208.5t286 80.5q189 0 291.5 -94t102.5 -269v-684h-176v195q-58 -98 -159.5 -153.5t-219.5 -55.5q-138 0 -229 72t-91 198q0 78 30 135.5t88 93t132 55t172 27.5q137 12 202 32t75 67v20zM236 279
q0 -82 58 -123t144 -41q117 0 207 79t103 218v125q-63 -72 -230 -88q-73 -6 -119 -14.5t-86 -26.5t-58.5 -49.5t-18.5 -79.5zM311 1176v206h146v-206h-146zM608 1176v206h146v-206h-146z" />
    <glyph glyph-name="aring" unicode="&#xe5;" horiz-adv-x="1036" 
d="M748 686q0 103 -58 161t-170 58q-206 0 -274 -188l-160 41q42 128 158 208.5t286 80.5q189 0 291.5 -94t102.5 -269v-684h-176v195q-58 -98 -159.5 -153.5t-219.5 -55.5q-138 0 -229 72t-91 198q0 78 30 135.5t88 93t132 55t172 27.5q137 12 202 32t75 67v20zM236 279
q0 -82 58 -123t144 -41q117 0 207 79t103 218v125q-63 -72 -230 -88q-73 -6 -119 -14.5t-86 -26.5t-58.5 -49.5t-18.5 -79.5zM360 1282q0 77 48 120.5t133 43.5q83 0 129.5 -43.5t46.5 -120.5t-46.5 -120.5t-129.5 -43.5q-85 0 -133 43.5t-48 120.5zM463 1282
q0 -37 20 -58.5t58 -21.5q35 0 54 21.5t19 58.5q0 38 -19 59t-54 21q-78 0 -78 -80z" />
    <glyph glyph-name="ae" unicode="&#xe6;" horiz-adv-x="1769" 
d="M373 -14q-140 0 -232 76t-92 204q0 144 110 214.5t312 86.5q75 7 119 13.5t84.5 19.5t58 34t17.5 52q0 109 -63 164t-171 55q-103 0 -175 -49t-105 -139l-160 41q41 127 159.5 208t284.5 81q134 0 217.5 -60.5t108.5 -169.5q64 106 173.5 166.5t233.5 60.5
q207 0 330 -132t121 -337q0 -39 -6 -77h-768q-3 -172 93.5 -272.5t236.5 -100.5q202 0 286 217l160 -41q-43 -134 -160 -223.5t-293 -89.5q-95 0 -174 28t-131 75.5t-84.5 103t-46.5 116.5q-39 -149 -157 -237t-287 -88zM236 279q0 -82 58 -123t144 -41q81 0 151 37.5
t115.5 116.5t45.5 186v86q-62 -70 -232 -86q-56 -5 -96.5 -11.5t-77.5 -19t-59.5 -31t-35.5 -47t-13 -67.5zM940 629h586q-3 117 -80.5 197.5t-202.5 80.5t-211 -80.5t-92 -197.5z" />
    <glyph glyph-name="ccedilla" unicode="&#xe7;" horiz-adv-x="1056" 
d="M545 -410q-120 0 -209 99l65 69q69 -69 142 -69q36 0 59 19.5t23 53.5q0 42 -49.5 67.5t-135.5 25.5v55l62 80q-194 21 -320.5 162.5t-126.5 363.5q0 121 38.5 221.5t105.5 168t159 104.5t199 37q170 0 289.5 -92t157.5 -240l-173 -43q-27 110 -99.5 171.5t-180.5 61.5
q-136 0 -223.5 -106.5t-87.5 -278.5q0 -185 94 -289t235 -104q103 0 175.5 63.5t105.5 171.5l164 -40q-40 -139 -147 -231.5t-263 -102.5l-43 -80q75 -7 127.5 -48t52.5 -114q0 -68 -57.5 -112t-138.5 -44z" />
    <glyph glyph-name="egrave" unicode="&#xe8;" horiz-adv-x="1073" 
d="M557 -14q-224 0 -363 144t-139 386q0 147 59.5 267t173.5 192t263 72q206 0 332.5 -134.5t126.5 -337.5q0 -39 -6 -77h-768q6 -179 97 -277t230 -98q203 0 287 217l160 -39q-42 -135 -158 -225t-295 -90zM246 629h585q-11 122 -87 201t-197 79q-118 0 -197.5 -76
t-103.5 -204zM371 1395h182l115 -244h-152z" />
    <glyph glyph-name="eacute" unicode="&#xe9;" horiz-adv-x="1073" 
d="M557 -14q-224 0 -363 144t-139 386q0 147 59.5 267t173.5 192t263 72q206 0 332.5 -134.5t126.5 -337.5q0 -39 -6 -77h-768q6 -179 97 -277t230 -98q203 0 287 217l160 -39q-42 -135 -158 -225t-295 -90zM246 629h585q-11 122 -87 201t-197 79q-118 0 -197.5 -76
t-103.5 -204zM473 1151l113 244h184l-145 -244h-152z" />
    <glyph glyph-name="ecircumflex" unicode="&#xea;" horiz-adv-x="1073" 
d="M557 -14q-224 0 -363 144t-139 386q0 147 59.5 267t173.5 192t263 72q206 0 332.5 -134.5t126.5 -337.5q0 -39 -6 -77h-768q6 -179 97 -277t230 -98q203 0 287 217l160 -39q-42 -135 -158 -225t-295 -90zM246 629h585q-11 122 -87 201t-197 79q-118 0 -197.5 -76
t-103.5 -204zM287 1151l205 244h153l205 -244h-166l-115 160l-118 -160h-164z" />
    <glyph glyph-name="edieresis" unicode="&#xeb;" horiz-adv-x="1073" 
d="M557 -14q-224 0 -363 144t-139 386q0 147 59.5 267t173.5 192t263 72q206 0 332.5 -134.5t126.5 -337.5q0 -39 -6 -77h-768q6 -179 97 -277t230 -98q203 0 287 217l160 -39q-42 -135 -158 -225t-295 -90zM246 629h585q-11 122 -87 201t-197 79q-118 0 -197.5 -76
t-103.5 -204zM342 1176v206h145v-206h-145zM639 1176v206h145v-206h-145z" />
    <glyph glyph-name="igrave" unicode="&#xec;" horiz-adv-x="436" 
d="M131 0v1032h174v-1032h-174zM18 1395h183l114 -244h-151z" />
    <glyph glyph-name="iacute" unicode="&#xed;" horiz-adv-x="436" 
d="M131 0v1032h174v-1032h-174zM121 1151l112 244h185l-146 -244h-151z" />
    <glyph glyph-name="icircumflex" unicode="&#xee;" horiz-adv-x="436" 
d="M131 0v1032h174v-1032h-174zM-63 1151l204 244h154l205 -244h-166l-115 160l-119 -160h-163z" />
    <glyph glyph-name="idieresis" unicode="&#xef;" horiz-adv-x="436" 
d="M131 0v1032h174v-1032h-174zM-10 1176v206h145v-206h-145zM287 1176v206h145v-206h-145z" />
    <glyph glyph-name="eth" unicode="&#xf0;" horiz-adv-x="1079" 
d="M516 -14q-200 0 -330.5 128t-130.5 345q0 209 117.5 334t302.5 125q138 0 241.5 -74t147.5 -203q-18 311 -151 492l-267 -93v95l201 69q-136 127 -336 127l60 117q257 0 424 -191l223 78v-96l-166 -57q145 -224 145 -576q0 -186 -52.5 -324t-162 -217t-266.5 -79z
M236 457q0 -149 81 -239.5t205 -90.5q138 0 215.5 88.5t77.5 241.5q0 145 -81 233t-210 88q-125 0 -206.5 -88.5t-81.5 -232.5z" />
    <glyph glyph-name="ntilde" unicode="&#xf1;" horiz-adv-x="1105" 
d="M131 0v1032h174v-231q64 111 164 178.5t225 67.5q140 0 212.5 -91.5t72.5 -269.5v-686h-174v664q0 129 -48 183t-141 54q-114 0 -198.5 -90.5t-112.5 -220.5v-590h-174zM309 1188q10 90 52 138t110 48q40 0 76 -15.5t59 -34.5t53 -34.5t60 -15.5q61 0 67 96l111 -33
q-5 -88 -44 -136t-110 -48q-39 0 -76 16t-60 35t-52 35t-55 16q-60 0 -80 -100z" />
    <glyph glyph-name="ograve" unicode="&#xf2;" horiz-adv-x="1114" 
d="M557 -12q-106 0 -198.5 37.5t-159.5 105.5t-105.5 167.5t-38.5 217.5q0 238 142.5 384.5t359.5 146.5t359.5 -146.5t142.5 -384.5q0 -118 -38.5 -217.5t-105.5 -167.5t-159.5 -105.5t-198.5 -37.5zM240 516q0 -184 87 -286.5t230 -102.5q144 0 232 102.5t88 286.5
t-88 286.5t-232 102.5q-143 0 -230 -102.5t-87 -286.5zM358 1395h183l114 -244h-151z" />
    <glyph glyph-name="oacute" unicode="&#xf3;" horiz-adv-x="1114" 
d="M557 -12q-106 0 -198.5 37.5t-159.5 105.5t-105.5 167.5t-38.5 217.5q0 238 142.5 384.5t359.5 146.5t359.5 -146.5t142.5 -384.5q0 -118 -38.5 -217.5t-105.5 -167.5t-159.5 -105.5t-198.5 -37.5zM240 516q0 -184 87 -286.5t230 -102.5q144 0 232 102.5t88 286.5
t-88 286.5t-232 102.5q-143 0 -230 -102.5t-87 -286.5zM461 1151l112 244h185l-146 -244h-151z" />
    <glyph glyph-name="ocircumflex" unicode="&#xf4;" horiz-adv-x="1114" 
d="M557 -12q-106 0 -198.5 37.5t-159.5 105.5t-105.5 167.5t-38.5 217.5q0 238 142.5 384.5t359.5 146.5t359.5 -146.5t142.5 -384.5q0 -118 -38.5 -217.5t-105.5 -167.5t-159.5 -105.5t-198.5 -37.5zM240 516q0 -184 87 -286.5t230 -102.5q144 0 232 102.5t88 286.5
t-88 286.5t-232 102.5q-143 0 -230 -102.5t-87 -286.5zM274 1151l205 244h154l205 -244h-166l-115 160l-119 -160h-164z" />
    <glyph glyph-name="otilde" unicode="&#xf5;" horiz-adv-x="1114" 
d="M557 -12q-106 0 -198.5 37.5t-159.5 105.5t-105.5 167.5t-38.5 217.5q0 238 142.5 384.5t359.5 146.5t359.5 -146.5t142.5 -384.5q0 -118 -38.5 -217.5t-105.5 -167.5t-159.5 -105.5t-198.5 -37.5zM240 516q0 -184 87 -286.5t230 -102.5q144 0 232 102.5t88 286.5
t-88 286.5t-232 102.5q-143 0 -230 -102.5t-87 -286.5zM264 1188q10 90 52 138t110 48q40 0 76 -15.5t59 -34.5t53 -34.5t60 -15.5q61 0 67 96l111 -33q-5 -88 -44 -136t-110 -48q-39 0 -76 16t-60 35t-52 35t-55 16q-60 0 -80 -100z" />
    <glyph glyph-name="odieresis" unicode="&#xf6;" horiz-adv-x="1114" 
d="M557 -12q-106 0 -198.5 37.5t-159.5 105.5t-105.5 167.5t-38.5 217.5q0 238 142.5 384.5t359.5 146.5t359.5 -146.5t142.5 -384.5q0 -118 -38.5 -217.5t-105.5 -167.5t-159.5 -105.5t-198.5 -37.5zM240 516q0 -184 87 -286.5t230 -102.5q144 0 232 102.5t88 286.5
t-88 286.5t-232 102.5q-143 0 -230 -102.5t-87 -286.5zM330 1176v206h145v-206h-145zM627 1176v206h145v-206h-145z" />
    <glyph glyph-name="divide" unicode="&#xf7;" horiz-adv-x="1003" 
d="M420 207v192h164v-192h-164zM94 563v142h815v-142h-815zM420 862v193h164v-193h-164z" />
    <glyph glyph-name="oslash" unicode="&#xf8;" horiz-adv-x="1114" 
d="M109 6l-66 68l111 110q-99 143 -99 332q0 238 142.5 384.5t359.5 146.5q202 0 334 -123l113 112l69 -69l-117 -115q103 -137 103 -336q0 -118 -38.5 -217.5t-105.5 -167.5t-159.5 -105.5t-198.5 -37.5q-204 0 -340 127zM240 516q0 -118 39 -207l501 504q-86 92 -223 92
q-143 0 -230 -102.5t-87 -286.5zM330 227q83 -100 227 -100t232 102.5t88 286.5q0 126 -41 213z" />
    <glyph glyph-name="ugrave" unicode="&#xf9;" horiz-adv-x="1105" 
d="M975 1032v-1032h-174v236q-63 -113 -164 -181.5t-227 -68.5q-140 0 -212.5 91t-72.5 269v686h174v-663q0 -129 47.5 -183.5t140.5 -54.5q117 0 203.5 94.5t110.5 227.5v579h174zM344 1395h182l115 -244h-152z" />
    <glyph glyph-name="uacute" unicode="&#xfa;" horiz-adv-x="1105" 
d="M975 1032v-1032h-174v236q-63 -113 -164 -181.5t-227 -68.5q-140 0 -212.5 91t-72.5 269v686h174v-663q0 -129 47.5 -183.5t140.5 -54.5q117 0 203.5 94.5t110.5 227.5v579h174zM446 1151l113 244h184l-145 -244h-152z" />
    <glyph glyph-name="ucircumflex" unicode="&#xfb;" horiz-adv-x="1105" 
d="M975 1032v-1032h-174v236q-63 -113 -164 -181.5t-227 -68.5q-140 0 -212.5 91t-72.5 269v686h174v-663q0 -129 47.5 -183.5t140.5 -54.5q117 0 203.5 94.5t110.5 227.5v579h174zM262 1151l205 244h154l204 -244h-166l-114 160l-119 -160h-164z" />
    <glyph glyph-name="udieresis" unicode="&#xfc;" horiz-adv-x="1105" 
d="M975 1032v-1032h-174v236q-63 -113 -164 -181.5t-227 -68.5q-140 0 -212.5 91t-72.5 269v686h174v-663q0 -129 47.5 -183.5t140.5 -54.5q117 0 203.5 94.5t110.5 227.5v579h174zM315 1176v206h146v-206h-146zM612 1176v206h146v-206h-146z" />
    <glyph glyph-name="yacute" unicode="&#xfd;" horiz-adv-x="980" 
d="M106 -410v148h95q44 0 74 9.5t51.5 32t34.5 47.5t30 69l35 92l-418 1044h168l330 -825l303 825h162l-416 -1130q-33 -89 -60.5 -141.5t-67.5 -94.5t-93.5 -59t-130.5 -17h-97zM416 1151l112 244h185l-146 -244h-151z" />
    <glyph glyph-name="thorn" unicode="&#xfe;" horiz-adv-x="1161" 
d="M131 -410v1844h176v-619q53 109 146 170.5t219 61.5q192 0 313 -145t121 -388q0 -239 -124.5 -383.5t-307.5 -144.5q-123 0 -217.5 61t-149.5 172v-629h-176zM307 520q0 -171 91 -283t223 -112q135 0 219 105.5t84 283.5q0 180 -82 286.5t-217 106.5q-140 0 -229 -108.5
t-89 -278.5z" />
    <glyph glyph-name="ydieresis" unicode="&#xff;" horiz-adv-x="980" 
d="M106 -410v148h95q44 0 74 9.5t51.5 32t34.5 47.5t30 69l35 92l-418 1044h168l330 -825l303 825h162l-416 -1130q-33 -89 -60.5 -141.5t-67.5 -94.5t-93.5 -59t-130.5 -17h-97zM285 1176v206h145v-206h-145zM582 1176v206h145v-206h-145z" />
    <glyph glyph-name="Amacron" unicode="&#x100;" horiz-adv-x="1325" 
d="M776 1434l533 -1434h-183l-139 381h-653l-141 -381h-177l537 1434h223zM387 528h547l-272 744zM420 1597v117h495v-117h-495z" />
    <glyph glyph-name="amacron" unicode="&#x101;" horiz-adv-x="1036" 
d="M748 686q0 103 -58 161t-170 58q-206 0 -274 -188l-160 41q42 128 158 208.5t286 80.5q189 0 291.5 -94t102.5 -269v-684h-176v195q-58 -98 -159.5 -153.5t-219.5 -55.5q-138 0 -229 72t-91 198q0 78 30 135.5t88 93t132 55t172 27.5q137 12 202 32t75 67v20zM236 279
q0 -82 58 -123t144 -41q117 0 207 79t103 218v125q-63 -72 -230 -88q-73 -6 -119 -14.5t-86 -26.5t-58.5 -49.5t-18.5 -79.5zM291 1194v117h495v-117h-495z" />
    <glyph glyph-name="Abreve" unicode="&#x102;" horiz-adv-x="1325" 
d="M776 1434l533 -1434h-183l-139 381h-653l-141 -381h-177l537 1434h223zM387 528h547l-272 744zM401 1806h127q0 -73 38 -116t100 -43q63 0 101 43t38 116h127q0 -123 -73.5 -197.5t-192.5 -74.5q-118 0 -191.5 75t-73.5 197z" />
    <glyph glyph-name="abreve" unicode="&#x103;" horiz-adv-x="1036" 
d="M748 686q0 103 -58 161t-170 58q-206 0 -274 -188l-160 41q42 128 158 208.5t286 80.5q189 0 291.5 -94t102.5 -269v-684h-176v195q-58 -98 -159.5 -153.5t-219.5 -55.5q-138 0 -229 72t-91 198q0 78 30 135.5t88 93t132 55t172 27.5q137 12 202 32t75 67v20zM236 279
q0 -82 58 -123t144 -41q117 0 207 79t103 218v125q-63 -72 -230 -88q-73 -6 -119 -14.5t-86 -26.5t-58.5 -49.5t-18.5 -79.5zM274 1403h127q0 -73 38 -116.5t100 -43.5q63 0 101 43.5t38 116.5h127q0 -123 -73.5 -198t-192.5 -75q-118 0 -191.5 75.5t-73.5 197.5z" />
    <glyph glyph-name="Aogonek" unicode="&#x104;" horiz-adv-x="1325" 
d="M776 1434l533 -1434h-68q-90 -90 -90 -166q0 -45 27.5 -72.5t70.5 -27.5q31 0 66 12l51 -106q-52 -41 -129 -41q-87 0 -145 51.5t-58 138.5q0 61 23 108t71 103h-2l-139 381h-653l-141 -381h-177l537 1434h223zM387 528h547l-272 744z" />
    <glyph glyph-name="aogonek" unicode="&#x105;" horiz-adv-x="1036" 
d="M748 686q0 103 -58 161t-170 58q-206 0 -274 -188l-160 41q42 128 158 208.5t286 80.5q189 0 291.5 -94t102.5 -269v-684h-64q-90 -90 -90 -166q0 -45 27.5 -72.5t70.5 -27.5q32 0 66 12l51 -106q-52 -41 -129 -41q-87 0 -145 51.5t-58 138.5q0 60 23 107.5t72 103.5v195
q-58 -98 -159.5 -153.5t-219.5 -55.5q-138 0 -229 72t-91 198q0 78 30 135.5t88 93t132 55t172 27.5q137 12 202 32t75 67v20zM236 279q0 -82 58 -123t144 -41q117 0 207 79t103 218v125q-63 -72 -230 -88q-73 -6 -119 -14.5t-86 -26.5t-58.5 -49.5t-18.5 -79.5z" />
    <glyph glyph-name="Cacute" unicode="&#x106;" horiz-adv-x="1406" 
d="M762 -14q-210 0 -367 91.5t-240 257t-83 382.5q0 215 85 381t239.5 258t353.5 92q229 0 388 -127.5t214 -345.5l-176 -43q-42 166 -154.5 263t-273.5 97q-220 0 -354 -157t-134 -412q0 -262 135.5 -422t366.5 -160q159 0 271.5 93.5t150.5 259.5l174 -45
q-55 -208 -213.5 -335.5t-382.5 -127.5zM647 1552l113 244h184l-145 -244h-152z" />
    <glyph glyph-name="cacute" unicode="&#x107;" horiz-adv-x="1056" 
d="M563 -14q-105 0 -197.5 37t-161.5 104t-109 167.5t-40 221.5t38.5 221.5t105.5 168t159 104.5t199 37q170 0 289.5 -92t157.5 -240l-173 -43q-27 110 -99.5 171.5t-180.5 61.5q-136 0 -223.5 -106.5t-87.5 -278.5q0 -185 94 -289t235 -104q103 0 175.5 63.5t105.5 171.5
l164 -40q-44 -148 -161 -242t-290 -94zM457 1151l112 244h185l-146 -244h-151z" />
    <glyph glyph-name="Ccircumflex" unicode="&#x108;" horiz-adv-x="1406" 
d="M762 -14q-210 0 -367 91.5t-240 257t-83 382.5q0 215 85 381t239.5 258t353.5 92q229 0 388 -127.5t214 -345.5l-176 -43q-42 166 -154.5 263t-273.5 97q-220 0 -354 -157t-134 -412q0 -262 135.5 -422t366.5 -160q159 0 271.5 93.5t150.5 259.5l174 -45
q-55 -208 -213.5 -335.5t-382.5 -127.5zM461 1552l205 244h153l205 -244h-166l-115 160l-118 -160h-164z" />
    <glyph glyph-name="ccircumflex" unicode="&#x109;" horiz-adv-x="1056" 
d="M563 -14q-105 0 -197.5 37t-161.5 104t-109 167.5t-40 221.5t38.5 221.5t105.5 168t159 104.5t199 37q170 0 289.5 -92t157.5 -240l-173 -43q-27 110 -99.5 171.5t-180.5 61.5q-136 0 -223.5 -106.5t-87.5 -278.5q0 -185 94 -289t235 -104q103 0 175.5 63.5t105.5 171.5
l164 -40q-44 -148 -161 -242t-290 -94zM270 1151l205 244h154l205 -244h-166l-115 160l-119 -160h-164z" />
    <glyph glyph-name="Cdotaccent" unicode="&#x10a;" horiz-adv-x="1406" 
d="M762 -14q-210 0 -367 91.5t-240 257t-83 382.5q0 215 85 381t239.5 258t353.5 92q229 0 388 -127.5t214 -345.5l-176 -43q-42 166 -154.5 263t-273.5 97q-220 0 -354 -157t-134 -412q0 -262 135.5 -422t366.5 -160q159 0 271.5 93.5t150.5 259.5l174 -45
q-55 -208 -213.5 -335.5t-382.5 -127.5zM651 1579v207h185v-207h-185z" />
    <glyph glyph-name="cdotaccent" unicode="&#x10b;" horiz-adv-x="1056" 
d="M563 -14q-105 0 -197.5 37t-161.5 104t-109 167.5t-40 221.5t38.5 221.5t105.5 168t159 104.5t199 37q170 0 289.5 -92t157.5 -240l-173 -43q-27 110 -99.5 171.5t-180.5 61.5q-136 0 -223.5 -106.5t-87.5 -278.5q0 -185 94 -289t235 -104q103 0 175.5 63.5t105.5 171.5
l164 -40q-44 -148 -161 -242t-290 -94zM461 1176v206h184v-206h-184z" />
    <glyph glyph-name="Ccaron" unicode="&#x10c;" horiz-adv-x="1406" 
d="M762 -14q-210 0 -367 91.5t-240 257t-83 382.5q0 215 85 381t239.5 258t353.5 92q229 0 388 -127.5t214 -345.5l-176 -43q-42 166 -154.5 263t-273.5 97q-220 0 -354 -157t-134 -412q0 -262 135.5 -422t366.5 -160q159 0 271.5 93.5t150.5 259.5l174 -45
q-55 -208 -213.5 -335.5t-382.5 -127.5zM457 1796h166l114 -160l121 160h162l-205 -244h-153z" />
    <glyph glyph-name="ccaron" unicode="&#x10d;" horiz-adv-x="1056" 
d="M563 -14q-105 0 -197.5 37t-161.5 104t-109 167.5t-40 221.5t38.5 221.5t105.5 168t159 104.5t199 37q170 0 289.5 -92t157.5 -240l-173 -43q-27 110 -99.5 171.5t-180.5 61.5q-136 0 -223.5 -106.5t-87.5 -278.5q0 -185 94 -289t235 -104q103 0 175.5 63.5t105.5 171.5
l164 -40q-44 -148 -161 -242t-290 -94zM266 1395h166l115 -160l121 160h161l-204 -244h-154z" />
    <glyph glyph-name="Dcaron" unicode="&#x10e;" horiz-adv-x="1388" 
d="M147 0v1434h443q338 0 535.5 -193.5t197.5 -523.5t-197.5 -523.5t-535.5 -193.5h-443zM330 147h260q251 0 398 155.5t147 414.5q0 260 -147 414.5t-398 154.5h-260v-1139zM350 1796h166l115 -160l121 160h161l-204 -244h-154z" />
    <glyph glyph-name="dcaron" unicode="&#x10f;" horiz-adv-x="1163" 
d="M856 0v221q-53 -111 -146.5 -173t-220.5 -62q-192 0 -313 144.5t-121 387.5q0 239 124.5 384t307.5 145q125 0 220.5 -62.5t148.5 -175.5v625h176v-1434h-176zM238 518q0 -180 82 -286.5t217 -106.5q139 0 228 108.5t89 278.5q0 171 -90.5 283t-222.5 112
q-135 0 -219 -105.5t-84 -283.5zM1122 1069l62 363h153l-108 -363h-107z" />
    <glyph glyph-name="Dcroat" unicode="&#x110;" horiz-adv-x="1431" 
d="M18 653v127h172v654h443q338 0 535.5 -193.5t197.5 -523.5t-197.5 -523.5t-535.5 -193.5h-443v653h-172zM373 147h260q251 0 398 155.5t147 414.5q0 260 -147 414.5t-398 154.5h-260v-506h239v-127h-239v-506z" />
    <glyph glyph-name="dcroat" unicode="&#x111;" horiz-adv-x="1183" 
d="M553 1184v110h303v140h176v-140h154v-110h-154v-1184h-176v221q-53 -111 -146.5 -173t-220.5 -62q-192 0 -313 144.5t-121 387.5q0 239 124.5 384t307.5 145q125 0 220.5 -62.5t148.5 -175.5v375h-303zM238 518q0 -180 82 -286.5t217 -106.5q139 0 228 108.5t89 278.5
q0 171 -90.5 283t-222.5 112q-135 0 -219 -105.5t-84 -283.5z" />
    <glyph glyph-name="Emacron" unicode="&#x112;" horiz-adv-x="1067" 
d="M147 0v1434h869v-148h-686v-469h577v-147h-577v-523h686v-147h-869zM358 1595v117h496v-117h-496z" />
    <glyph glyph-name="emacron" unicode="&#x113;" horiz-adv-x="1073" 
d="M557 -14q-224 0 -363 144t-139 386q0 147 59.5 267t173.5 192t263 72q206 0 332.5 -134.5t126.5 -337.5q0 -39 -6 -77h-768q6 -179 97 -277t230 -98q203 0 287 217l160 -39q-42 -135 -158 -225t-295 -90zM246 629h585q-11 122 -87 201t-197 79q-118 0 -197.5 -76
t-103.5 -204zM322 1194v117h495v-117h-495z" />
    <glyph glyph-name="Edotaccent" unicode="&#x116;" horiz-adv-x="1067" 
d="M147 0v1434h869v-148h-686v-469h577v-147h-577v-523h686v-147h-869zM512 1579v207h184v-207h-184z" />
    <glyph glyph-name="edotaccent" unicode="&#x117;" horiz-adv-x="1073" 
d="M557 -14q-224 0 -363 144t-139 386q0 147 59.5 267t173.5 192t263 72q206 0 332.5 -134.5t126.5 -337.5q0 -39 -6 -77h-768q6 -179 97 -277t230 -98q203 0 287 217l160 -39q-42 -135 -158 -225t-295 -90zM246 629h585q-11 122 -87 201t-197 79q-118 0 -197.5 -76
t-103.5 -204zM477 1178v206h185v-206h-185z" />
    <glyph glyph-name="Eogonek" unicode="&#x118;" horiz-adv-x="1067" 
d="M147 0v1434h869v-148h-686v-469h577v-147h-577v-523h686v-147h-96q-91 -91 -91 -166q0 -45 28 -72.5t71 -27.5q30 0 65 12l51 -106q-52 -41 -129 -41q-87 0 -144.5 51.5t-57.5 138.5q0 61 23 108t71 103h-660z" />
    <glyph glyph-name="eogonek" unicode="&#x119;" horiz-adv-x="1073" 
d="M557 -14q-224 0 -363 144t-139 386q0 147 59.5 267t173.5 192t263 72q206 0 332.5 -134.5t126.5 -337.5q0 -39 -6 -77h-768q6 -179 97 -277t230 -98q203 0 287 217l160 -39q-50 -155 -176 -238q-86 -86 -86 -161q0 -45 27.5 -73t70.5 -28q28 0 65 13l52 -107
q-52 -41 -129 -41q-87 0 -145 52t-58 139q0 77 41 139q-62 -10 -115 -10zM246 629h585q-11 122 -87 201t-197 79q-118 0 -197.5 -76t-103.5 -204z" />
    <glyph glyph-name="Ecaron" unicode="&#x11a;" horiz-adv-x="1067" 
d="M147 0v1434h869v-148h-686v-469h577v-147h-577v-523h686v-147h-869zM319 1796h166l115 -160l121 160h162l-205 -244h-154z" />
    <glyph glyph-name="ecaron" unicode="&#x11b;" horiz-adv-x="1073" 
d="M557 -14q-224 0 -363 144t-139 386q0 147 59.5 267t173.5 192t263 72q206 0 332.5 -134.5t126.5 -337.5q0 -39 -6 -77h-768q6 -179 97 -277t230 -98q203 0 287 217l160 -39q-42 -135 -158 -225t-295 -90zM246 629h585q-11 122 -87 201t-197 79q-118 0 -197.5 -76
t-103.5 -204zM283 1395h166l114 -160l121 160h162l-205 -244h-154z" />
    <glyph glyph-name="Gcircumflex" unicode="&#x11c;" horiz-adv-x="1478" 
d="M725 -14q-134 0 -253.5 52t-208 145t-140 230t-51.5 298q0 165 52 304t142.5 233.5t214 147t264.5 52.5q127 0 231 -35t176.5 -97.5t119.5 -142t71 -174.5l-176 -41q-98 334 -434 334q-208 0 -340.5 -157t-132.5 -416q0 -166 63.5 -298t176.5 -206t256 -74
q181 0 304 123.5t136 331.5h-348l20 143h496v-739h-145v313q-66 -150 -196.5 -238.5t-297.5 -88.5zM469 1552l205 244h153l205 -244h-166l-114 160l-119 -160h-164z" />
    <glyph glyph-name="gcircumflex" unicode="&#x11d;" horiz-adv-x="1167" 
d="M582 -424q-187 0 -310.5 85.5t-162.5 236.5l157 39q67 -220 314 -220q127 0 203.5 79.5t76.5 230.5v194q-53 -111 -146 -173t-220 -62q-192 0 -313.5 144.5t-121.5 387.5q0 239 125 384t308 145q125 0 220 -62t148 -176v223h176v-993q0 -225 -121.5 -344t-332.5 -119z
M242 518q0 -180 82 -286.5t217 -106.5q139 0 228 108.5t89 278.5q0 171 -90.5 283t-222.5 112q-135 0 -219 -105.5t-84 -283.5zM287 1151l205 244h153l205 -244h-166l-115 160l-118 -160h-164z" />
    <glyph glyph-name="Gbreve" unicode="&#x11e;" horiz-adv-x="1478" 
d="M725 -14q-134 0 -253.5 52t-208 145t-140 230t-51.5 298q0 165 52 304t142.5 233.5t214 147t264.5 52.5q127 0 231 -35t176.5 -97.5t119.5 -142t71 -174.5l-176 -41q-98 334 -434 334q-208 0 -340.5 -157t-132.5 -416q0 -166 63.5 -298t176.5 -206t256 -74
q181 0 304 123.5t136 331.5h-348l20 143h496v-739h-145v313q-66 -150 -196.5 -238.5t-297.5 -88.5zM485 1804h127q0 -73 38 -116t100 -43q63 0 101 43t38 116h127q0 -123 -73.5 -197.5t-192.5 -74.5q-118 0 -191.5 75t-73.5 197z" />
    <glyph glyph-name="gbreve" unicode="&#x11f;" horiz-adv-x="1167" 
d="M582 -424q-187 0 -310.5 85.5t-162.5 236.5l157 39q67 -220 314 -220q127 0 203.5 79.5t76.5 230.5v194q-53 -111 -146 -173t-220 -62q-192 0 -313.5 144.5t-121.5 387.5q0 239 125 384t308 145q125 0 220 -62t148 -176v223h176v-993q0 -225 -121.5 -344t-332.5 -119z
M242 518q0 -180 82 -286.5t217 -106.5q139 0 228 108.5t89 278.5q0 171 -90.5 283t-222.5 112q-135 0 -219 -105.5t-84 -283.5zM305 1403h127q0 -73 37.5 -116.5t99.5 -43.5q63 0 101.5 43.5t38.5 116.5h127q0 -123 -74 -198t-193 -75q-117 0 -190.5 75t-73.5 198z" />
    <glyph glyph-name="Gdotaccent" unicode="&#x120;" horiz-adv-x="1478" 
d="M725 -14q-134 0 -253.5 52t-208 145t-140 230t-51.5 298q0 165 52 304t142.5 233.5t214 147t264.5 52.5q127 0 231 -35t176.5 -97.5t119.5 -142t71 -174.5l-176 -41q-98 334 -434 334q-208 0 -340.5 -157t-132.5 -416q0 -166 63.5 -298t176.5 -206t256 -74
q181 0 304 123.5t136 331.5h-348l20 143h496v-739h-145v313q-66 -150 -196.5 -238.5t-297.5 -88.5zM659 1579v207h185v-207h-185z" />
    <glyph glyph-name="gdotaccent" unicode="&#x121;" horiz-adv-x="1167" 
d="M582 -424q-187 0 -310.5 85.5t-162.5 236.5l157 39q67 -220 314 -220q127 0 203.5 79.5t76.5 230.5v194q-53 -111 -146 -173t-220 -62q-192 0 -313.5 144.5t-121.5 387.5q0 239 125 384t308 145q125 0 220 -62t148 -176v223h176v-993q0 -225 -121.5 -344t-332.5 -119z
M242 518q0 -180 82 -286.5t217 -106.5q139 0 228 108.5t89 278.5q0 171 -90.5 283t-222.5 112q-135 0 -219 -105.5t-84 -283.5zM477 1176v206h185v-206h-185z" />
    <glyph glyph-name="uni0122" unicode="&#x122;" horiz-adv-x="1478" 
d="M725 -14q-134 0 -253.5 52t-208 145t-140 230t-51.5 298q0 165 52 304t142.5 233.5t214 147t264.5 52.5q127 0 231 -35t176.5 -97.5t119.5 -142t71 -174.5l-176 -41q-98 334 -434 334q-208 0 -340.5 -157t-132.5 -416q0 -166 63.5 -298t176.5 -206t256 -74
q181 0 304 123.5t136 331.5h-348l20 143h496v-739h-145v313q-66 -150 -196.5 -238.5t-297.5 -88.5zM662 -467v86q57 0 71.5 20t14.5 76h-82v187h163v-187q0 -99 -42 -140.5t-125 -41.5z" />
    <glyph glyph-name="uni0123" unicode="&#x123;" horiz-adv-x="1167" 
d="M582 -424q-187 0 -310.5 85.5t-162.5 236.5l157 39q67 -220 314 -220q127 0 203.5 79.5t76.5 230.5v194q-53 -111 -146 -173t-220 -62q-192 0 -313.5 144.5t-121.5 387.5q0 239 125 384t308 145q125 0 220 -62t148 -176v223h176v-993q0 -225 -121.5 -344t-332.5 -119z
M242 518q0 -180 82 -286.5t217 -106.5q139 0 228 108.5t89 278.5q0 171 -90.5 283t-222.5 112q-135 0 -219 -105.5t-84 -283.5zM487 1151v186q0 99 41.5 141t126.5 42v-88q-59 0 -73.5 -20t-14.5 -75h84v-186h-164z" />
    <glyph glyph-name="Hcircumflex" unicode="&#x124;" horiz-adv-x="1384" 
d="M1055 0v664h-725v-664h-183v1434h183v-623h725v623h182v-1434h-182zM410 1552l204 244h154l205 -244h-166l-115 160l-119 -160h-163z" />
    <glyph glyph-name="hcircumflex" unicode="&#x125;" horiz-adv-x="1105" 
d="M131 0v1434h176v-633q64 111 164 178.5t225 67.5q140 0 212.5 -91.5t72.5 -269.5v-686h-174v664q0 129 -48 183t-141 54q-114 0 -198.5 -90.5t-112.5 -220.5v-590h-176zM-59 1491l204 244h154l205 -244h-166l-115 160l-119 -160h-163z" />
    <glyph glyph-name="Hbar" unicode="&#x126;" horiz-adv-x="1411" 
d="M41 1083v127h113v224h182v-224h725v224h182v-224h125v-127h-125v-1083h-182v664h-725v-664h-182v1083h-113zM336 811h725v272h-725v-272z" />
    <glyph glyph-name="hbar" unicode="&#x127;" horiz-adv-x="1130" 
d="M154 0v1184h-134v110h134v140h176v-140h323v-110h-323v-383q64 111 164 178.5t225 67.5q140 0 212.5 -91.5t72.5 -269.5v-686h-175v664q0 129 -47.5 183t-140.5 54q-114 0 -198.5 -90.5t-112.5 -220.5v-590h-176z" />
    <glyph glyph-name="Itilde" unicode="&#x128;" horiz-adv-x="477" 
d="M147 0v1434h183v-1434h-183zM-57 1589q10 91 51.5 139t109.5 48q40 0 76 -16t59 -34.5t53 -34.5t60 -16q62 0 68 97l110 -33q-5 -88 -43.5 -136.5t-109.5 -48.5q-39 0 -76 16t-60.5 35.5t-52.5 35.5t-55 16q-60 0 -80 -101z" />
    <glyph glyph-name="itilde" unicode="&#x129;" horiz-adv-x="436" 
d="M131 0v1032h174v-1032h-174zM-76 1188q10 90 52 138t110 48q40 0 76 -15.5t59 -34.5t53 -34.5t60 -15.5q61 0 67 96l111 -33q-5 -88 -44 -136t-110 -48q-39 0 -76 16t-60 35t-52 35t-55 16q-60 0 -80 -100z" />
    <glyph glyph-name="Imacron" unicode="&#x12a;" horiz-adv-x="477" 
d="M147 0v1434h183v-1434h-183zM-10 1595v117h495v-117h-495z" />
    <glyph glyph-name="imacron" unicode="&#x12b;" horiz-adv-x="436" 
d="M131 0v1032h174v-1032h-174zM-29 1194v117h496v-117h-496z" />
    <glyph glyph-name="Iogonek" unicode="&#x12e;" horiz-adv-x="477" 
d="M147 0v1434h183v-1434h-37q-90 -90 -90 -166q0 -45 27.5 -72.5t70.5 -27.5q31 0 66 12l51 -106q-52 -41 -129 -41q-87 0 -145 51.5t-58 138.5q0 61 23 108t71 103h-33z" />
    <glyph glyph-name="iogonek" unicode="&#x12f;" horiz-adv-x="436" 
d="M131 0v1032h174v-1032h-63q-90 -90 -90 -166q0 -45 27.5 -72.5t70.5 -27.5q30 0 65 12l52 -106q-52 -41 -129 -41q-87 0 -145 51.5t-58 138.5q0 61 23 108t71 103h2zM127 1176v206h184v-206h-184z" />
    <glyph glyph-name="Idotaccent" unicode="&#x130;" horiz-adv-x="477" 
d="M147 0v1434h183v-1434h-183zM145 1579v207h185v-207h-185z" />
    <glyph glyph-name="dotlessi" unicode="&#x131;" horiz-adv-x="436" 
d="M131 0v1032h174v-1032h-174z" />
    <glyph glyph-name="Jcircumflex" unicode="&#x134;" horiz-adv-x="1089" 
d="M520 -14q-204 0 -333 112t-146 305l166 39q6 -140 86 -220.5t213 -80.5q125 0 193.5 78.5t68.5 224.5v990h182v-1004q0 -210 -115 -327t-315 -117zM578 1552l204 244h154l205 -244h-166l-115 160l-119 -160h-163z" />
    <glyph glyph-name="jcircumflex" unicode="&#x135;" horiz-adv-x="442" 
d="M-63 -410v148h67q72 0 101.5 34t29.5 109v1151h176v-1157q0 -285 -291 -285h-83zM-57 1151l204 244h154l205 -244h-166l-115 160l-119 -160h-163z" />
    <glyph glyph-name="uni0136" unicode="&#x136;" horiz-adv-x="1253" 
d="M147 0v1434h183v-822l678 822h202l-540 -650l561 -784h-209l-461 655l-231 -278v-377h-183zM545 -467v86q57 0 71.5 20t14.5 76h-82v187h164v-187q0 -99 -42 -140.5t-126 -41.5z" />
    <glyph glyph-name="uni0137" unicode="&#x137;" horiz-adv-x="995" 
d="M131 0v1434h176v-871l475 469h209l-469 -463l469 -569h-196l-381 461l-107 -105v-356h-176zM418 -467v86q57 0 71.5 20t14.5 76h-82v187h164v-187q0 -99 -42 -140.5t-126 -41.5z" />
    <glyph glyph-name="kgreenlandic" unicode="&#x138;" horiz-adv-x="993" 
d="M131 0v1032h174v-481l479 481h205l-467 -469l465 -563h-201l-374 453l-107 -107v-346h-174z" />
    <glyph glyph-name="Lacute" unicode="&#x139;" horiz-adv-x="987" 
d="M147 0v1434h183v-1287h637v-147h-820zM143 1552l113 244h184l-145 -244h-152z" />
    <glyph glyph-name="lacute" unicode="&#x13a;" horiz-adv-x="438" 
d="M131 0v1434h176v-1434h-176zM123 1552l113 244h184l-146 -244h-151z" />
    <glyph glyph-name="uni013B" unicode="&#x13b;" horiz-adv-x="987" 
d="M147 0v1434h183v-1287h637v-147h-820zM496 -467v86q57 0 71.5 20t14.5 76h-82v187h164v-187q0 -99 -42 -140.5t-126 -41.5z" />
    <glyph glyph-name="uni013C" unicode="&#x13c;" horiz-adv-x="438" 
d="M131 0v1434h176v-1434h-176zM135 -467v86q57 0 71.5 20t14.5 76h-82v187h164v-187q0 -99 -42 -140.5t-126 -41.5z" />
    <glyph glyph-name="Lcaron" unicode="&#x13d;" horiz-adv-x="987" 
d="M147 0v1434h183v-1287h637v-147h-820zM592 1071l61 363h154l-109 -363h-106z" />
    <glyph glyph-name="lcaron" unicode="&#x13e;" horiz-adv-x="491" 
d="M131 0v1434h176v-1434h-176zM395 1071l62 363h153l-108 -363h-107z" />
    <glyph glyph-name="Lslash" unicode="&#x141;" horiz-adv-x="1024" 
d="M-8 573v129l194 72v660h183v-592l327 121v-129l-327 -121v-566h637v-147h-820v645z" />
    <glyph glyph-name="lslash" unicode="&#x142;" horiz-adv-x="444" 
d="M-57 555v135l192 90v654h176v-570l191 90v-135l-191 -90v-729h-176v645z" />
    <glyph glyph-name="Nacute" unicode="&#x143;" horiz-adv-x="1429" 
d="M147 0v1434h207l754 -1153v1153h174v-1434h-182l-778 1190v-1190h-175zM649 1552l113 244h184l-145 -244h-152z" />
    <glyph glyph-name="nacute" unicode="&#x144;" horiz-adv-x="1105" 
d="M131 0v1032h174v-231q64 111 164 178.5t225 67.5q140 0 212.5 -91.5t72.5 -269.5v-686h-174v664q0 129 -48 183t-141 54q-114 0 -198.5 -90.5t-112.5 -220.5v-590h-174zM506 1151l112 244h185l-146 -244h-151z" />
    <glyph glyph-name="uni0145" unicode="&#x145;" horiz-adv-x="1429" 
d="M147 0v1434h207l754 -1153v1153h174v-1434h-182l-778 1190v-1190h-175zM623 -467v86q57 0 71.5 20t14.5 76h-82v187h164v-187q0 -99 -42 -140.5t-126 -41.5z" />
    <glyph glyph-name="uni0146" unicode="&#x146;" horiz-adv-x="1105" 
d="M131 0v1032h174v-231q64 111 164 178.5t225 67.5q140 0 212.5 -91.5t72.5 -269.5v-686h-174v664q0 129 -48 183t-141 54q-114 0 -198.5 -90.5t-112.5 -220.5v-590h-174zM475 -467v86q57 0 71.5 20t14.5 76h-82v187h164v-187q0 -99 -42 -140.5t-126 -41.5z" />
    <glyph glyph-name="Ncaron" unicode="&#x147;" horiz-adv-x="1429" 
d="M147 0v1434h207l754 -1153v1153h174v-1434h-182l-778 1190v-1190h-175zM459 1796h166l114 -160l121 160h162l-205 -244h-153z" />
    <glyph glyph-name="ncaron" unicode="&#x148;" horiz-adv-x="1105" 
d="M131 0v1032h174v-231q64 111 164 178.5t225 67.5q140 0 212.5 -91.5t72.5 -269.5v-686h-174v664q0 129 -48 183t-141 54q-114 0 -198.5 -90.5t-112.5 -220.5v-590h-174zM317 1395h166l115 -160l121 160h162l-205 -244h-154z" />
    <glyph glyph-name="Eng" unicode="&#x14a;" horiz-adv-x="1429" 
d="M866 -418v160h29q118 0 167.5 47t49.5 170v23l-790 1210v-1192h-175v1434h207l754 -1153v1153h174v-1442q0 -226 -88 -318t-289 -92h-39z" />
    <glyph glyph-name="eng" unicode="&#x14b;" horiz-adv-x="1105" 
d="M131 0v1032h174v-305q54 138 157.5 229t242.5 91q141 0 213.5 -91.5t72.5 -269.5v-778q-3 -324 -321 -324h-23v150h23q145 0 145 176v754q0 247 -192 247q-91 0 -165.5 -63t-113.5 -158t-39 -196v-494h-174z" />
    <glyph glyph-name="Omacron" unicode="&#x14c;" horiz-adv-x="1476" 
d="M739 -14q-304 0 -485.5 199t-181.5 532t181.5 532t485.5 199q303 0 484.5 -199t181.5 -532t-181.5 -532t-484.5 -199zM260 717q0 -260 131.5 -418t347.5 -158t347 157.5t131 418.5t-131 418t-347 157t-347.5 -157.5t-131.5 -417.5zM492 1595v117h495v-117h-495z" />
    <glyph glyph-name="omacron" unicode="&#x14d;" horiz-adv-x="1114" 
d="M557 -12q-106 0 -198.5 37.5t-159.5 105.5t-105.5 167.5t-38.5 217.5q0 238 142.5 384.5t359.5 146.5t359.5 -146.5t142.5 -384.5q0 -118 -38.5 -217.5t-105.5 -167.5t-159.5 -105.5t-198.5 -37.5zM240 516q0 -184 87 -286.5t230 -102.5q144 0 232 102.5t88 286.5
t-88 286.5t-232 102.5q-143 0 -230 -102.5t-87 -286.5zM309 1194v117h496v-117h-496z" />
    <glyph glyph-name="Ohungarumlaut" unicode="&#x150;" horiz-adv-x="1476" 
d="M739 -14q-304 0 -485.5 199t-181.5 532t181.5 532t485.5 199q303 0 484.5 -199t181.5 -532t-181.5 -532t-484.5 -199zM260 717q0 -260 131.5 -418t347.5 -158t347 157.5t131 418.5t-131 418t-347 157t-347.5 -157.5t-131.5 -417.5zM543 1552l127 244h168l-160 -244h-135z
M811 1552l154 244h170l-187 -244h-137z" />
    <glyph glyph-name="ohungarumlaut" unicode="&#x151;" horiz-adv-x="1114" 
d="M557 -12q-106 0 -198.5 37.5t-159.5 105.5t-105.5 167.5t-38.5 217.5q0 238 142.5 384.5t359.5 146.5t359.5 -146.5t142.5 -384.5q0 -118 -38.5 -217.5t-105.5 -167.5t-159.5 -105.5t-198.5 -37.5zM240 516q0 -184 87 -286.5t230 -102.5q144 0 232 102.5t88 286.5
t-88 286.5t-232 102.5q-143 0 -230 -102.5t-87 -286.5zM362 1151l127 244h168l-159 -244h-136zM631 1151l153 244h170l-186 -244h-137z" />
    <glyph glyph-name="OE" unicode="&#x152;" horiz-adv-x="2148" 
d="M715 -14q-287 0 -465 200t-178 531t178 531t465 200q174 0 307 -84t207 -238v308h868v-148h-686v-469h578v-147h-578v-523h686v-147h-868v307q-75 -155 -208.5 -238t-305.5 -83zM260 717q0 -260 131.5 -418t347.5 -158t347 157.5t131 418.5t-131 418t-347 157
t-347.5 -157.5t-131.5 -417.5z" />
    <glyph glyph-name="oe" unicode="&#x153;" horiz-adv-x="1896" 
d="M557 -12q-106 0 -198.5 37.5t-159.5 105.5t-105.5 167.5t-38.5 217.5q0 238 142.5 384.5t359.5 146.5q131 0 245.5 -74t164.5 -199q48 123 155.5 196.5t251.5 73.5q207 0 333 -130.5t126 -335.5q0 -42 -6 -80h-768q8 -172 94.5 -272.5t232.5 -100.5q203 0 287 217
l160 -41q-41 -133 -156 -223t-282 -90q-160 0 -271 71.5t-163 202.5q-50 -126 -162.5 -200t-241.5 -74zM240 516q0 -183 87 -285t230 -102q136 0 224.5 103t88.5 284q0 182 -88.5 285.5t-224.5 103.5q-143 0 -230 -102.5t-87 -286.5zM1065 606h590q-3 134 -80.5 217.5
t-204.5 83.5q-131 0 -215 -89.5t-90 -211.5z" />
    <glyph glyph-name="Racute" unicode="&#x154;" horiz-adv-x="1224" 
d="M147 0v1434h484q233 0 367.5 -112.5t134.5 -313.5q0 -154 -87 -258.5t-217 -137.5l355 -612h-199l-317 565h-338v-565h-183zM330 713h303q141 0 226 75.5t85 210.5q0 138 -91 212.5t-259 74.5h-264v-573zM496 1552l112 244h185l-146 -244h-151z" />
    <glyph glyph-name="racute" unicode="&#x155;" horiz-adv-x="688" 
d="M131 0v1032h176v-278q48 136 135.5 214.5t210.5 78.5h4v-183q-166 0 -258 -99t-92 -300v-465h-176zM317 1151l113 244h184l-145 -244h-152z" />
    <glyph glyph-name="uni0156" unicode="&#x156;" horiz-adv-x="1224" 
d="M147 0v1434h484q233 0 367.5 -112.5t134.5 -313.5q0 -154 -87 -258.5t-217 -137.5l355 -612h-199l-317 565h-338v-565h-183zM330 713h303q141 0 226 75.5t85 210.5q0 138 -91 212.5t-259 74.5h-264v-573zM539 -467v86q57 0 71.5 20t14.5 76h-82v187h164v-187
q0 -99 -42 -140.5t-126 -41.5z" />
    <glyph glyph-name="uni0157" unicode="&#x157;" horiz-adv-x="688" 
d="M131 0v1032h176v-278q48 136 135.5 214.5t210.5 78.5h4v-183q-166 0 -258 -99t-92 -300v-465h-176zM135 -467v86q57 0 71.5 20t14.5 76h-82v187h164v-187q0 -99 -42 -140.5t-126 -41.5z" />
    <glyph glyph-name="Rcaron" unicode="&#x158;" horiz-adv-x="1224" 
d="M147 0v1434h484q233 0 367.5 -112.5t134.5 -313.5q0 -154 -87 -258.5t-217 -137.5l355 -612h-199l-317 565h-338v-565h-183zM307 1796h166l115 -160l121 160h161l-204 -244h-154zM330 713h303q141 0 226 75.5t85 210.5q0 138 -91 212.5t-259 74.5h-264v-573z" />
    <glyph glyph-name="rcaron" unicode="&#x159;" horiz-adv-x="688" 
d="M131 0v1032h176v-278q48 136 135.5 214.5t210.5 78.5h4v-183q-166 0 -258 -99t-92 -300v-465h-176zM127 1395h166l115 -160l120 160h162l-205 -244h-153z" />
    <glyph glyph-name="Sacute" unicode="&#x15a;" horiz-adv-x="1169" 
d="M616 -12q-218 0 -375 116t-194 304l170 43q31 -143 138.5 -229.5t262.5 -86.5q135 0 222.5 65t87.5 183q0 44 -13 78.5t-32.5 58t-55.5 44.5t-67.5 34t-83.5 31l-223 73q-70 23 -120 45.5t-96.5 54t-75 68t-45 87t-16.5 112.5q0 168 129.5 273.5t343.5 105.5
q207 0 340 -98.5t183 -251.5l-174 -39q-36 104 -126 172.5t-233 68.5q-128 0 -206 -58.5t-78 -158.5q0 -90 57.5 -138t183.5 -89l230 -78q84 -29 141 -57.5t110 -73t79 -107.5t26 -147q0 -181 -130.5 -293t-359.5 -112zM522 1552l113 244h184l-145 -244h-152z" />
    <glyph glyph-name="sacute" unicode="&#x15b;" horiz-adv-x="940" 
d="M498 -14q-188 0 -303.5 86t-153.5 221l162 41q71 -215 299 -215q107 0 166 44.5t59 123.5q0 66 -46.5 102.5t-143.5 61.5l-166 41q-72 17 -122 37t-90.5 50.5t-60.5 74t-20 102.5q0 132 102.5 211.5t270.5 79.5q169 0 278.5 -74t149.5 -199l-164 -39q-29 83 -96 130.5
t-173 47.5q-94 0 -151 -40t-57 -109q0 -61 43.5 -94t124.5 -52l188 -45q147 -34 220 -99.5t73 -178.5q0 -139 -102 -224t-287 -85zM381 1151l113 244h184l-146 -244h-151z" />
    <glyph glyph-name="Scircumflex" unicode="&#x15c;" horiz-adv-x="1169" 
d="M616 -12q-218 0 -375 116t-194 304l170 43q31 -143 138.5 -229.5t262.5 -86.5q135 0 222.5 65t87.5 183q0 44 -13 78.5t-32.5 58t-55.5 44.5t-67.5 34t-83.5 31l-223 73q-70 23 -120 45.5t-96.5 54t-75 68t-45 87t-16.5 112.5q0 168 129.5 273.5t343.5 105.5
q207 0 340 -98.5t183 -251.5l-174 -39q-36 104 -126 172.5t-233 68.5q-128 0 -206 -58.5t-78 -158.5q0 -90 57.5 -138t183.5 -89l230 -78q84 -29 141 -57.5t110 -73t79 -107.5t26 -147q0 -181 -130.5 -293t-359.5 -112zM338 1552l205 244h153l205 -244h-166l-114 160
l-119 -160h-164z" />
    <glyph glyph-name="scircumflex" unicode="&#x15d;" horiz-adv-x="940" 
d="M498 -14q-188 0 -303.5 86t-153.5 221l162 41q71 -215 299 -215q107 0 166 44.5t59 123.5q0 66 -46.5 102.5t-143.5 61.5l-166 41q-72 17 -122 37t-90.5 50.5t-60.5 74t-20 102.5q0 132 102.5 211.5t270.5 79.5q169 0 278.5 -74t149.5 -199l-164 -39q-29 83 -96 130.5
t-173 47.5q-94 0 -151 -40t-57 -109q0 -61 43.5 -94t124.5 -52l188 -45q147 -34 220 -99.5t73 -178.5q0 -139 -102 -224t-287 -85zM195 1151l204 244h154l205 -244h-166l-115 160l-119 -160h-163z" />
    <glyph glyph-name="Scedilla" unicode="&#x15e;" horiz-adv-x="1169" 
d="M602 -410q-120 0 -209 99l66 69q69 -69 141 -69q36 0 59 19.5t23 53.5q0 42 -49 67.5t-135 25.5v55l61 80q-197 15 -337.5 129.5t-174.5 288.5l170 43q31 -143 138.5 -229.5t262.5 -86.5q135 0 222.5 65t87.5 183q0 44 -13 78.5t-32.5 58t-55.5 44.5t-67.5 34t-83.5 31
l-223 73q-70 23 -120 45.5t-96.5 54t-75 68t-45 87t-16.5 112.5q0 168 129.5 273.5t343.5 105.5q207 0 340 -98.5t183 -251.5l-174 -39q-36 104 -126 172.5t-233 68.5q-128 0 -206 -58.5t-78 -158.5q0 -90 57.5 -138t183.5 -89l230 -78q84 -29 141 -57.5t110 -73t79 -107.5
t26 -147q0 -171 -117.5 -282t-326.5 -121l-44 -82q75 -7 128 -48t53 -114q0 -68 -58 -112t-139 -44z" />
    <glyph glyph-name="scedilla" unicode="&#x15f;" horiz-adv-x="940" 
d="M467 -410q-120 0 -209 99l66 69q69 -69 141 -69q36 0 59 19.5t23 53.5q0 42 -49.5 67.5t-135.5 25.5v55l62 80q-156 16 -252 99t-131 204l162 41q71 -215 299 -215q107 0 166 44.5t59 123.5q0 66 -46.5 102.5t-143.5 61.5l-166 41q-72 17 -122 37t-90.5 50.5t-60.5 74
t-20 102.5q0 132 102.5 211.5t270.5 79.5q169 0 278.5 -74t149.5 -199l-164 -39q-29 83 -96 130.5t-173 47.5q-94 0 -151 -40t-57 -109q0 -61 43.5 -94t124.5 -52l188 -45q147 -34 220 -99.5t73 -178.5q0 -133 -95 -217.5t-266 -91.5l-43 -78q75 -7 128 -48t53 -114
q0 -68 -58 -112t-139 -44z" />
    <glyph glyph-name="Scaron" unicode="&#x160;" horiz-adv-x="1169" 
d="M616 -12q-218 0 -375 116t-194 304l170 43q31 -143 138.5 -229.5t262.5 -86.5q135 0 222.5 65t87.5 183q0 44 -13 78.5t-32.5 58t-55.5 44.5t-67.5 34t-83.5 31l-223 73q-70 23 -120 45.5t-96.5 54t-75 68t-45 87t-16.5 112.5q0 168 129.5 273.5t343.5 105.5
q207 0 340 -98.5t183 -251.5l-174 -39q-36 104 -126 172.5t-233 68.5q-128 0 -206 -58.5t-78 -158.5q0 -90 57.5 -138t183.5 -89l230 -78q84 -29 141 -57.5t110 -73t79 -107.5t26 -147q0 -181 -130.5 -293t-359.5 -112zM334 1796h166l114 -160l121 160h162l-205 -244h-153z
" />
    <glyph glyph-name="scaron" unicode="&#x161;" horiz-adv-x="940" 
d="M498 -14q-188 0 -303.5 86t-153.5 221l162 41q71 -215 299 -215q107 0 166 44.5t59 123.5q0 66 -46.5 102.5t-143.5 61.5l-166 41q-72 17 -122 37t-90.5 50.5t-60.5 74t-20 102.5q0 132 102.5 211.5t270.5 79.5q169 0 278.5 -74t149.5 -199l-164 -39q-29 83 -96 130.5
t-173 47.5q-94 0 -151 -40t-57 -109q0 -61 43.5 -94t124.5 -52l188 -45q147 -34 220 -99.5t73 -178.5q0 -139 -102 -224t-287 -85zM190 1395h166l115 -160l121 160h162l-205 -244h-154z" />
    <glyph glyph-name="uni0162" unicode="&#x162;" horiz-adv-x="1169" 
d="M494 0v1286h-461v148h1104v-148h-461v-1286h-39l-49 -92q75 -7 127.5 -48t52.5 -114q0 -68 -58 -112t-139 -44q-120 0 -209 99l66 69q69 -69 141 -69q36 0 59 19.5t23 53.5q0 42 -49 67.5t-135 25.5v55l70 90h-43z" />
    <glyph glyph-name="uni0163" unicode="&#x163;" horiz-adv-x="610" 
d="M25 889v143h129v207l174 76v-283h245v-143h-245v-598q0 -68 35 -106t96 -38h114v-147h-92l-49 -92q75 -7 127.5 -48t52.5 -114q0 -68 -57.5 -112t-138.5 -44q-120 0 -209 99l65 69q69 -69 142 -69q36 0 59 19.5t23 53.5q0 42 -49.5 67.5t-135.5 25.5v55l74 94
q-111 15 -171 87.5t-60 193.5v604h-129z" />
    <glyph glyph-name="Tcaron" unicode="&#x164;" horiz-adv-x="1169" 
d="M494 0v1286h-461v148h1104v-148h-461v-1286h-182zM299 1796h166l115 -160l120 160h162l-205 -244h-153z" />
    <glyph glyph-name="tcaron" unicode="&#x165;" horiz-adv-x="610" 
d="M444 0q-137 0 -213.5 74.5t-76.5 210.5v604h-129v143h129v207l174 76v-283h245v-143h-245v-598q0 -68 35 -106t96 -38h114v-147h-129zM463 1110l61 363h154l-109 -363h-106z" />
    <glyph glyph-name="Tbar" unicode="&#x166;" horiz-adv-x="1169" 
d="M494 0v618h-271v127h271v541h-461v148h1104v-148h-461v-541h285v-127h-285v-618h-182z" />
    <glyph glyph-name="tbar" unicode="&#x167;" horiz-adv-x="616" 
d="M33 578v114h121v197h-129v143h129v207l174 76v-283h245v-143h-245v-197h252v-114h-252v-287q0 -68 35 -106t96 -38h114v-147h-129q-137 0 -213.5 74.5t-76.5 210.5v293h-121z" />
    <glyph glyph-name="Utilde" unicode="&#x168;" horiz-adv-x="1429" 
d="M717 -16q-274 0 -426 147.5t-152 411.5v891h183v-889q0 -197 103 -301.5t292 -104.5q190 0 293.5 104.5t103.5 301.5v889h178v-891q0 -264 -151.5 -411.5t-423.5 -147.5zM432 1589q10 91 52 139t110 48q40 0 76 -16t59 -34.5t53 -34.5t60 -16q61 0 67 97l111 -33
q-5 -88 -44 -136.5t-110 -48.5q-39 0 -76 16t-60 35.5t-52 35.5t-55 16q-60 0 -80 -101z" />
    <glyph glyph-name="utilde" unicode="&#x169;" horiz-adv-x="1105" 
d="M975 1032v-1032h-174v236q-63 -113 -164 -181.5t-227 -68.5q-140 0 -212.5 91t-72.5 269v686h174v-663q0 -129 47.5 -183.5t140.5 -54.5q117 0 203.5 94.5t110.5 227.5v579h174zM250 1188q10 90 52 138t110 48q40 0 76 -15.5t58.5 -34.5t52.5 -34.5t60 -15.5q62 0 68 96
l111 -33q-5 -88 -44 -136t-110 -48q-39 0 -76 16t-60.5 35t-52.5 35t-55 16q-60 0 -80 -100z" />
    <glyph glyph-name="Umacron" unicode="&#x16a;" horiz-adv-x="1429" 
d="M717 -16q-274 0 -426 147.5t-152 411.5v891h183v-889q0 -197 103 -301.5t292 -104.5q190 0 293.5 104.5t103.5 301.5v889h178v-891q0 -264 -151.5 -411.5t-423.5 -147.5zM479 1595v117h496v-117h-496z" />
    <glyph glyph-name="umacron" unicode="&#x16b;" horiz-adv-x="1105" 
d="M975 1032v-1032h-174v236q-63 -113 -164 -181.5t-227 -68.5q-140 0 -212.5 91t-72.5 269v686h174v-663q0 -129 47.5 -183.5t140.5 -54.5q117 0 203.5 94.5t110.5 227.5v579h174zM297 1194v117h496v-117h-496z" />
    <glyph glyph-name="Ubreve" unicode="&#x16c;" horiz-adv-x="1429" 
d="M717 -16q-274 0 -426 147.5t-152 411.5v891h183v-889q0 -197 103 -301.5t292 -104.5q190 0 293.5 104.5t103.5 301.5v889h178v-891q0 -264 -151.5 -411.5t-423.5 -147.5zM461 1804h127q0 -73 37.5 -116t99.5 -43q63 0 101 43t38 116h127q0 -123 -73.5 -197.5
t-192.5 -74.5q-118 0 -191 75t-73 197z" />
    <glyph glyph-name="ubreve" unicode="&#x16d;" horiz-adv-x="1105" 
d="M975 1032v-1032h-174v236q-63 -113 -164 -181.5t-227 -68.5q-140 0 -212.5 91t-72.5 269v686h174v-663q0 -129 47.5 -183.5t140.5 -54.5q117 0 203.5 94.5t110.5 227.5v579h174zM279 1403h127q0 -73 37.5 -116.5t99.5 -43.5q63 0 101 43.5t38 116.5h127
q0 -123 -73.5 -198t-192.5 -75q-117 0 -190.5 75t-73.5 198z" />
    <glyph glyph-name="Uring" unicode="&#x16e;" horiz-adv-x="1429" 
d="M717 -16q-274 0 -426 147.5t-152 411.5v891h183v-889q0 -197 103 -301.5t292 -104.5q190 0 293.5 104.5t103.5 301.5v889h178v-891q0 -264 -151.5 -411.5t-423.5 -147.5zM547 1683q0 77 47.5 120.5t132.5 43.5q83 0 129.5 -43.5t46.5 -120.5t-46.5 -120t-129.5 -43
q-85 0 -132.5 43t-47.5 120zM649 1683q0 -37 20 -58t58 -21q35 0 54.5 21t19.5 58q0 38 -19.5 59t-54.5 21q-78 0 -78 -80z" />
    <glyph glyph-name="uring" unicode="&#x16f;" horiz-adv-x="1105" 
d="M975 1032v-1032h-174v236q-63 -113 -164 -181.5t-227 -68.5q-140 0 -212.5 91t-72.5 269v686h174v-663q0 -129 47.5 -183.5t140.5 -54.5q117 0 203.5 94.5t110.5 227.5v579h174zM365 1282q0 77 47.5 120.5t132.5 43.5q83 0 129.5 -43.5t46.5 -120.5t-46.5 -120.5
t-129.5 -43.5q-85 0 -132.5 43.5t-47.5 120.5zM467 1282q0 -37 20 -58.5t58 -21.5q35 0 54 21.5t19 58.5q0 38 -19 59t-54 21q-78 0 -78 -80z" />
    <glyph glyph-name="Uhungarumlaut" unicode="&#x170;" horiz-adv-x="1429" 
d="M717 -16q-274 0 -426 147.5t-152 411.5v891h183v-889q0 -197 103 -301.5t292 -104.5q190 0 293.5 104.5t103.5 301.5v889h178v-891q0 -264 -151.5 -411.5t-423.5 -147.5zM530 1552l127 244h168l-159 -244h-136zM799 1552l153 244h170l-186 -244h-137z" />
    <glyph glyph-name="uhungarumlaut" unicode="&#x171;" horiz-adv-x="1105" 
d="M975 1032v-1032h-174v236q-63 -113 -164 -181.5t-227 -68.5q-140 0 -212.5 91t-72.5 269v686h174v-663q0 -129 47.5 -183.5t140.5 -54.5q117 0 203.5 94.5t110.5 227.5v579h174zM348 1151l127 244h168l-160 -244h-135zM616 1151l154 244h170l-186 -244h-138z" />
    <glyph glyph-name="Uogonek" unicode="&#x172;" horiz-adv-x="1429" 
d="M717 -16q-274 0 -426 147.5t-152 411.5v891h183v-889q0 -197 103 -301.5t292 -104.5q190 0 293.5 104.5t103.5 301.5v889h178v-891q0 -176 -68 -301.5t-196 -190.5q-88 -88 -88 -164q0 -45 27.5 -72.5t70.5 -27.5q32 0 66 12l51 -106q-52 -41 -129 -41q-87 0 -145 51.5
t-58 138.5q0 83 51 156q-69 -14 -157 -14z" />
    <glyph glyph-name="uogonek" unicode="&#x173;" horiz-adv-x="1105" 
d="M975 1032v-1032h-64q-90 -90 -90 -166q0 -45 28 -72.5t71 -27.5q30 0 65 12l51 -106q-52 -41 -129 -41q-87 0 -144.5 51.5t-57.5 138.5q0 61 23 108t71 103h2v236q-63 -113 -164 -181.5t-227 -68.5q-140 0 -212.5 91t-72.5 269v686h174v-663q0 -129 47.5 -183.5
t140.5 -54.5q117 0 203.5 94.5t110.5 227.5v579h174z" />
    <glyph glyph-name="Wcircumflex" unicode="&#x174;" horiz-adv-x="1910" 
d="M406 0l-377 1434h176l313 -1182l359 1182h174l358 -1172l299 1172h174l-362 -1434h-189l-370 1198l-365 -1198h-190zM678 1552l205 244h153l205 -244h-166l-114 160l-119 -160h-164z" />
    <glyph glyph-name="wcircumflex" unicode="&#x175;" horiz-adv-x="1435" 
d="M309 0l-291 1032h164l221 -788l242 788h156l231 -784l225 784h160l-295 -1032h-159l-246 821l-250 -821h-158zM436 1151l205 244h154l204 -244h-165l-115 160l-119 -160h-164z" />
    <glyph glyph-name="Ycircumflex" unicode="&#x176;" horiz-adv-x="1161" 
d="M489 659l-483 775h191l387 -623l389 623h182l-483 -775v-659h-183v659zM301 1552l205 244h153l205 -244h-166l-114 160l-119 -160h-164z" />
    <glyph glyph-name="ycircumflex" unicode="&#x177;" horiz-adv-x="980" 
d="M106 -410v148h95q44 0 74 9.5t51.5 32t34.5 47.5t30 69l35 92l-418 1044h168l330 -825l303 825h162l-416 -1130q-33 -89 -60.5 -141.5t-67.5 -94.5t-93.5 -59t-130.5 -17h-97zM229 1151l205 244h154l205 -244h-166l-115 160l-119 -160h-164z" />
    <glyph glyph-name="Ydieresis" unicode="&#x178;" horiz-adv-x="1161" 
d="M489 659l-483 775h191l387 -623l389 623h182l-483 -775v-659h-183v659zM356 1577v207h146v-207h-146zM653 1577v207h146v-207h-146z" />
    <glyph glyph-name="Zacute" unicode="&#x179;" horiz-adv-x="1177" 
d="M41 147l877 1139h-867v148h1073v-148l-872 -1139h885v-147h-1096v147zM498 1552l112 244h185l-146 -244h-151z" />
    <glyph glyph-name="zacute" unicode="&#x17a;" horiz-adv-x="868" 
d="M37 0v139l577 750h-561v143h766v-139l-579 -752h589v-141h-792zM354 1151l113 244h184l-145 -244h-152z" />
    <glyph glyph-name="Zdotaccent" unicode="&#x17b;" horiz-adv-x="1177" 
d="M41 147l877 1139h-867v148h1073v-148l-872 -1139h885v-147h-1096v147zM502 1579v207h184v-207h-184z" />
    <glyph glyph-name="zdotaccent" unicode="&#x17c;" horiz-adv-x="868" 
d="M37 0v139l577 750h-561v143h766v-139l-579 -752h589v-141h-792zM358 1176v206h185v-206h-185z" />
    <glyph glyph-name="Zcaron" unicode="&#x17d;" horiz-adv-x="1177" 
d="M41 147l877 1139h-867v148h1073v-148l-872 -1139h885v-147h-1096v147zM309 1796h166l115 -160l121 160h161l-204 -244h-154z" />
    <glyph glyph-name="zcaron" unicode="&#x17e;" horiz-adv-x="868" 
d="M37 0v139l577 750h-561v143h766v-139l-579 -752h589v-141h-792zM166 1395h166l114 -160l121 160h162l-205 -244h-153z" />
    <glyph glyph-name="florin" unicode="&#x192;" horiz-adv-x="876" 
d="M45 -51q62 0 99 8t60 31.5t33.5 52.5t20.5 84l137 768h-198v139h223l16 86q23 126 61 194t115.5 102t212.5 34v-150q-50 0 -83 -6.5t-54.5 -17.5t-35.5 -34.5t-22 -48.5t-16 -69l-16 -90h197v-139h-222l-137 -764q-16 -94 -40.5 -153.5t-69 -101t-112 -58.5t-169.5 -17
v150z" />
    <glyph glyph-name="uni0218" unicode="&#x218;" horiz-adv-x="1169" 
d="M616 -12q-218 0 -375 116t-194 304l170 43q31 -143 138.5 -229.5t262.5 -86.5q135 0 222.5 65t87.5 183q0 44 -13 78.5t-32.5 58t-55.5 44.5t-67.5 34t-83.5 31l-223 73q-70 23 -120 45.5t-96.5 54t-75 68t-45 87t-16.5 112.5q0 168 129.5 273.5t343.5 105.5
q207 0 340 -98.5t183 -251.5l-174 -39q-36 104 -126 172.5t-233 68.5q-128 0 -206 -58.5t-78 -158.5q0 -90 57.5 -138t183.5 -89l230 -78q84 -29 141 -57.5t110 -73t79 -107.5t26 -147q0 -181 -130.5 -293t-359.5 -112zM530 -467v86q57 0 71.5 20t14.5 76h-81v187h163v-187
q0 -99 -42 -140.5t-126 -41.5z" />
    <glyph glyph-name="uni0219" unicode="&#x219;" horiz-adv-x="940" 
d="M498 -14q-188 0 -303.5 86t-153.5 221l162 41q71 -215 299 -215q107 0 166 44.5t59 123.5q0 66 -46.5 102.5t-143.5 61.5l-166 41q-72 17 -122 37t-90.5 50.5t-60.5 74t-20 102.5q0 132 102.5 211.5t270.5 79.5q169 0 278.5 -74t149.5 -199l-164 -39q-29 83 -96 130.5
t-173 47.5q-94 0 -151 -40t-57 -109q0 -61 43.5 -94t124.5 -52l188 -45q147 -34 220 -99.5t73 -178.5q0 -139 -102 -224t-287 -85zM393 -467v86q57 0 71.5 20t14.5 76h-82v187h164v-187q0 -99 -42 -140.5t-126 -41.5z" />
    <glyph glyph-name="uni021A" unicode="&#x21a;" horiz-adv-x="1169" 
d="M494 0v1286h-461v148h1104v-148h-461v-1286h-182zM500 -467v86q57 0 71.5 20t14.5 76h-82v187h164v-187q0 -99 -42 -140.5t-126 -41.5z" />
    <glyph glyph-name="uni021B" unicode="&#x21b;" horiz-adv-x="610" 
d="M444 0q-137 0 -213.5 74.5t-76.5 210.5v604h-129v143h129v207l174 76v-283h245v-143h-245v-598q0 -68 35 -106t96 -38h114v-147h-129zM342 -467v86q57 0 71.5 20t14.5 76h-82v187h164v-187q0 -99 -42 -140.5t-126 -41.5z" />
    <glyph glyph-name="uni0237" unicode="&#x237;" horiz-adv-x="442" 
d="M-63 -410v148h67q72 0 101.5 34t29.5 109v1151h176v-1157q0 -285 -291 -285h-83z" />
    <glyph glyph-name="circumflex" unicode="&#x2c6;" horiz-adv-x="706" 
d="M72 1151l204 244h154l205 -244h-166l-115 160l-118 -160h-164z" />
    <glyph glyph-name="caron" unicode="&#x2c7;" horiz-adv-x="714" 
d="M264 1151l-205 244h166l115 -160l121 160h162l-205 -244h-154z" />
    <glyph glyph-name="breve" unicode="&#x2d8;" horiz-adv-x="624" 
d="M311 1122q-117 0 -190.5 75t-73.5 198h127q0 -73 37.5 -116.5t99.5 -43.5q63 0 101.5 43.5t38.5 116.5h127q0 -123 -74 -198t-193 -75z" />
    <glyph glyph-name="dotaccent" unicode="&#x2d9;" horiz-adv-x="292" 
d="M55 1176v206h185v-206h-185z" />
    <glyph glyph-name="ring" unicode="&#x2da;" horiz-adv-x="452" 
d="M219 1118q-85 0 -132.5 43.5t-47.5 120.5t47.5 120.5t132.5 43.5q83 0 129.5 -43.5t46.5 -120.5t-46.5 -120.5t-129.5 -43.5zM141 1282q0 -37 20 -58.5t58 -21.5q35 0 54.5 21.5t19.5 58.5q0 38 -19.5 59t-54.5 21q-78 0 -78 -80z" />
    <glyph glyph-name="ogonek" unicode="&#x2db;" horiz-adv-x="417" 
d="M242 -389q-87 0 -145 51.5t-58 138.5q0 61 23 108t71 103h113q-90 -90 -90 -166q0 -45 27.5 -72.5t70.5 -27.5q30 0 65 12l52 -106q-52 -41 -129 -41z" />
    <glyph glyph-name="tilde" unicode="&#x2dc;" horiz-adv-x="806" 
d="M88 1188q10 90 52 138t110 48q40 0 76 -15.5t59 -34.5t53 -34.5t60 -15.5q61 0 67 96l111 -33q-5 -88 -44 -136t-110 -48q-39 0 -76 16t-60 35t-52 35t-55 16q-60 0 -80 -100z" />
    <glyph glyph-name="hungarumlaut" unicode="&#x2dd;" horiz-adv-x="616" 
d="M53 1151l127 244h168l-160 -244h-135zM322 1151l153 244h170l-186 -244h-137z" />
    <glyph glyph-name="gravecomb" unicode="&#x300;" 
d="M205 1151l-146 244h183l114 -244h-151z" />
    <glyph glyph-name="acutecomb" unicode="&#x301;" 
d="M41 1151l113 244h184l-145 -244h-152z" />
    <glyph glyph-name="uni0302" unicode="&#x302;" 
d="M72 1151l204 244h154l205 -244h-166l-115 160l-118 -160h-164z" />
    <glyph glyph-name="tildecomb" unicode="&#x303;" 
d="M88 1188q10 90 52 138t110 48q40 0 76 -15.5t59 -34.5t53 -34.5t60 -15.5q61 0 67 96l111 -33q-5 -88 -44 -136t-110 -48q-39 0 -76 16t-60 35t-52 35t-55 16q-60 0 -80 -100z" />
    <glyph glyph-name="uni0304" unicode="&#x304;" 
d="M43 1311h496v-117h-496v117z" />
    <glyph glyph-name="uni0306" unicode="&#x306;" 
d="M311 1122q-117 0 -190.5 75t-73.5 198h127q0 -73 37.5 -116.5t99.5 -43.5q63 0 101.5 43.5t38.5 116.5h127q0 -123 -74 -198t-193 -75z" />
    <glyph glyph-name="uni0307" unicode="&#x307;" 
d="M55 1176v206h185v-206h-185z" />
    <glyph glyph-name="uni0308" unicode="&#x308;" 
d="M51 1176v206h146v-206h-146zM348 1176v206h146v-206h-146z" />
    <glyph glyph-name="uni030A" unicode="&#x30a;" 
d="M219 1118q-85 0 -132.5 43.5t-47.5 120.5t47.5 120.5t132.5 43.5q83 0 129.5 -43.5t46.5 -120.5t-46.5 -120.5t-129.5 -43.5zM141 1282q0 -37 20 -58.5t58 -21.5q35 0 54.5 21.5t19.5 58.5q0 38 -19.5 59t-54.5 21q-78 0 -78 -80z" />
    <glyph glyph-name="uni030B" unicode="&#x30b;" 
d="M53 1151l127 244h168l-160 -244h-135zM322 1151l153 244h170l-186 -244h-137z" />
    <glyph glyph-name="uni030C" unicode="&#x30c;" 
d="M264 1151l-205 244h166l115 -160l121 160h162l-205 -244h-154z" />
    <glyph glyph-name="uni0312" unicode="&#x312;" 
d="M49 1337q0 99 41.5 141t126.5 42v-88q-59 0 -73.5 -20t-14.5 -75h84v-186h-164v186z" />
    <glyph glyph-name="uni0326" unicode="&#x326;" 
d="M119 -381q57 0 71.5 20t14.5 76h-82v187h164v-187q0 -99 -42 -140.5t-126 -41.5v86z" />
    <glyph glyph-name="uni0327" unicode="&#x327;" 
d="M233 -410q-119 0 -208 99l65 69q69 -69 141 -69q36 0 59 19.5t23 53.5q0 42 -49 67.5t-135 25.5v55l90 117l86 -17l-55 -102q75 -7 127.5 -48t52.5 -114q0 -68 -58 -112t-139 -44z" />
    <glyph glyph-name="uni0328" unicode="&#x328;" 
d="M242 -389q-87 0 -145 51.5t-58 138.5q0 61 23 108t71 103h113q-90 -90 -90 -166q0 -45 27.5 -72.5t70.5 -27.5q30 0 65 12l52 -106q-52 -41 -129 -41z" />
    <glyph glyph-name="uni0335" unicode="&#x335;" 
d="M109 618v127h737v-127h-737z" />
    <glyph glyph-name="uni0336" unicode="&#x336;" 
d="M41 618v127h956v-127h-956z" />
    <glyph glyph-name="uni0337" unicode="&#x337;" 
d="M98 0l-67 68l958 964l68 -67z" />
    <glyph glyph-name="uni0338" unicode="&#x338;" 
d="M121 27l-68 71l1297 1299l65 -74z" />
    <glyph glyph-name="uni0394" unicode="&#x394;" horiz-adv-x="1288" 
d="M16 0l527 1434h202l527 -1434h-1256zM246 147h776l-387 1070z" />
    <glyph glyph-name="uni03A9" unicode="&#x3a9;" horiz-adv-x="1554" 
d="M858 145q193 69 307.5 226.5t114.5 390.5q0 239 -136.5 384.5t-365.5 145.5q-231 0 -367.5 -146t-136.5 -388q0 -223 114 -379t306 -234v-145h-602v145h440q-205 87 -325.5 248.5t-120.5 378.5q0 303 187.5 489.5t502.5 186.5q317 0 504.5 -186.5t187.5 -489.5
q0 -224 -120.5 -386.5t-321.5 -240.5h436v-145h-604v145z" />
    <glyph glyph-name="uni03BC" unicode="&#x3bc;" horiz-adv-x="1112" 
d="M983 1032v-1032h-176v272q-46 -129 -127 -207.5t-191 -78.5q-120 0 -184 94v-490h-174v1442h174v-672q0 -123 53 -181t142 -58q93 0 164.5 65t107 164t35.5 211v471h176z" />
    <glyph glyph-name="pi" unicode="&#x3c0;" horiz-adv-x="1085" 
d="M874 299q0 -76 33 -112.5t105 -36.5h20v-150h-20q-175 0 -244.5 68t-69.5 231v592h-319l-80 -891h-174l78 891h-146v141h973v-141h-156v-592z" />
    <glyph glyph-name="uni0400" unicode="&#x400;" horiz-adv-x="1067" 
d="M147 0v1434h869v-148h-686v-469h577v-147h-577v-523h686v-147h-869zM406 1796h182l114 -244h-151z" />
    <glyph glyph-name="uni0401" unicode="&#x401;" horiz-adv-x="1067" 
d="M147 0v1434h869v-148h-686v-469h577v-147h-577v-523h686v-147h-869zM377 1577v207h145v-207h-145zM674 1577v207h145v-207h-145z" />
    <glyph glyph-name="uni0402" unicode="&#x402;" horiz-adv-x="1441" 
d="M760 -233q99 -39 190 -39q100 0 147.5 48t47.5 163v548q0 143 -72 214t-205 71q-97 0 -194 -35.5t-176 -95.5v-641h-181v1286h-284v148h991v-148h-526v-504q87 63 192.5 100.5t208.5 37.5q201 0 314.5 -106.5t113.5 -311.5v-565q0 -194 -97 -277.5t-274 -83.5
q-112 0 -196 35v156z" />
    <glyph glyph-name="uni0403" unicode="&#x403;" horiz-adv-x="1048" 
d="M147 0v1434h869v-148h-686v-1286h-183zM500 1554l112 244h185l-146 -244h-151z" />
    <glyph glyph-name="uni0404" unicode="&#x404;" horiz-adv-x="1382" 
d="M723 -14q-199 0 -347 91.5t-226 257t-78 382.5q0 215 81.5 381t231.5 258t346 92q220 0 379 -125t215 -334l-176 -43q-42 158 -155 252t-269 94q-199 0 -321.5 -134.5t-141.5 -362.5h633v-148h-633q19 -232 141.5 -369t321.5 -137q172 0 285 89t147 247l174 -43
q-56 -205 -213.5 -326.5t-394.5 -121.5z" />
    <glyph glyph-name="uni0405" unicode="&#x405;" horiz-adv-x="1169" 
d="M616 -12q-218 0 -375 116t-194 304l170 43q31 -143 138.5 -229.5t262.5 -86.5q135 0 222.5 65t87.5 183q0 44 -13 78.5t-32.5 58t-55.5 44.5t-67.5 34t-83.5 31l-223 73q-70 23 -120 45.5t-96.5 54t-75 68t-45 87t-16.5 112.5q0 168 129.5 273.5t343.5 105.5
q207 0 340 -98.5t183 -251.5l-174 -39q-36 104 -126 172.5t-233 68.5q-128 0 -206 -58.5t-78 -158.5q0 -90 57.5 -138t183.5 -89l230 -78q84 -29 141 -57.5t110 -73t79 -107.5t26 -147q0 -181 -130.5 -293t-359.5 -112z" />
    <glyph glyph-name="uni0406" unicode="&#x406;" horiz-adv-x="477" 
d="M147 0v1434h183v-1434h-183z" />
    <glyph glyph-name="uni0407" unicode="&#x407;" horiz-adv-x="477" 
d="M147 0v1434h183v-1434h-183zM8 1577v207h146v-207h-146zM305 1577v207h146v-207h-146z" />
    <glyph glyph-name="uni0408" unicode="&#x408;" horiz-adv-x="1089" 
d="M520 -14q-204 0 -333 112t-146 305l166 39q6 -140 86 -220.5t213 -80.5q125 0 193.5 78.5t68.5 224.5v990h182v-1004q0 -210 -115 -327t-315 -117z" />
    <glyph glyph-name="uni0409" unicode="&#x409;" horiz-adv-x="1957" 
d="M125 -14q-66 0 -111 18v148q45 -15 88 -15q60 0 91 43.5t34 138.5l47 1115h861v-557h297q219 0 347 -119t128 -322q0 -200 -132 -318t-356 -118h-467v1286h-501l-41 -977q-9 -176 -80 -249.5t-205 -73.5zM1135 147h276q141 0 224 79t83 214q0 133 -79 211t-214 78h-290
v-582z" />
    <glyph glyph-name="uni040A" unicode="&#x40a;" horiz-adv-x="2015" 
d="M1012 0v707h-682v-707h-183v1434h183v-580h682v580h180v-578h299q219 0 346 -115t127 -315q0 -198 -131 -312t-356 -114h-465zM1192 147h278q141 0 223.5 75.5t82.5 207.5q0 131 -78.5 205t-214.5 74h-291v-562z" />
    <glyph glyph-name="uni040B" unicode="&#x40b;" horiz-adv-x="1486" 
d="M33 1286v148h991v-148h-479v-504q87 63 192.5 100.5t208.5 37.5q200 0 313 -106.5t113 -311.5v-502h-182v487q0 144 -71 214.5t-206 70.5q-97 0 -193 -35.5t-175 -95.5v-641h-183v1286h-329z" />
    <glyph glyph-name="uni040C" unicode="&#x40c;" horiz-adv-x="1265" 
d="M1032 0l-448 633h-254v-633h-183v1434h183v-654h256l440 654h199l-490 -721l508 -713h-211zM553 1552l113 244h184l-145 -244h-152z" />
    <glyph glyph-name="uni040D" unicode="&#x40d;" horiz-adv-x="1404" 
d="M1075 0v1171l-745 -1171h-183v1434h183v-1174l745 1174h182v-1434h-182zM524 1796h183l114 -244h-151z" />
    <glyph glyph-name="uni040E" unicode="&#x40e;" horiz-adv-x="1150" 
d="M307 -14q-59 0 -122 9.5t-93 24.5v166q87 -34 199 -34q76 0 134.5 41t90.5 120l-510 1121h191l403 -914l369 914h176l-461 -1141q-62 -151 -149 -229t-228 -78zM334 1804h127q0 -73 37.5 -116t99.5 -43q63 0 101 43t38 116h127q0 -123 -73.5 -197.5t-192.5 -74.5
q-118 0 -191 75t-73 197z" />
    <glyph glyph-name="uni040F" unicode="&#x40f;" horiz-adv-x="1337" 
d="M586 -246v246h-439v1434h183v-1287h678v1287h182v-1434h-453v-246h-151z" />
    <glyph glyph-name="uni0410" unicode="&#x410;" horiz-adv-x="1325" 
d="M776 1434l533 -1434h-183l-139 381h-653l-141 -381h-177l537 1434h223zM387 528h547l-272 744z" />
    <glyph glyph-name="uni0411" unicode="&#x411;" horiz-adv-x="1202" 
d="M147 0v1434h914v-148h-731v-426h346q228 0 351.5 -120t123.5 -310q0 -196 -129 -313t-358 -117h-517zM330 147h325q141 0 224.5 76.5t83.5 208.5q0 130 -79 205.5t-216 75.5h-338v-566z" />
    <glyph glyph-name="uni0412" unicode="&#x412;" horiz-adv-x="1232" 
d="M147 0v1434h494q224 0 335 -92.5t111 -258.5q0 -110 -64.5 -200.5t-170.5 -120.5q141 -24 229 -117t88 -237q0 -194 -134.5 -301t-393.5 -107h-494zM330 147h319q168 0 250 69t82 198q0 122 -87 190t-232 68h-332v-525zM330 815h315q127 0 194.5 64.5t67.5 175.5
q0 231 -274 231h-303v-471z" />
    <glyph glyph-name="uni0413" unicode="&#x413;" horiz-adv-x="1048" 
d="M147 0v1434h869v-148h-686v-1286h-183z" />
    <glyph glyph-name="uni0414" unicode="&#x414;" horiz-adv-x="1398" 
d="M100 147q62 0 99.5 44.5t40.5 138.5l41 1104h911v-1287h143v-393h-149v246h-1022v-246h-152v393h88zM356 147h654v1139h-555l-37 -948q-6 -129 -62 -191z" />
    <glyph glyph-name="uni0415" unicode="&#x415;" horiz-adv-x="1067" 
d="M147 0v1434h869v-148h-686v-469h577v-147h-577v-523h686v-147h-869z" />
    <glyph glyph-name="uni0416" unicode="&#x416;" horiz-adv-x="1888" 
d="M1653 0l-383 633h-238v-633h-182v633h-236l-383 -633h-211l443 713l-418 721h197l372 -654h236v654h182v-654h238l372 654h197l-418 -721l443 -713h-211z" />
    <glyph glyph-name="uni0417" unicode="&#x417;" horiz-adv-x="1189" 
d="M600 -14q-230 0 -374 97.5t-187 278.5l174 44q84 -265 391 -265q158 0 246 68.5t88 196.5q0 122 -86.5 190t-263.5 68h-195l27 143h176q142 0 226.5 61t84.5 183q0 109 -89 175t-230 66q-144 0 -236.5 -64t-115.5 -179l-170 43q29 158 176.5 257t355.5 99
q224 0 360 -101.5t136 -271.5q0 -126 -78 -207.5t-211 -115.5q146 -27 233.5 -120.5t87.5 -230.5q0 -192 -138 -303.5t-388 -111.5z" />
    <glyph glyph-name="uni0418" unicode="&#x418;" horiz-adv-x="1404" 
d="M1075 0v1171l-745 -1171h-183v1434h183v-1174l745 1174h182v-1434h-182z" />
    <glyph glyph-name="uni0419" unicode="&#x419;" horiz-adv-x="1404" 
d="M1075 0v1171l-745 -1171h-183v1434h183v-1174l745 1174h182v-1434h-182zM459 1804h127q0 -73 37.5 -116t99.5 -43q63 0 101 43t38 116h127q0 -123 -73.5 -197.5t-192.5 -74.5q-118 0 -191 75t-73 197z" />
    <glyph glyph-name="uni041A" unicode="&#x41a;" horiz-adv-x="1265" 
d="M1032 0l-448 633h-254v-633h-183v1434h183v-654h256l440 654h199l-490 -721l508 -713h-211z" />
    <glyph glyph-name="uni041B" unicode="&#x41b;" horiz-adv-x="1335" 
d="M125 -14q-66 0 -111 18v148q45 -15 88 -15q58 0 84 42.5t29 139.5l47 1115h926v-1434h-180v1286h-570l-45 -997q-14 -303 -268 -303z" />
    <glyph glyph-name="uni041C" unicode="&#x41c;" horiz-adv-x="1736" 
d="M788 0l-466 1155v-1155h-175v1434h238l487 -1207l480 1207h237v-1434h-174v1174l-467 -1174h-160z" />
    <glyph glyph-name="uni041D" unicode="&#x41d;" horiz-adv-x="1384" 
d="M1055 0v664h-725v-664h-183v1434h183v-623h725v623h182v-1434h-182z" />
    <glyph glyph-name="uni041E" unicode="&#x41e;" horiz-adv-x="1476" 
d="M739 -14q-304 0 -485.5 199t-181.5 532t181.5 532t485.5 199q303 0 484.5 -199t181.5 -532t-181.5 -532t-484.5 -199zM260 717q0 -260 131.5 -418t347.5 -158t347 157.5t131 418.5t-131 418t-347 157t-347.5 -157.5t-131.5 -417.5z" />
    <glyph glyph-name="uni041F" unicode="&#x41f;" horiz-adv-x="1337" 
d="M1008 0v1286h-678v-1286h-183v1434h1043v-1434h-182z" />
    <glyph glyph-name="uni0420" unicode="&#x420;" horiz-adv-x="1163" 
d="M147 0v1434h443q244 0 386 -122t142 -329q0 -210 -138.5 -332.5t-375.5 -122.5h-274v-528h-183zM330 676h252q161 0 255.5 82t94.5 223t-94.5 223t-255.5 82h-252v-610z" />
    <glyph glyph-name="uni0421" unicode="&#x421;" horiz-adv-x="1406" 
d="M762 -14q-210 0 -367 91.5t-240 257t-83 382.5q0 215 85 381t239.5 258t353.5 92q229 0 388 -127.5t214 -345.5l-176 -43q-42 166 -154.5 263t-273.5 97q-220 0 -354 -157t-134 -412q0 -262 135.5 -422t366.5 -160q159 0 271.5 93.5t150.5 259.5l174 -45
q-55 -208 -213.5 -335.5t-382.5 -127.5z" />
    <glyph glyph-name="uni0422" unicode="&#x422;" horiz-adv-x="1169" 
d="M494 0v1286h-461v148h1104v-148h-461v-1286h-182z" />
    <glyph glyph-name="uni0423" unicode="&#x423;" horiz-adv-x="1150" 
d="M307 -14q-59 0 -122 9.5t-93 24.5v166q87 -34 199 -34q76 0 134.5 41t90.5 120l-510 1121h191l403 -914l369 914h176l-461 -1141q-62 -151 -149 -229t-228 -78z" />
    <glyph glyph-name="uni0424" unicode="&#x424;" horiz-adv-x="1554" 
d="M688 -41v246q-290 22 -453 170t-163 387t163 387t453 170v246h178v-248q290 -20 452.5 -168.5t162.5 -386.5t-162.5 -386.5t-452.5 -168.5v-248h-178zM260 762q0 -170 113.5 -279t314.5 -129v815q-201 -20 -314.5 -128.5t-113.5 -278.5zM866 354q202 22 314 130t112 278
q0 169 -112 277t-314 130v-815z" />
    <glyph glyph-name="uni0425" unicode="&#x425;" horiz-adv-x="1210" 
d="M987 0l-385 584l-391 -584h-191l488 727l-465 707h199l374 -570l369 570h191l-463 -715l473 -719h-199z" />
    <glyph glyph-name="uni0426" unicode="&#x426;" horiz-adv-x="1386" 
d="M330 1434v-1287h678v1287h182v-1287h135v-393h-151v246h-1027v1434h183z" />
    <glyph glyph-name="uni0427" unicode="&#x427;" horiz-adv-x="1271" 
d="M516 500q-200 0 -319 110t-119 305v519h180v-502q0 -135 78.5 -210t210.5 -75q95 0 201 37t196 96v654h180v-1434h-180v637q-95 -60 -207.5 -98.5t-220.5 -38.5z" />
    <glyph glyph-name="uni0428" unicode="&#x428;" horiz-adv-x="1880" 
d="M147 0v1434h179v-1287h526v1287h178v-1287h524v1287h179v-1434h-1586z" />
    <glyph glyph-name="uni0429" unicode="&#x429;" horiz-adv-x="1945" 
d="M147 0v1434h179v-1287h526v1287h178v-1287h524v1287h179v-1287h151v-393h-151v246h-1586z" />
    <glyph glyph-name="uni042A" unicode="&#x42a;" horiz-adv-x="1384" 
d="M33 1286v148h499v-557h328q218 0 346.5 -119t128.5 -322q0 -200 -131.5 -318t-355.5 -118h-496v1286h-319zM532 147h308q141 0 224 79t83 214q0 133 -80 211t-215 78h-320v-582z" />
    <glyph glyph-name="uni042B" unicode="&#x42b;" horiz-adv-x="1665" 
d="M147 0v1434h183v-557h293q218 0 346.5 -119t128.5 -322q0 -200 -132 -318t-356 -118h-463zM330 147h272q141 0 224 79t83 214q0 134 -79.5 211.5t-215.5 77.5h-284v-582zM1337 0v1434h183v-1434h-183z" />
    <glyph glyph-name="uni042C" unicode="&#x42c;" horiz-adv-x="1220" 
d="M147 0v1434h183v-557h364q218 0 346.5 -119t128.5 -322q0 -200 -131.5 -318t-355.5 -118h-535zM330 147h344q141 0 224 79t83 214q0 134 -79.5 211.5t-215.5 77.5h-356v-582z" />
    <glyph glyph-name="uni042D" unicode="&#x42d;" horiz-adv-x="1382" 
d="M668 -14q-240 0 -401.5 122t-215.5 326l172 43q46 -156 159.5 -246t283.5 -90q199 0 318 134t136 372h-633v148h633q-19 231 -141.5 364t-321.5 133q-157 0 -269.5 -94t-154.5 -252l-178 43q56 209 219 334t385 125q196 0 344 -92t227 -257.5t79 -381.5q0 -331 -172 -531
t-469 -200z" />
    <glyph glyph-name="uni042E" unicode="&#x42e;" horiz-adv-x="1851" 
d="M1155 -14q-268 0 -438 177.5t-187 487.5h-200v-651h-183v1434h183v-635h200q22 303 191 476t434 173q282 0 453.5 -196t171.5 -535t-171.5 -535t-453.5 -196zM717 717q0 -265 122 -420.5t316 -155.5q193 0 314.5 155.5t121.5 420.5t-121.5 420t-314.5 155
q-194 0 -316 -155t-122 -420z" />
    <glyph glyph-name="uni042F" unicode="&#x42f;" horiz-adv-x="1286" 
d="M145 -14q-73 0 -118 18v148q45 -15 79 -15q45 0 66.5 34t26.5 108q9 188 67.5 283.5t177.5 123.5q-139 19 -223 107t-84 231q0 196 125.5 303t351.5 107h525v-1434h-183v596h-342q-132 0 -180 -68t-59 -243q-6 -157 -62 -228t-168 -71zM324 1014q0 -130 72 -200.5
t202 -70.5h358v543h-333q-148 0 -223.5 -69t-75.5 -203z" />
    <glyph glyph-name="uni0430" unicode="&#x430;" horiz-adv-x="1036" 
d="M748 686q0 103 -58 161t-170 58q-206 0 -274 -188l-160 41q42 128 158 208.5t286 80.5q189 0 291.5 -94t102.5 -269v-684h-176v195q-58 -98 -159.5 -153.5t-219.5 -55.5q-138 0 -229 72t-91 198q0 78 30 135.5t88 93t132 55t172 27.5q137 12 202 32t75 67v20zM236 279
q0 -82 58 -123t144 -41q117 0 207 79t103 218v125q-63 -72 -230 -88q-73 -6 -119 -14.5t-86 -26.5t-58.5 -49.5t-18.5 -79.5z" />
    <glyph glyph-name="uni0431" unicode="&#x431;" horiz-adv-x="1083" 
d="M535 -12q-98 0 -184 37t-150.5 106t-102 176.5t-37.5 239.5q0 338 114 529.5t335 228.5l264 49q54 12 71 23.5t17 35.5v21h150v-31q0 -89 -33 -127t-133 -53l-332 -62q-126 -24 -201.5 -131t-101.5 -272q63 104 166 160.5t219 56.5q86 0 163.5 -32.5t137.5 -92
t95.5 -150.5t35.5 -200q0 -224 -138 -368t-355 -144zM229 477q0 -156 85 -253t223 -97q129 0 216 100t87 258q0 155 -84 253t-209 98q-144 0 -231 -99t-87 -260z" />
    <glyph glyph-name="uni0432" unicode="&#x432;" horiz-adv-x="1034" 
d="M131 0v1032h487q164 0 248 -70t84 -184q0 -94 -61 -159t-168 -84q124 -13 196 -75.5t72 -172.5q0 -135 -94 -211t-260 -76h-504zM305 125h301q97 0 148 45.5t51 124.5q0 75 -53.5 120.5t-151.5 45.5h-295v-336zM305 584h279q84 0 133 45.5t49 118.5t-48.5 116t-142.5 43
h-270v-323z" />
    <glyph glyph-name="uni0433" unicode="&#x433;" horiz-adv-x="839" 
d="M131 0v1032h678v-141h-504v-891h-174z" />
    <glyph glyph-name="uni0434" unicode="&#x434;" horiz-adv-x="1153" 
d="M88 141q56 0 80 36t29 122l41 733h731v-891h131v-387h-144v246h-806v-246h-144v387h82zM322 141h479v750h-406l-37 -627q-7 -83 -36 -123z" />
    <glyph glyph-name="uni0435" unicode="&#x435;" horiz-adv-x="1073" 
d="M557 -14q-224 0 -363 144t-139 386q0 147 59.5 267t173.5 192t263 72q206 0 332.5 -134.5t126.5 -337.5q0 -39 -6 -77h-768q6 -179 97 -277t230 -98q203 0 287 217l160 -39q-42 -135 -158 -225t-295 -90zM246 629h585q-11 122 -87 201t-197 79q-118 0 -197.5 -76
t-103.5 -204z" />
    <glyph glyph-name="uni0436" unicode="&#x436;" horiz-adv-x="1497" 
d="M18 0l308 516l-297 516h184l262 -446h187v446h174v-446h186l262 446h184l-297 -516l308 -516h-185l-268 446h-190v-446h-174v446h-191l-268 -446h-185z" />
    <glyph glyph-name="uni0437" unicode="&#x437;" horiz-adv-x="970" 
d="M510 -14q-185 0 -307.5 84.5t-159.5 218.5l164 45q28 -93 105 -150t196 -57q107 0 172 46.5t65 125.5q0 76 -55.5 118t-154.5 42h-175v125h152q96 0 150.5 40.5t54.5 116.5q0 74 -60 119t-165 45q-109 0 -174 -46t-93 -144l-174 41q40 135 160 213t293 78
q175 0 284 -77.5t109 -203.5q0 -83 -57 -143.5t-144 -75.5q99 -15 164.5 -86.5t65.5 -167.5q0 -139 -116 -223t-300 -84z" />
    <glyph glyph-name="uni0438" unicode="&#x438;" horiz-adv-x="1122" 
d="M305 0h-174v1032h174v-794l512 794h176v-1032h-176v793z" />
    <glyph glyph-name="uni0439" unicode="&#x439;" horiz-adv-x="1122" 
d="M305 0h-174v1032h174v-794l512 794h176v-1032h-176v793zM315 1403h127q0 -73 38 -116.5t100 -43.5q63 0 101 43.5t38 116.5h127q0 -123 -73.5 -198t-192.5 -75q-118 0 -191.5 75.5t-73.5 197.5z" />
    <glyph glyph-name="uni043A" unicode="&#x43a;" horiz-adv-x="1021" 
d="M829 0l-309 446h-215v-446h-174v1032h174v-446h215l301 446h187l-344 -514l354 -518h-189z" />
    <glyph glyph-name="uni043B" unicode="&#x43b;" horiz-adv-x="1097" 
d="M100 -14q-60 0 -100 14v150q50 -13 84 -13q58 0 85.5 37t31.5 125l41 733h725v-1032h-174v891h-394l-34 -592q-9 -168 -75 -240.5t-190 -72.5z" />
    <glyph glyph-name="uni043C" unicode="&#x43c;" horiz-adv-x="1302" 
d="M131 0v1032h141l379 -801l377 801h143v-1032h-165v680l-318 -680h-76l-317 680v-680h-164z" />
    <glyph glyph-name="uni043D" unicode="&#x43d;" horiz-adv-x="1128" 
d="M823 0v453h-518v-453h-174v1032h174v-440h518v440h176v-1032h-176z" />
    <glyph glyph-name="uni043E" unicode="&#x43e;" horiz-adv-x="1114" 
d="M557 -12q-106 0 -198.5 37.5t-159.5 105.5t-105.5 167.5t-38.5 217.5q0 238 142.5 384.5t359.5 146.5t359.5 -146.5t142.5 -384.5q0 -118 -38.5 -217.5t-105.5 -167.5t-159.5 -105.5t-198.5 -37.5zM240 516q0 -184 87 -286.5t230 -102.5q144 0 232 102.5t88 286.5
t-88 286.5t-232 102.5q-143 0 -230 -102.5t-87 -286.5z" />
    <glyph glyph-name="uni043F" unicode="&#x43f;" horiz-adv-x="1114" 
d="M807 0v891h-502v-891h-174v1032h852v-1032h-176z" />
    <glyph glyph-name="uni0440" unicode="&#x440;" horiz-adv-x="1161" 
d="M131 -410v1442h174v-217q53 109 146 170.5t219 61.5q192 0 313 -145t121 -388q0 -239 -124.5 -383.5t-307.5 -144.5q-123 0 -217.5 61t-149.5 172v-629h-174zM305 520q0 -171 90.5 -283t222.5 -112q135 0 219.5 105.5t84.5 283.5q0 180 -82 286.5t-217 106.5
q-140 0 -229 -108.5t-89 -278.5z" />
    <glyph glyph-name="uni0441" unicode="&#x441;" horiz-adv-x="1056" 
d="M563 -14q-105 0 -197.5 37t-161.5 104t-109 167.5t-40 221.5t38.5 221.5t105.5 168t159 104.5t199 37q170 0 289.5 -92t157.5 -240l-173 -43q-27 110 -99.5 171.5t-180.5 61.5q-136 0 -223.5 -106.5t-87.5 -278.5q0 -185 94 -289t235 -104q103 0 175.5 63.5t105.5 171.5
l164 -40q-44 -148 -161 -242t-290 -94z" />
    <glyph glyph-name="uni0442" unicode="&#x442;" horiz-adv-x="839" 
d="M332 0v891h-312v141h799v-141h-311v-891h-176z" />
    <glyph glyph-name="uni0443" unicode="&#x443;" horiz-adv-x="980" 
d="M106 -410v148h95q44 0 74 9.5t51.5 32t34.5 47.5t30 69l35 92l-418 1044h168l330 -825l303 825h162l-416 -1130q-33 -89 -60.5 -141.5t-67.5 -94.5t-93.5 -59t-130.5 -17h-97z" />
    <glyph glyph-name="uni0444" unicode="&#x444;" horiz-adv-x="1329" 
d="M582 -410v402q-244 22 -385.5 160.5t-141.5 363.5t141.5 364.5t385.5 161.5v392h168v-392q242 -22 383 -161.5t141 -364.5t-141 -363.5t-383 -160.5v-402h-168zM231 516q0 -167 92.5 -268t258.5 -123v784q-166 -22 -258.5 -124t-92.5 -269zM750 125q165 22 256.5 123
t91.5 268t-92 269t-256 124v-784z" />
    <glyph glyph-name="uni0445" unicode="&#x445;" horiz-adv-x="948" 
d="M16 0l357 522l-357 510h191l276 -393l269 393h180l-359 -524l357 -508h-191l-274 391l-268 -391h-181z" />
    <glyph glyph-name="uni0446" unicode="&#x446;" horiz-adv-x="1161" 
d="M307 1032l-2 -891h502l2 891h174l-2 -891h127v-387h-143v246h-836l2 1032h176z" />
    <glyph glyph-name="uni0447" unicode="&#x447;" horiz-adv-x="1038" 
d="M379 326q-137 0 -223 90t-86 258v358h174v-342q0 -124 48.5 -177.5t141.5 -53.5q157 0 299 149v424h176v-1032h-176v510q-146 -184 -354 -184z" />
    <glyph glyph-name="uni0448" unicode="&#x448;" horiz-adv-x="1583" 
d="M131 0v1032h170v-891h406v891h172v-891h403v891h172v-1032h-1323z" />
    <glyph glyph-name="uni0449" unicode="&#x449;" horiz-adv-x="1619" 
d="M131 0v1032h170v-891h406v891h172v-891h403v891h172v-891h115v-387h-144v246h-1294z" />
    <glyph glyph-name="uni044A" unicode="&#x44a;" horiz-adv-x="1159" 
d="M270 0v891h-252v141h426v-373h322q159 0 253.5 -89.5t94.5 -239.5q0 -153 -94 -241.5t-254 -88.5h-496zM444 133h287q94 0 146.5 52.5t52.5 144.5q0 89 -54 142.5t-147 53.5h-285v-393z" />
    <glyph glyph-name="uni044B" unicode="&#x44b;" horiz-adv-x="1425" 
d="M131 0v1032h174v-373h301q159 0 253.5 -89.5t94.5 -239.5q0 -153 -94 -241.5t-254 -88.5h-475zM305 133h266q94 0 146.5 52.5t52.5 144.5q0 89 -54 142.5t-147 53.5h-264v-393zM1120 0v1032h174v-1032h-174z" />
    <glyph glyph-name="uni044C" unicode="&#x44c;" horiz-adv-x="1019" 
d="M131 0v1032h174v-373h322q159 0 253.5 -89.5t94.5 -239.5q0 -153 -94 -241.5t-254 -88.5h-496zM305 133h287q94 0 146.5 52.5t52.5 144.5q0 89 -54 142.5t-147 53.5h-285v-393z" />
    <glyph glyph-name="uni044D" unicode="&#x44d;" horiz-adv-x="1056" 
d="M528 -14q-192 0 -317 88.5t-168 238.5l164 45q29 -111 111.5 -171t199.5 -60q59 0 109.5 19.5t91 58.5t67 103.5t33.5 148.5h-416v125h416q-15 157 -95 240t-206 83q-109 0 -185.5 -60.5t-103.5 -162.5l-174 41q39 149 164.5 236.5t292.5 87.5q217 0 353 -144t136 -387
q0 -249 -132.5 -389.5t-340.5 -140.5z" />
    <glyph glyph-name="uni044E" unicode="&#x44e;" horiz-adv-x="1423" 
d="M905 -14q-189 0 -312.5 122.5t-143.5 337.5h-144v-446h-174v1032h174v-452h144q17 216 141.5 341.5t314.5 125.5q205 0 333 -143.5t128 -387.5q0 -245 -127.5 -387.5t-333.5 -142.5zM633 516q0 -181 72.5 -285t199.5 -104q129 0 202 104t73 285t-73 285t-202 104
q-127 0 -199.5 -104t-72.5 -285z" />
    <glyph glyph-name="uni044F" unicode="&#x44f;" horiz-adv-x="1052" 
d="M178 260q7 42 13 65.5t18 53t29 46t45 30.5t67 20q-111 18 -182.5 88t-71.5 176q0 137 97 215t268 78h461v-1032h-177v408h-256q-75 0 -105.5 -41.5t-43.5 -137.5q-20 -131 -62.5 -187t-136.5 -56q-54 0 -94 14v150q37 -13 66 -13q30 0 42 24.5t23 98.5zM281 719
q0 -87 52 -132.5t146 -45.5h266v358h-256q-101 0 -154.5 -48t-53.5 -132z" />
    <glyph glyph-name="uni0450" unicode="&#x450;" horiz-adv-x="1073" 
d="M557 -14q-224 0 -363 144t-139 386q0 147 59.5 267t173.5 192t263 72q206 0 332.5 -134.5t126.5 -337.5q0 -39 -6 -77h-768q6 -179 97 -277t230 -98q203 0 287 217l160 -39q-42 -135 -158 -225t-295 -90zM246 629h585q-11 122 -87 201t-197 79q-118 0 -197.5 -76
t-103.5 -204zM371 1395h182l115 -244h-152z" />
    <glyph glyph-name="uni0451" unicode="&#x451;" horiz-adv-x="1073" 
d="M557 -14q-224 0 -363 144t-139 386q0 147 59.5 267t173.5 192t263 72q206 0 332.5 -134.5t126.5 -337.5q0 -39 -6 -77h-768q6 -179 97 -277t230 -98q203 0 287 217l160 -39q-42 -135 -158 -225t-295 -90zM246 629h585q-11 122 -87 201t-197 79q-118 0 -197.5 -76
t-103.5 -204zM342 1176v206h145v-206h-145zM639 1176v206h145v-206h-145z" />
    <glyph glyph-name="uni0452" unicode="&#x452;" horiz-adv-x="1128" 
d="M594 -410v150h100q70 0 107 44t37 124v756q0 247 -193 247q-69 0 -129.5 -37t-101 -97t-63.5 -134t-23 -149v-494h-176v1184h-132v110h132v140h176v-140h325v-110h-325v-457q54 138 157 229t242 91q141 0 214 -91.5t73 -269.5v-770q0 -326 -320 -326h-100z" />
    <glyph glyph-name="uni0453" unicode="&#x453;" horiz-adv-x="839" 
d="M131 0v1032h678v-141h-504v-891h-174zM416 1151l112 244h185l-146 -244h-151z" />
    <glyph glyph-name="uni0454" unicode="&#x454;" horiz-adv-x="1056" 
d="M559 -14q-107 0 -199 36t-160 102.5t-106.5 167.5t-38.5 224q0 243 142.5 387t365.5 144q163 0 280.5 -87t157.5 -237l-174 -41q-27 104 -99.5 163.5t-180.5 59.5q-124 0 -209 -84t-100 -239h417v-125h-417q18 -161 109 -245.5t220 -84.5q103 0 178.5 60t104.5 169
l164 -43q-42 -148 -163 -237.5t-292 -89.5z" />
    <glyph glyph-name="uni0455" unicode="&#x455;" horiz-adv-x="940" 
d="M498 -14q-188 0 -303.5 86t-153.5 221l162 41q71 -215 299 -215q107 0 166 44.5t59 123.5q0 66 -46.5 102.5t-143.5 61.5l-166 41q-72 17 -122 37t-90.5 50.5t-60.5 74t-20 102.5q0 132 102.5 211.5t270.5 79.5q169 0 278.5 -74t149.5 -199l-164 -39q-29 83 -96 130.5
t-173 47.5q-94 0 -151 -40t-57 -109q0 -61 43.5 -94t124.5 -52l188 -45q147 -34 220 -99.5t73 -178.5q0 -139 -102 -224t-287 -85z" />
    <glyph glyph-name="uni0456" unicode="&#x456;" horiz-adv-x="436" 
d="M131 0v1032h174v-1032h-174zM127 1176v206h184v-206h-184z" />
    <glyph glyph-name="uni0457" unicode="&#x457;" horiz-adv-x="436" 
d="M131 0v1032h174v-1032h-174zM31 1176v206h137v-206h-137zM254 1176v206h137v-206h-137z" />
    <glyph glyph-name="uni0458" unicode="&#x458;" horiz-adv-x="442" 
d="M-63 -410v148h67q72 0 101.5 34t29.5 109v1151h176v-1157q0 -285 -291 -285h-83zM133 1176v206h184v-206h-184z" />
    <glyph glyph-name="uni0459" unicode="&#x459;" horiz-adv-x="1628" 
d="M100 -14q-60 0 -100 14v150q50 -13 84 -13q56 0 81 38t30 124l38 733h701v-373h301q159 0 253.5 -89.5t94.5 -239.5q0 -153 -94 -241.5t-254 -88.5h-475v891h-361l-34 -592q-9 -168 -75 -240.5t-190 -72.5zM934 133h266q94 0 146.5 52.5t52.5 144.5q0 89 -53.5 142.5
t-147.5 53.5h-264v-393z" />
    <glyph glyph-name="uni045A" unicode="&#x45a;" horiz-adv-x="1685" 
d="M817 0v502h-512v-502h-174v1032h174v-397h512v397h174v-397h301q161 0 254.5 -84t93.5 -232q0 -152 -93 -235.5t-255 -83.5h-475zM991 133h264q96 0 148.5 46.5t52.5 137.5q0 88 -54 136.5t-149 48.5h-262v-369z" />
    <glyph glyph-name="uni045B" unicode="&#x45b;" horiz-adv-x="1130" 
d="M154 0v1184h-134v110h134v140h176v-140h323v-110h-323v-383q64 111 164 178.5t225 67.5q140 0 212.5 -91.5t72.5 -269.5v-686h-175v664q0 129 -47.5 183t-140.5 54q-114 0 -198.5 -90.5t-112.5 -220.5v-590h-176z" />
    <glyph glyph-name="uni045C" unicode="&#x45c;" horiz-adv-x="1021" 
d="M829 0l-309 446h-215v-446h-174v1032h174v-446h215l301 446h187l-344 -514l354 -518h-189zM463 1151l112 244h185l-146 -244h-151z" />
    <glyph glyph-name="uni045D" unicode="&#x45d;" horiz-adv-x="1122" 
d="M305 0h-174v1032h174v-794l512 794h176v-1032h-176v793zM381 1395h182l115 -244h-152z" />
    <glyph glyph-name="uni045E" unicode="&#x45e;" horiz-adv-x="980" 
d="M106 -410v148h95q44 0 74 9.5t51.5 32t34.5 47.5t30 69l35 92l-418 1044h168l330 -825l303 825h162l-416 -1130q-33 -89 -60.5 -141.5t-67.5 -94.5t-93.5 -59t-130.5 -17h-97zM248 1403h127q0 -73 37.5 -116.5t99.5 -43.5q63 0 101 43.5t38 116.5h127q0 -123 -73.5 -198
t-192.5 -75q-117 0 -190.5 75t-73.5 198z" />
    <glyph glyph-name="uni045F" unicode="&#x45f;" horiz-adv-x="1114" 
d="M489 -246v246h-360l2 1032h176l-2 -891h502l2 891h174l-2 -1032h-354v-246h-138z" />
    <glyph glyph-name="uni0490" unicode="&#x490;" horiz-adv-x="1048" 
d="M147 0v1434h721v245h148v-393h-686v-1286h-183z" />
    <glyph glyph-name="uni0491" unicode="&#x491;" horiz-adv-x="839" 
d="M131 0v1032h541v238h137v-379h-504v-891h-174z" />
    <glyph glyph-name="uni0492" unicode="&#x492;" horiz-adv-x="1048" 
d="M147 0v655h-133v131h133v648h869v-148h-686v-500h430v-131h-430v-655h-183z" />
    <glyph glyph-name="uni0493" unicode="&#x493;" horiz-adv-x="876" 
d="M170 0v440h-150v123h150v469h678v-141h-504v-328h332v-123h-332v-440h-174z" />
    <glyph glyph-name="uni0496" unicode="&#x496;" horiz-adv-x="1888" 
d="M1653 0l-383 633h-238v-633h-182v633h-236l-383 -633h-211l443 713l-418 721h197l372 -654h236v654h182v-654h238l372 654h197l-418 -721l351 -566h133v-393h-152v246h-100z" />
    <glyph glyph-name="uni0497" unicode="&#x497;" horiz-adv-x="1497" 
d="M18 0l308 516l-297 516h184l262 -446h187v446h174v-446h186l262 446h184l-297 -516l224 -375h125v-387h-144v246h-82l-268 446h-190v-446h-174v446h-191l-268 -446h-185z" />
    <glyph glyph-name="uni049A" unicode="&#x49a;" horiz-adv-x="1265" 
d="M1032 0l-448 633h-254v-633h-183v1434h183v-654h256l440 654h199l-490 -721l404 -566h141v-393h-152v246h-96z" />
    <glyph glyph-name="uni049B" unicode="&#x49b;" horiz-adv-x="1021" 
d="M829 0l-309 446h-215v-446h-174v1032h174v-446h215l301 446h187l-344 -514l258 -377h135v-387h-144v246h-84z" />
    <glyph glyph-name="uni04A2" unicode="&#x4a2;" horiz-adv-x="1419" 
d="M1055 0v664h-725v-664h-183v1434h183v-623h725v623h182v-1287h121v-393h-152v246h-151z" />
    <glyph glyph-name="uni04A3" unicode="&#x4a3;" horiz-adv-x="1177" 
d="M823 0v453h-518v-453h-174v1032h174v-440h518v440h176v-891h125v-387h-143v246h-158z" />
    <glyph glyph-name="uni04AE" unicode="&#x4ae;" horiz-adv-x="1161" 
d="M489 659l-483 775h191l387 -623l389 623h182l-483 -775v-659h-183v659z" />
    <glyph glyph-name="uni04AF" unicode="&#x4af;" horiz-adv-x="933" 
d="M10 1032h193l272 -805l270 805h179l-369 -1026v-416h-176v416z" />
    <glyph glyph-name="uni04B0" unicode="&#x4b0;" horiz-adv-x="1161" 
d="M489 659l-483 775h191l387 -623l389 623h182l-483 -775v-34h315v-131h-315v-494h-183v494h-317v131h317v34z" />
    <glyph glyph-name="uni04B1" unicode="&#x4b1;" horiz-adv-x="927" 
d="M10 1032h193l272 -805l270 805h179l-369 -1026v-72h250v-122h-250v-222h-176v222h-256v122h256v72z" />
    <glyph glyph-name="uni04B2" unicode="&#x4b2;" horiz-adv-x="1210" 
d="M987 0l-385 584l-391 -584h-191l488 727l-465 707h199l374 -570l369 570h191l-463 -715l377 -572h124v-393h-151v246h-76z" />
    <glyph glyph-name="uni04B3" unicode="&#x4b3;" horiz-adv-x="948" 
d="M16 0l357 522l-357 510h191l276 -393l269 393h180l-359 -524l258 -367h154v-387h-143v246h-103l-274 391l-268 -391h-181z" />
    <glyph glyph-name="uni04B6" unicode="&#x4b6;" horiz-adv-x="1314" 
d="M516 500q-200 0 -319 110t-119 305v519h180v-502q0 -135 78.5 -210t210.5 -75q95 0 201 37t196 96v654h180v-1287h129v-393h-151v246h-158v637q-95 -60 -207.5 -98.5t-220.5 -38.5z" />
    <glyph glyph-name="uni04B7" unicode="&#x4b7;" horiz-adv-x="1087" 
d="M379 326q-137 0 -223 90t-86 258v358h174v-342q0 -124 48.5 -177.5t141.5 -53.5q157 0 299 149v424h176v-891h125v-387h-143v246h-158v510q-146 -184 -354 -184z" />
    <glyph glyph-name="uni04BA" unicode="&#x4ba;" horiz-adv-x="1271" 
d="M975 487q0 144 -71 214.5t-206 70.5q-97 0 -193 -35.5t-175 -95.5v-641h-183v1434h183v-652q87 63 192.5 100.5t208.5 37.5q200 0 313 -106.5t113 -311.5v-502h-182v487z" />
    <glyph glyph-name="uni04BB" unicode="&#x4bb;" horiz-adv-x="1105" 
d="M131 0v1434h176v-633q64 111 164 178.5t225 67.5q140 0 212.5 -91.5t72.5 -269.5v-686h-174v664q0 129 -48 183t-141 54q-114 0 -198.5 -90.5t-112.5 -220.5v-590h-176z" />
    <glyph glyph-name="uni04D8" unicode="&#x4d8;" horiz-adv-x="1429" 
d="M719 -14q-292 0 -469.5 183t-177.5 490v86h1097q-6 249 -136 398t-333 149q-173 0 -290 -89.5t-156 -239.5l-176 43q53 203 219 322.5t405 119.5q193 0 342.5 -92t231.5 -258t82 -381q0 -160 -44 -294.5t-125.5 -231.5t-202 -151t-267.5 -54zM260 606q8 -203 129 -334
t336 -131q185 0 299 122.5t139 342.5h-903z" />
    <glyph glyph-name="uni04D9" unicode="&#x4d9;" horiz-adv-x="1073" 
d="M535 -14q-148 0 -256.5 68t-162 180t-53.5 251q0 36 7 80h766q-12 163 -95.5 251.5t-216.5 88.5q-115 0 -188 -59.5t-107 -147.5l-159 41q42 130 161 219t299 89q223 0 355.5 -144t132.5 -393q0 -229 -131 -376.5t-352 -147.5zM242 455q2 -65 21 -122.5t54.5 -104
t92.5 -74t129 -27.5q130 0 207.5 89t89.5 239h-594z" />
    <glyph glyph-name="uni04E2" unicode="&#x4e2;" horiz-adv-x="1404" 
d="M1075 0v1171l-745 -1171h-183v1434h183v-1174l745 1174h182v-1434h-182zM477 1595v117h496v-117h-496z" />
    <glyph glyph-name="uni04E3" unicode="&#x4e3;" horiz-adv-x="1122" 
d="M305 0h-174v1032h174v-794l512 794h176v-1032h-176v793zM332 1194v117h495v-117h-495z" />
    <glyph glyph-name="uni04E8" unicode="&#x4e8;" horiz-adv-x="1476" 
d="M739 -14q-304 0 -485.5 199t-181.5 532t181.5 532t485.5 199q303 0 484.5 -199t181.5 -532t-181.5 -532t-484.5 -199zM262 651q17 -233 146.5 -371.5t330.5 -138.5t329.5 138t145.5 372h-952zM262 782h952q-17 234 -145.5 372t-329.5 138t-330.5 -138.5t-146.5 -371.5z
" />
    <glyph glyph-name="uni04E9" unicode="&#x4e9;" horiz-adv-x="1114" 
d="M557 -12q-106 0 -198.5 37.5t-159.5 105.5t-105.5 167.5t-38.5 217.5q0 238 142.5 384.5t359.5 146.5t359.5 -146.5t142.5 -384.5q0 -118 -38.5 -217.5t-105.5 -167.5t-159.5 -105.5t-198.5 -37.5zM242 459q13 -157 98.5 -244.5t216.5 -87.5q133 0 218.5 87.5t98.5 244.5
h-632zM242 575h632q-15 157 -100.5 243.5t-216.5 86.5t-215.5 -86.5t-99.5 -243.5z" />
    <glyph glyph-name="uni04EE" unicode="&#x4ee;" horiz-adv-x="1150" 
d="M307 -14q-59 0 -122 9.5t-93 24.5v166q87 -34 199 -34q76 0 134.5 41t90.5 120l-510 1121h191l403 -914l369 914h176l-461 -1141q-62 -151 -149 -229t-228 -78zM350 1595v117h496v-117h-496z" />
    <glyph glyph-name="uni04EF" unicode="&#x4ef;" horiz-adv-x="980" 
d="M106 -410v148h95q44 0 74 9.5t51.5 32t34.5 47.5t30 69l35 92l-418 1044h168l330 -825l303 825h162l-416 -1130q-33 -89 -60.5 -141.5t-67.5 -94.5t-93.5 -59t-130.5 -17h-97zM264 1194v117h496v-117h-496z" />
    <glyph glyph-name="Wgrave" unicode="&#x1e80;" horiz-adv-x="1910" 
d="M406 0l-377 1434h176l313 -1182l359 1182h174l358 -1172l299 1172h174l-362 -1434h-189l-370 1198l-365 -1198h-190zM762 1796h182l115 -244h-152z" />
    <glyph glyph-name="wgrave" unicode="&#x1e81;" horiz-adv-x="1435" 
d="M309 0l-291 1032h164l221 -788l242 788h156l231 -784l225 784h160l-295 -1032h-159l-246 821l-250 -821h-158zM520 1395h182l115 -244h-151z" />
    <glyph glyph-name="Wacute" unicode="&#x1e82;" horiz-adv-x="1910" 
d="M406 0l-377 1434h176l313 -1182l359 1182h174l358 -1172l299 1172h174l-362 -1434h-189l-370 1198l-365 -1198h-190zM864 1552l113 244h184l-145 -244h-152z" />
    <glyph glyph-name="wacute" unicode="&#x1e83;" horiz-adv-x="1435" 
d="M309 0l-291 1032h164l221 -788l242 788h156l231 -784l225 784h160l-295 -1032h-159l-246 821l-250 -821h-158zM623 1151l112 244h185l-146 -244h-151z" />
    <glyph glyph-name="Wdieresis" unicode="&#x1e84;" horiz-adv-x="1910" 
d="M406 0l-377 1434h176l313 -1182l359 1182h174l358 -1172l299 1172h174l-362 -1434h-189l-370 1198l-365 -1198h-190zM733 1577v207h146v-207h-146zM1030 1577v207h146v-207h-146z" />
    <glyph glyph-name="wdieresis" unicode="&#x1e85;" horiz-adv-x="1435" 
d="M309 0l-291 1032h164l221 -788l242 788h156l231 -784l225 784h160l-295 -1032h-159l-246 821l-250 -821h-158zM492 1176v206h145v-206h-145zM788 1176v206h146v-206h-146z" />
    <glyph glyph-name="Ygrave" unicode="&#x1ef2;" horiz-adv-x="1161" 
d="M489 659l-483 775h191l387 -623l389 623h182l-483 -775v-659h-183v659zM385 1796h182l115 -244h-152z" />
    <glyph glyph-name="ygrave" unicode="&#x1ef3;" horiz-adv-x="980" 
d="M106 -410v148h95q44 0 74 9.5t51.5 32t34.5 47.5t30 69l35 92l-418 1044h168l330 -825l303 825h162l-416 -1130q-33 -89 -60.5 -141.5t-67.5 -94.5t-93.5 -59t-130.5 -17h-97zM313 1395h183l114 -244h-151z" />
    <glyph glyph-name="uni2000" unicode="&#x2000;" horiz-adv-x="1024" 
 />
    <glyph glyph-name="uni2001" unicode="&#x2001;" horiz-adv-x="2048" 
 />
    <glyph glyph-name="uni2002" unicode="&#x2002;" horiz-adv-x="1024" 
 />
    <glyph glyph-name="uni2003" unicode="&#x2003;" horiz-adv-x="2048" 
 />
    <glyph glyph-name="uni2004" unicode="&#x2004;" horiz-adv-x="681" 
 />
    <glyph glyph-name="uni2005" unicode="&#x2005;" horiz-adv-x="512" 
 />
    <glyph glyph-name="uni2006" unicode="&#x2006;" horiz-adv-x="342" 
 />
    <glyph glyph-name="uni2007" unicode="&#x2007;" horiz-adv-x="1212" 
 />
    <glyph glyph-name="uni2008" unicode="&#x2008;" horiz-adv-x="376" 
 />
    <glyph glyph-name="uni2009" unicode="&#x2009;" horiz-adv-x="409" 
 />
    <glyph glyph-name="uni200A" unicode="&#x200a;" horiz-adv-x="292" 
 />
    <glyph glyph-name="uni200B" unicode="&#x200b;" 
 />
    <glyph glyph-name="endash" unicode="&#x2013;" horiz-adv-x="1179" 
d="M115 674h950v-139h-950v139z" />
    <glyph glyph-name="emdash" unicode="&#x2014;" horiz-adv-x="1632" 
d="M115 674h1401v-139h-1401v139z" />
    <glyph glyph-name="quoteleft" unicode="&#x2018;" horiz-adv-x="370" 
d="M293 1331q-88 0 -88 -127h71v-211h-176v221q0 101 49.5 160.5t143.5 59.5v-103z" />
    <glyph glyph-name="quoteright" unicode="&#x2019;" horiz-adv-x="370" 
d="M102 1096q88 0 88 127h-71v211h176v-222q0 -101 -49.5 -160t-143.5 -59v103z" />
    <glyph glyph-name="quotesinglbase" unicode="&#x201a;" horiz-adv-x="370" 
d="M78 -127q88 0 88 127h-72v211h176v-221q0 -101 -49 -160t-143 -59v102z" />
    <glyph glyph-name="quotedblleft" unicode="&#x201c;" horiz-adv-x="649" 
d="M571 1331q-88 0 -88 -127h72v-211h-176v221q0 101 49 160.5t143 59.5v-103zM100 993v221q0 101 49.5 160.5t143.5 59.5v-103q-88 0 -88 -127h71v-211h-176z" />
    <glyph glyph-name="quotedblright" unicode="&#x201d;" horiz-adv-x="649" 
d="M102 1096q88 0 88 127h-71v211h176v-222q0 -101 -49.5 -160t-143.5 -59v103zM381 993v103q88 0 88 127h-72v211h176v-222q0 -101 -49 -160t-143 -59z" />
    <glyph glyph-name="quotedblbase" unicode="&#x201e;" horiz-adv-x="649" 
d="M78 -127q88 0 88 127h-72v211h176v-221q0 -101 -49 -160t-143 -59v102zM356 -229v102q88 0 88 127h-71v211h176v-221q0 -101 -49.5 -160t-143.5 -59z" />
    <glyph glyph-name="dagger" unicode="&#x2020;" horiz-adv-x="860" 
d="M360 141v822h-307v139h307v332h148v-332h299v-139h-299v-822h-148z" />
    <glyph glyph-name="daggerdbl" unicode="&#x2021;" horiz-adv-x="880" 
d="M371 141v310h-308v139h308v397h-308v137h308v310h147v-310h299v-137h-299v-397h299v-139h-299v-310h-147z" />
    <glyph glyph-name="bullet" unicode="&#x2022;" horiz-adv-x="438" 
d="M84 432v273h270v-273h-270z" />
    <glyph glyph-name="ellipsis" unicode="&#x2026;" horiz-adv-x="946" 
d="M100 0v211h176v-211h-176zM385 0v211h176v-211h-176zM670 0v211h176v-211h-176z" />
    <glyph glyph-name="perthousand" unicode="&#x2030;" horiz-adv-x="2027" 
d="M1651 -14q-126 0 -198.5 75t-72.5 199t72.5 198t198.5 74t199 -74t73 -198t-73 -199t-199 -75zM104 1174q0 124 73 198t200 74q126 0 198 -74t72 -198q0 -125 -72 -200t-198 -75t-199.5 75.5t-73.5 199.5zM131 0l993 1434h160l-993 -1434h-160zM244 1174q0 -74 35 -120
t98 -46t98 46t35 120t-35 119.5t-98 45.5t-98 -45.5t-35 -119.5zM766 260q0 124 73 198t199 74t198.5 -74t72.5 -198t-72.5 -199t-198.5 -75t-199 75t-73 199zM905 260q0 -75 35 -120.5t98 -45.5t98 45.5t35 120.5q0 74 -35 120t-98 46t-98 -46t-35 -120zM1518 260
q0 -75 35 -120.5t98 -45.5t98 45.5t35 120.5q0 74 -35 120t-98 46t-98 -46t-35 -120z" />
    <glyph glyph-name="guilsinglleft" unicode="&#x2039;" horiz-adv-x="579" 
d="M485 870v-170l-282 -186l282 -184v-168l-417 299v106z" />
    <glyph glyph-name="guilsinglright" unicode="&#x203a;" horiz-adv-x="579" 
d="M94 158v170l283 186l-283 184v168l418 -299v-106z" />
    <glyph glyph-name="fraction" unicode="&#x2044;" horiz-adv-x="358" 
d="M-369 0l949 1434h147l-948 -1434h-148z" />
    <glyph glyph-name="uni2070" unicode="&#x2070;" horiz-adv-x="782" 
d="M391 745q-151 0 -239.5 113.5t-88.5 308.5q0 196 88.5 310t239.5 114t238.5 -114t87.5 -310q0 -195 -87.5 -308.5t-238.5 -113.5zM207 1167q0 -150 48 -229.5t136 -79.5t136 79.5t48 229.5q0 153 -48 233.5t-136 80.5t-136 -80.5t-48 -233.5z" />
    <glyph glyph-name="uni2074" unicode="&#x2074;" horiz-adv-x="708" 
d="M10 1065l381 518h158v-518h131l-14 -102h-117v-207h-135v207h-404v102zM137 1065h277v381z" />
    <glyph glyph-name="uni2075" unicode="&#x2075;" horiz-adv-x="724" 
d="M379 748q-125 0 -210.5 59t-107.5 158l129 30q12 -63 59 -100t120 -37q68 0 113.5 49.5t45.5 128.5q0 78 -45.5 125t-115.5 47q-56 0 -99 -30.5t-61 -77.5h-119l72 483h463l-15 -115h-350l-43 -276q67 108 199 108q111 0 183.5 -72.5t72.5 -193.5q0 -131 -82 -208.5
t-209 -77.5z" />
    <glyph glyph-name="uni2076" unicode="&#x2076;" horiz-adv-x="708" 
d="M356 748q-134 0 -218.5 100t-84.5 268q0 216 93 345.5t251 129.5q97 0 164 -53t86 -135l-119 -29q-16 51 -51.5 81t-89.5 30q-96 0 -155 -92.5t-66 -292.5q19 90 83 138t146 48q106 0 175 -74t69 -188q0 -125 -78 -200.5t-205 -75.5zM188 1022q0 -74 44.5 -120t111.5 -46
q71 0 114.5 45.5t43.5 120.5q0 72 -41.5 118t-106.5 46q-73 0 -119.5 -46t-46.5 -118z" />
    <glyph glyph-name="uni2077" unicode="&#x2077;" horiz-adv-x="593" 
d="M70 756l374 712h-413l-15 115h570v-115l-375 -712h-141z" />
    <glyph glyph-name="uni2078" unicode="&#x2078;" horiz-adv-x="739" 
d="M369 750q-140 0 -224 60t-84 161q0 87 56 145.5t153 73.5q-80 17 -127 67t-47 117q0 99 74 160t199 61q126 0 200 -58.5t74 -156.5q0 -68 -46.5 -120.5t-119.5 -69.5q92 -15 146.5 -71.5t54.5 -139.5q0 -105 -84 -167t-225 -62zM203 987q0 -60 46 -95.5t120 -35.5
q75 0 120.5 37t45.5 100q0 66 -45.5 105t-120.5 39q-74 0 -120 -41.5t-46 -108.5zM227 1366q0 -55 38 -87t104 -32q68 0 105.5 32.5t37.5 92.5q0 53 -37.5 85t-105.5 32q-63 0 -102.5 -34t-39.5 -89z" />
    <glyph glyph-name="uni2079" unicode="&#x2079;" horiz-adv-x="710" 
d="M358 1591q130 0 213.5 -101.5t83.5 -272.5q0 -217 -80 -343t-233 -126q-103 0 -180.5 54.5t-100.5 147.5l117 31q19 -56 64.5 -90.5t103.5 -34.5q91 0 137.5 78.5t53.5 253.5q-27 -64 -80.5 -99.5t-130.5 -35.5q-108 0 -182 75t-74 189q0 124 81 199t207 75zM209 1317
q0 -72 40.5 -118t106.5 -46q73 0 119.5 46t46.5 118q0 74 -44 121t-111 47q-72 0 -115 -46.5t-43 -121.5z" />
    <glyph glyph-name="uni2080" unicode="&#x2080;" horiz-adv-x="782" 
d="M391 -215q-151 0 -239.5 113.5t-88.5 308.5q0 196 88.5 310t239.5 114t238.5 -114t87.5 -310q0 -195 -87.5 -308.5t-238.5 -113.5zM207 207q0 -150 48 -229.5t136 -79.5t136 79.5t48 229.5q0 153 -48 233t-136 80t-136 -80t-48 -233z" />
    <glyph glyph-name="uni2081" unicode="&#x2081;" horiz-adv-x="477" 
d="M8 416q39 0 66.5 4t55.5 16.5t45 35t27.5 60.5t10.5 91h137v-828h-137v617q-24 -65 -73 -94t-132 -29v127z" />
    <glyph glyph-name="uni2082" unicode="&#x2082;" horiz-adv-x="671" 
d="M53 -164q2 79 27 141.5t62.5 102t82.5 71.5t89 57t81 50.5t59.5 61t22.5 79.5q0 56 -39 88.5t-106 32.5q-58 0 -101.5 -38t-64.5 -101l-121 31q30 105 111.5 162t191.5 57q117 0 191.5 -63.5t74.5 -161.5q0 -53 -20 -95.5t-52.5 -71.5t-73 -55t-83.5 -52t-81 -55t-69 -72
t-45 -95h443l-15 -115h-565v41z" />
    <glyph glyph-name="uni2083" unicode="&#x2083;" horiz-adv-x="710" 
d="M358 -213q-126 0 -214 63.5t-113 165.5l121 29q22 -71 72 -110t124 -39q71 0 113.5 37.5t42.5 101.5q0 67 -44 103t-124 36h-94l18 100h74q69 0 109 35.5t40 98.5q0 52 -39 84t-106 32t-110 -36.5t-54 -94.5l-115 29q17 96 92.5 152.5t192.5 56.5t197 -57.5t80 -155.5
q0 -70 -42 -122.5t-122 -72.5q84 -18 134 -71t50 -129q0 -106 -80 -171t-203 -65z" />
    <glyph glyph-name="uni2084" unicode="&#x2084;" horiz-adv-x="708" 
d="M10 104l381 519h158v-519h131l-14 -102h-117v-207h-135v207h-404v102zM137 104h277v381z" />
    <glyph glyph-name="uni2085" unicode="&#x2085;" horiz-adv-x="724" 
d="M379 -213q-125 0 -210.5 59t-107.5 158l129 31q12 -63 59 -100t120 -37q68 0 113.5 49.5t45.5 128.5q0 78 -45.5 125t-115.5 47q-56 0 -99 -31t-61 -78h-119l72 484h463l-15 -115h-350l-43 -277q68 109 199 109q111 0 183.5 -72.5t72.5 -193.5q0 -131 -82 -209t-209 -78z
" />
    <glyph glyph-name="uni2086" unicode="&#x2086;" horiz-adv-x="708" 
d="M356 -213q-134 0 -218.5 100.5t-84.5 268.5q0 216 93 345.5t251 129.5q97 0 164 -53t86 -136l-119 -28q-35 110 -141 110q-96 0 -155 -92.5t-66 -292.5q19 90 83 138.5t146 48.5q106 0 175 -74.5t69 -188.5q0 -125 -78 -200.5t-205 -75.5zM188 61q0 -74 44.5 -119.5
t111.5 -45.5q71 0 114.5 45t43.5 120q0 72 -41.5 118t-106.5 46q-73 0 -119.5 -46t-46.5 -118z" />
    <glyph glyph-name="uni2087" unicode="&#x2087;" horiz-adv-x="593" 
d="M70 -205l374 713h-413l-15 115h570v-115l-375 -713h-141z" />
    <glyph glyph-name="uni2088" unicode="&#x2088;" horiz-adv-x="739" 
d="M369 -215q-140 0 -224 60t-84 161q0 87 56 145.5t153 73.5q-80 17 -127 67.5t-47 117.5q0 99 74 160t199 61q126 0 200 -58.5t74 -156.5q0 -68 -46.5 -121t-119.5 -70q92 -15 146.5 -71.5t54.5 -139.5q0 -105 -84 -167t-225 -62zM203 23q0 -60 46 -96t120 -36
q75 0 120.5 37.5t45.5 100.5q0 66 -45.5 104.5t-120.5 38.5q-74 0 -120 -41t-46 -108zM227 401q0 -55 38 -86.5t104 -31.5q68 0 105.5 32.5t37.5 92.5q0 53 -37.5 84.5t-105.5 31.5q-63 0 -102.5 -34t-39.5 -89z" />
    <glyph glyph-name="uni2089" unicode="&#x2089;" horiz-adv-x="710" 
d="M358 631q130 0 213.5 -101.5t83.5 -273.5q0 -217 -80 -343t-233 -126q-103 0 -180.5 55t-100.5 148l117 30q19 -56 64.5 -90t103.5 -34q91 0 137.5 78.5t53.5 252.5q-27 -64 -80.5 -99.5t-130.5 -35.5q-108 0 -182 75t-74 189q0 124 81 199.5t207 75.5zM209 356
q0 -72 40.5 -117.5t106.5 -45.5q73 0 119.5 45.5t46.5 117.5q0 74 -44 121t-111 47q-72 0 -115 -46.5t-43 -121.5z" />
    <glyph glyph-name="Euro" unicode="&#x20ac;" horiz-adv-x="1447" 
d="M782 -14q-210 0 -367 91.5t-240 257t-83 382.5q0 215 85 381t239.5 258t353.5 92q229 0 388 -127.5t214 -345.5l-176 -43q-42 166 -154.5 263t-273.5 97q-188 0 -315.5 -117.5t-161.5 -318.5h557l-21 -100h-546v-33q0 -26 4 -76h514l-21 -100h-479q42 -189 168 -297.5
t315 -108.5q159 0 271.5 93.5t150.5 259.5l174 -45q-55 -208 -213.5 -335.5t-382.5 -127.5z" />
    <glyph glyph-name="trademark" unicode="&#x2122;" horiz-adv-x="1245" 
d="M229 827v514h-180v93h465v-93h-178v-514h-107zM567 827v607h117l180 -408l168 408h127v-607h-106v396l-170 -396h-41l-168 385v-385h-107z" />
    <glyph glyph-name="uni2126" unicode="&#x2126;" horiz-adv-x="1554" 
d="M858 145q193 69 307.5 226.5t114.5 390.5q0 239 -136.5 384.5t-365.5 145.5q-231 0 -367.5 -146t-136.5 -388q0 -223 114 -379t306 -234v-145h-602v145h440q-205 87 -325.5 248.5t-120.5 378.5q0 303 187.5 489.5t502.5 186.5q317 0 504.5 -186.5t187.5 -489.5
q0 -224 -120.5 -386.5t-321.5 -240.5h436v-145h-604v145z" />
    <glyph glyph-name="oneeighth" unicode="&#x215b;" horiz-adv-x="1570" 
d="M8 1227q39 0 66.5 4t55.5 16.5t45 35t27.5 60.5t10.5 91h137v-828h-137v617q-24 -65 -73 -94t-132 -29v127zM109 0l948 1434h147l-948 -1434h-147zM883 211q0 87 56 145.5t153 73.5q-80 17 -127 67t-47 117q0 99 73.5 160.5t198.5 61.5q126 0 200 -58.5t74 -156.5
q0 -68 -46.5 -121t-119.5 -70q92 -15 146.5 -71.5t54.5 -139.5q0 -105 -84 -167t-225 -62q-140 0 -223.5 60t-83.5 161zM1024 227q0 -60 46 -95.5t120 -35.5q75 0 120.5 37t45.5 100q0 66 -45.5 105t-120.5 39q-74 0 -120 -41.5t-46 -108.5zM1049 606q0 -56 37.5 -87.5
t103.5 -31.5q68 0 105.5 32.5t37.5 92.5q0 53 -37.5 85t-105.5 32q-63 0 -102 -34t-39 -89z" />
    <glyph glyph-name="threeeighths" unicode="&#x215c;" horiz-adv-x="1810" 
d="M358 598q-126 0 -214 63.5t-113 165.5l121 29q22 -71 72 -110t124 -39q71 0 113.5 37.5t42.5 101.5q0 67 -44 103t-124 36h-94l18 100h74q69 0 109 35.5t40 98.5q0 52 -39 84t-106 32t-110 -36.5t-54 -94.5l-115 29q17 96 92.5 152.5t192.5 56.5t197 -57.5t80 -155.5
q0 -70 -42 -122.5t-122 -72.5q84 -18 134 -71t50 -129q0 -106 -80 -171t-203 -65zM342 0l948 1434h148l-949 -1434h-147zM1120 211q0 87 56 145.5t153 73.5q-80 17 -127 67t-47 117q0 99 73.5 160.5t198.5 61.5q127 0 201 -59t74 -156q0 -68 -46.5 -121t-119.5 -70
q92 -15 146.5 -71.5t54.5 -139.5q0 -105 -84 -167t-226 -62q-140 0 -223.5 60t-83.5 161zM1262 227q0 -60 45.5 -95.5t119.5 -35.5q75 0 120.5 37t45.5 100q0 66 -45.5 105t-120.5 39q-74 0 -119.5 -41.5t-45.5 -108.5zM1286 606q0 -56 37.5 -87.5t103.5 -31.5
q68 0 106 32.5t38 92.5q0 53 -38 85t-106 32q-63 0 -102 -34t-39 -89z" />
    <glyph glyph-name="fiveeighths" unicode="&#x215d;" horiz-adv-x="1820" 
d="M383 598q-125 0 -210 59t-107 158l129 31q12 -63 58.5 -100t119.5 -37q68 0 113.5 49.5t45.5 128.5q0 78 -45.5 125t-115.5 47q-56 0 -99 -31t-61 -78h-119l72 484h463l-15 -115h-350l-43 -277q68 109 199 109q111 0 183.5 -72.5t72.5 -193.5q0 -131 -82 -209t-209 -78z
M358 0l949 1434h147l-948 -1434h-148zM1133 211q0 88 55.5 146t152.5 73q-80 17 -127 67t-47 117q0 99 74 160.5t199 61.5q126 0 200 -58.5t74 -156.5q0 -68 -46.5 -121t-119.5 -70q92 -15 146.5 -71.5t54.5 -139.5q0 -105 -84 -167t-225 -62q-140 0 -223.5 60t-83.5 161z
M1274 227q0 -60 46 -95.5t120 -35.5q75 0 120.5 37t45.5 100q0 66 -45.5 105t-120.5 39q-74 0 -120 -41.5t-46 -108.5zM1298 606q0 -55 38 -87t104 -32q68 0 105.5 32.5t37.5 92.5q0 53 -37.5 85t-105.5 32q-63 0 -102.5 -34t-39.5 -89z" />
    <glyph glyph-name="seveneighths" unicode="&#x215e;" horiz-adv-x="1626" 
d="M100 606l375 713h-414l-14 115h569v-115l-374 -713h-142zM168 0l948 1434h148l-949 -1434h-147zM940 211q0 87 56 145.5t153 73.5q-80 17 -127 67t-47 117q0 99 73.5 160.5t198.5 61.5q127 0 201 -59t74 -156q0 -68 -46.5 -121t-119.5 -70q91 -15 145.5 -71.5
t54.5 -139.5q0 -105 -84 -167t-225 -62q-140 0 -223.5 60t-83.5 161zM1081 227q0 -60 46 -95.5t120 -35.5q75 0 120.5 37t45.5 100q0 66 -45.5 105t-120.5 39q-74 0 -120 -41.5t-46 -108.5zM1106 606q0 -56 37.5 -87.5t103.5 -31.5q68 0 106 32.5t38 92.5q0 53 -38 85
t-106 32q-63 0 -102 -34t-39 -89z" />
    <glyph glyph-name="arrowleft" unicode="&#x2190;" horiz-adv-x="1558" 
d="M700 211l-92 -92l-549 547l551 551l92 -93l-389 -391h1180v-135h-1180z" />
    <glyph glyph-name="arrowup" unicode="&#x2191;" horiz-adv-x="1216" 
d="M152 793l-93 92l547 549l553 -551l-94 -95l-391 392v-1180h-135v1180z" />
    <glyph glyph-name="arrowright" unicode="&#x2192;" horiz-adv-x="1558" 
d="M858 1104l92 92l549 -547l-551 -551l-92 92l389 392h-1179v135h1179z" />
    <glyph glyph-name="arrowdown" unicode="&#x2193;" horiz-adv-x="1216" 
d="M1065 641l92 -92l-547 -549l-553 551l95 94l391 -391v1180h135v-1180z" />
    <glyph glyph-name="arrowboth" unicode="&#x2194;" horiz-adv-x="1738" 
d="M610 102l-551 551l549 549l94 -94l-391 -389h1116l-391 389l94 94l549 -549l-551 -551l-94 93l391 387h-1112l392 -387z" />
    <glyph glyph-name="arrowupdn" unicode="&#x2195;" horiz-adv-x="1191" 
d="M598 0l-537 489l95 97l370 -361v983l-370 -358l-95 94l537 490l532 -488l-94 -94l-374 358v-987l374 359l94 -95z" />
    <glyph glyph-name="uni2196" unicode="&#x2196;" horiz-adv-x="1314" 
d="M868 1040h-542l929 -833l-90 -96l-929 833l61 -553l-131 2l-82 778h776z" />
    <glyph glyph-name="uni2197" unicode="&#x2197;" horiz-adv-x="1314" 
d="M446 1040l9 131h776l-82 -778l-131 -2l61 553l-929 -833l-91 96l930 833h-543z" />
    <glyph glyph-name="uni2198" unicode="&#x2198;" horiz-adv-x="1316" 
d="M449 135h540l-930 834l93 96l929 -834l-63 553h131l82 -780h-776z" />
    <glyph glyph-name="uni2199" unicode="&#x2199;" horiz-adv-x="1316" 
d="M868 137l-8 -131h-776l82 778l131 2l-61 -553l929 834l90 -96l-929 -834h542z" />
    <glyph glyph-name="partialdiff" unicode="&#x2202;" horiz-adv-x="1189" 
d="M588 -10q-220 0 -349.5 128t-129.5 349q0 205 119 328t307 123q129 0 226 -71.5t142 -195.5q-9 299 -162.5 472t-427.5 173l6 152q185 0 328 -60.5t231.5 -169.5t133.5 -254t45 -321q0 -311 -119 -482t-350 -171zM295 465q0 -154 83 -245t218 -91q130 0 204 90t74 246
q0 145 -77 229t-213 84q-128 0 -208.5 -86t-80.5 -227z" />
    <glyph glyph-name="emptyset" unicode="&#x2205;" horiz-adv-x="1316" 
d="M659 121q-155 0 -284.5 75t-204 204.5t-74.5 283.5q0 153 74.5 282t204 204t284.5 75q154 0 284 -75t205 -204t75 -282q0 -154 -75 -283.5t-205 -204.5t-284 -75zM266 684q0 -134 68 -242l571 574q-106 88 -246 88q-169 0 -281 -119.5t-112 -300.5zM414 350
q106 -88 245 -88q168 0 280 120.5t112 301.5q0 131 -66 240z" />
    <glyph glyph-name="uni2206" unicode="&#x2206;" horiz-adv-x="1288" 
d="M16 0l527 1434h202l527 -1434h-1256zM246 147h776l-387 1070z" />
    <glyph glyph-name="product" unicode="&#x220f;" horiz-adv-x="1280" 
d="M793 0v1286h-312v-1286h-182v1286h-229v148h1140v-148h-237v-1286h-180z" />
    <glyph glyph-name="summation" unicode="&#x2211;" horiz-adv-x="1095" 
d="M109 147l354 568l-352 571v148h888v-148h-680l353 -571l-355 -568h682v-147h-890v147z" />
    <glyph glyph-name="minus" unicode="&#x2212;" horiz-adv-x="1003" 
d="M94 561v141h815v-141h-815z" />
    <glyph glyph-name="uni2219" unicode="&#x2219;" horiz-adv-x="376" 
d="M100 627v211h176v-211h-176z" />
    <glyph glyph-name="radical" unicode="&#x221a;" horiz-adv-x="1478" 
d="M518 -205l-225 633h-242v145h346l215 -606l639 1467h158l-713 -1639h-178z" />
    <glyph glyph-name="infinity" unicode="&#x221e;" horiz-adv-x="1609" 
d="M418 309q-118 0 -198.5 86t-80.5 238t80.5 237.5t198.5 85.5q99 0 190.5 -65.5t186.5 -181.5q101 117 191.5 181t193.5 64q128 0 210.5 -82.5t82.5 -238.5t-82.5 -239t-210.5 -83q-103 0 -193 64t-192 182q-95 -116 -186.5 -182t-190.5 -66zM276 633q0 -84 41.5 -133
t110.5 -49q67 0 134.5 47.5t150.5 134.5q-83 87 -150.5 134.5t-134.5 47.5q-69 0 -110.5 -49t-41.5 -133zM879 633q78 -83 147 -130.5t137 -47.5q72 0 121 50t49 128t-49 129t-121 51q-67 0 -136 -48t-148 -132z" />
    <glyph glyph-name="integral" unicode="&#x222b;" horiz-adv-x="690" 
d="M70 -53q105 0 146.5 39.5t41.5 138.5v1112q0 177 88 253.5t275 76.5v-150q-105 0 -147 -39t-42 -137v-1112q0 -178 -87.5 -255t-274.5 -77v150z" />
    <glyph glyph-name="approxequal" unicode="&#x2248;" horiz-adv-x="1073" 
d="M137 690q12 106 72 173t143 67q52 0 107 -23t93 -51t80.5 -51t72.5 -23q85 0 94 142l137 -33q-6 -116 -59 -176t-134 -60q-50 0 -103.5 22t-90 48t-80.5 48t-78 22q-101 0 -119 -140zM137 346q12 106 72 173t143 67q52 0 107 -23t93 -51t80.5 -51t72.5 -23q85 0 94 142
l137 -33q-6 -116 -59 -176t-134 -60q-50 0 -103.5 22t-90 48t-80.5 48t-78 22q-101 0 -119 -140z" />
    <glyph glyph-name="notequal" unicode="&#x2260;" horiz-adv-x="1003" 
d="M225 117l-100 67l119 172h-150v142h248l174 252h-422v141h520l166 239l101 -69l-119 -170h147v-141h-245l-175 -252h420v-142h-518z" />
    <glyph glyph-name="lessequal" unicode="&#x2264;" horiz-adv-x="923" 
d="M780 281l-671 282v176l671 275v-156l-522 -213l522 -207v-157zM109 0v141h671v-141h-671z" />
    <glyph glyph-name="greaterequal" unicode="&#x2265;" horiz-adv-x="923" 
d="M145 281v157l523 207l-523 213v156l672 -275v-176zM145 0v141h672v-141h-672z" />
    <glyph glyph-name="uni2266" unicode="&#x2266;" horiz-adv-x="974" 
d="M821 399l-671 283v143l671 275v-156l-467 -196l467 -195v-154zM150 0v141h671v-141h-671zM150 223v142h671v-142h-671z" />
    <glyph glyph-name="uni2267" unicode="&#x2267;" horiz-adv-x="974" 
d="M156 399v156l465 195l-465 196v154l671 -275v-143zM156 0v141h671v-141h-671zM156 223v142h671v-142h-671z" />
    <glyph glyph-name="uni2460" unicode="&#x2460;" horiz-adv-x="1613" 
d="M807 -14q-207 0 -371.5 94t-256 260.5t-91.5 376.5t91.5 376.5t256 260.5t371.5 94t372 -94t257 -261t92 -376t-92 -376t-257 -261t-372 -94zM221 717q0 -176 75.5 -317t209.5 -220.5t301 -79.5q168 0 302.5 79.5t210 220.5t75.5 317t-75.5 316.5t-210 220t-302.5 79.5
q-125 0 -234 -46.5t-186 -127.5t-121.5 -195.5t-44.5 -246.5zM551 805v127q39 0 66.5 4t55.5 16.5t45 35t27.5 60.5t10.5 91h137v-828h-137v617q-24 -65 -73 -94t-132 -29z" />
    <glyph glyph-name="uni2461" unicode="&#x2461;" horiz-adv-x="1613" 
d="M807 -14q-207 0 -371.5 94t-256 260.5t-91.5 376.5t91.5 376.5t256 260.5t371.5 94t372 -94t257 -261t92 -376t-92 -376t-257 -261t-372 -94zM221 717q0 -176 75.5 -317t209.5 -220.5t301 -79.5q168 0 302.5 79.5t210 220.5t75.5 317t-75.5 316.5t-210 220t-302.5 79.5
q-125 0 -234 -46.5t-186 -127.5t-121.5 -195.5t-44.5 -246.5zM510 930q30 105 111.5 162t191.5 57q117 0 191.5 -63.5t74.5 -161.5q0 -53 -20 -95.5t-52.5 -71.5t-73 -55t-83.5 -52t-81 -55t-69 -72t-45 -95h443l-15 -115h-565v41q2 79 27 141.5t62.5 102t82.5 71.5t89 57
t81 51t59.5 61.5t22.5 79.5q0 56 -39 88t-106 32q-58 0 -101.5 -38t-64.5 -101z" />
    <glyph glyph-name="uni2462" unicode="&#x2462;" horiz-adv-x="1613" 
d="M807 -14q-207 0 -371.5 94t-256 260.5t-91.5 376.5t91.5 376.5t256 260.5t371.5 94t372 -94t257 -261t92 -376t-92 -376t-257 -261t-372 -94zM221 717q0 -176 75.5 -317t209.5 -220.5t301 -79.5q168 0 302.5 79.5t210 220.5t75.5 317t-75.5 316.5t-210 220t-302.5 79.5
q-125 0 -234 -46.5t-186 -127.5t-121.5 -195.5t-44.5 -246.5zM475 530l121 29q22 -71 72.5 -110t124.5 -39q71 0 113 37.5t42 101.5q0 67 -44 103t-124 36h-94l19 100h73q69 0 109.5 35.5t40.5 98.5q0 52 -39.5 84t-106.5 32t-110 -36.5t-54 -94.5l-114 29q17 97 92 153
t192 56t197 -57.5t80 -155.5q0 -70 -42 -122.5t-122 -72.5q84 -18 134 -71t50 -129q0 -106 -79.5 -171t-202.5 -65q-126 0 -214.5 63.5t-113.5 165.5z" />
    <glyph glyph-name="uni2463" unicode="&#x2463;" horiz-adv-x="1613" 
d="M807 -14q-207 0 -371.5 94t-256 260.5t-91.5 376.5t91.5 376.5t256 260.5t371.5 94t372 -94t257 -261t92 -376t-92 -376t-257 -261t-372 -94zM221 717q0 -176 75.5 -317t209.5 -220.5t301 -79.5q168 0 302.5 79.5t210 220.5t75.5 317t-75.5 316.5t-210 220t-302.5 79.5
q-125 0 -234 -46.5t-186 -127.5t-121.5 -195.5t-44.5 -246.5zM438 518v103l381 518h158v-518h131l-14 -103h-117v-207h-135v207h-404zM565 621h277v380z" />
    <glyph glyph-name="uni2464" unicode="&#x2464;" horiz-adv-x="1613" 
d="M807 -14q-207 0 -371.5 94t-256 260.5t-91.5 376.5t91.5 376.5t256 260.5t371.5 94t372 -94t257 -261t92 -376t-92 -376t-257 -261t-372 -94zM221 717q0 -176 75.5 -317t209.5 -220.5t301 -79.5q168 0 302.5 79.5t210 220.5t75.5 317t-75.5 316.5t-210 220t-302.5 79.5
q-125 0 -234 -46.5t-186 -127.5t-121.5 -195.5t-44.5 -246.5zM526 520l129 31q12 -63 59 -100t120 -37q68 0 113.5 49.5t45.5 128.5q0 78 -46 125t-116 47q-56 0 -98.5 -31t-60.5 -78h-119l72 484h462l-14 -115h-350l-43 -276q68 108 199 108q111 0 183.5 -72.5t72.5 -193.5
q0 -131 -82 -209t-209 -78q-125 0 -210.5 59t-107.5 158z" />
    <glyph glyph-name="uni2465" unicode="&#x2465;" horiz-adv-x="1613" 
d="M807 -14q-207 0 -371.5 94t-256 260.5t-91.5 376.5t91.5 376.5t256 260.5t371.5 94t372 -94t257 -261t92 -376t-92 -376t-257 -261t-372 -94zM221 717q0 -176 75.5 -317t209.5 -220.5t301 -79.5q168 0 302.5 79.5t210 220.5t75.5 317t-75.5 316.5t-210 220t-302.5 79.5
q-125 0 -234 -46.5t-186 -127.5t-121.5 -195.5t-44.5 -246.5zM510 672q0 216 93 345.5t251 129.5q97 0 164 -53t86 -136l-119 -28q-35 110 -141 110q-96 0 -155 -92.5t-66 -292.5q19 90 83 138.5t146 48.5q106 0 175 -74t69 -188q0 -125 -78 -201t-205 -76
q-134 0 -218.5 100.5t-84.5 268.5zM645 578q0 -74 44.5 -120t111.5 -46q71 0 114 45.5t43 120.5q0 72 -41 117.5t-106 45.5q-73 0 -119.5 -45.5t-46.5 -117.5z" />
    <glyph glyph-name="uni2466" unicode="&#x2466;" horiz-adv-x="1613" 
d="M807 -14q-207 0 -371.5 94t-256 260.5t-91.5 376.5t91.5 376.5t256 260.5t371.5 94t372 -94t257 -261t92 -376t-92 -376t-257 -261t-372 -94zM221 717q0 -176 75.5 -317t209.5 -220.5t301 -79.5q168 0 302.5 79.5t210 220.5t75.5 317t-75.5 316.5t-210 220t-302.5 79.5
q-125 0 -234 -46.5t-186 -127.5t-121.5 -195.5t-44.5 -246.5zM512 1104h569v-115l-374 -713h-142l375 713h-414z" />
    <glyph glyph-name="uni2467" unicode="&#x2467;" horiz-adv-x="1613" 
d="M807 -14q-207 0 -371.5 94t-256 260.5t-91.5 376.5t91.5 376.5t256 260.5t371.5 94t372 -94t257 -261t92 -376t-92 -376t-257 -261t-372 -94zM221 717q0 -176 75.5 -317t209.5 -220.5t301 -79.5q168 0 302.5 79.5t210 220.5t75.5 317t-75.5 316.5t-210 220t-302.5 79.5
q-125 0 -234 -46.5t-186 -127.5t-121.5 -195.5t-44.5 -246.5zM514 522q0 87 56 145.5t153 73.5q-80 17 -127 67.5t-47 117.5q0 99 73.5 160t198.5 61q127 0 201 -59t74 -156q0 -68 -46.5 -121t-119.5 -70q91 -15 145.5 -71.5t54.5 -139.5q0 -105 -84 -167t-225 -62
q-140 0 -223.5 60t-83.5 161zM655 539q0 -60 46 -95.5t120 -35.5q75 0 120.5 37t45.5 100q0 66 -45.5 104.5t-120.5 38.5q-74 0 -120 -41t-46 -108zM680 918q0 -56 37.5 -87.5t103.5 -31.5q68 0 106 32.5t38 92.5q0 53 -38 84.5t-106 31.5q-63 0 -102 -33.5t-39 -88.5z" />
    <glyph glyph-name="uni2468" unicode="&#x2468;" horiz-adv-x="1613" 
d="M807 -14q-207 0 -371.5 94t-256 260.5t-91.5 376.5t91.5 376.5t256 260.5t371.5 94t372 -94t257 -261t92 -376t-92 -376t-257 -261t-372 -94zM221 717q0 -176 75.5 -317t209.5 -220.5t301 -79.5q168 0 302.5 79.5t210 220.5t75.5 317t-75.5 316.5t-210 220t-302.5 79.5
q-125 0 -234 -46.5t-186 -127.5t-121.5 -195.5t-44.5 -246.5zM528 506l117 31q19 -56 64.5 -90.5t103.5 -34.5q91 0 137.5 78.5t53.5 252.5q-27 -64 -80.5 -99.5t-130.5 -35.5q-108 0 -182 75t-74 189q0 124 81 199.5t207 75.5q130 0 213.5 -101.5t83.5 -273.5
q0 -217 -80 -343t-233 -126q-103 0 -180.5 55t-100.5 148zM676 872q0 -72 40.5 -117.5t106.5 -45.5q73 0 119.5 45.5t46.5 117.5q0 74 -44 121t-111 47q-72 0 -115 -46.5t-43 -121.5z" />
    <glyph glyph-name="uni24EA" unicode="&#x24ea;" horiz-adv-x="1613" 
d="M807 -14q-207 0 -371.5 94t-256 260.5t-91.5 376.5t91.5 376.5t256 260.5t371.5 94t372 -94t257 -261t92 -376t-92 -376t-257 -261t-372 -94zM221 717q0 -176 75.5 -317t209.5 -220.5t301 -79.5q168 0 302.5 79.5t210 220.5t75.5 317t-75.5 316.5t-210 220t-302.5 79.5
q-125 0 -234 -46.5t-186 -127.5t-121.5 -195.5t-44.5 -246.5zM467 723q0 196 88.5 310t239.5 114t238 -113.5t87 -310.5q0 -195 -87 -308.5t-238 -113.5t-239.5 113.5t-88.5 308.5zM610 723q0 -150 48.5 -229.5t136.5 -79.5t136 79.5t48 229.5q0 153 -48 233t-136 80
q-89 0 -137 -80.5t-48 -232.5z" />
    <glyph glyph-name="upblock" unicode="&#x2580;" horiz-adv-x="1669" 
d="M119 1434h1433v-717h-1433v717z" />
    <glyph glyph-name="dnblock" unicode="&#x2584;" horiz-adv-x="1669" 
d="M119 717h1433v-717h-1433v717z" />
    <glyph glyph-name="block" unicode="&#x2588;" horiz-adv-x="1673" 
d="M119 1434h1433v-1434h-1433v1434z" />
    <glyph glyph-name="filledbox" unicode="&#x25a0;" horiz-adv-x="1673" 
d="M119 1434h1433v-1434h-1433v1434z" />
    <glyph glyph-name="uni25A1" unicode="&#x25a1;" horiz-adv-x="1673" 
d="M119 0v1434h1433v-1434h-1433zM252 119h1167v1198h-1167v-1198z" />
    <glyph glyph-name="uni25AA" unicode="&#x25aa;" horiz-adv-x="516" 
d="M115 860h286v-287h-286v287z" />
    <glyph glyph-name="uni25AB" unicode="&#x25ab;" horiz-adv-x="516" 
d="M115 573v287h286v-287h-286zM176 635h164v164h-164v-164z" />
    <glyph glyph-name="triagup" unicode="&#x25b2;" horiz-adv-x="1605" 
d="M815 1434l705 -1434h-1434z" />
    <glyph glyph-name="triagrt" unicode="&#x25ba;" horiz-adv-x="1636" 
d="M1552 807l-1433 -729v1433z" />
    <glyph glyph-name="triagdn" unicode="&#x25bc;" horiz-adv-x="1605" 
d="M788 0l-702 1434h1434z" />
    <glyph glyph-name="triaglf" unicode="&#x25c4;" horiz-adv-x="1636" 
d="M84 807l1434 704v-1433z" />
    <glyph glyph-name="lozenge" unicode="&#x25ca;" horiz-adv-x="925" 
d="M383 0l-295 717l295 717h160l295 -717l-295 -717h-160zM231 717h2l232 -563l231 563h2l-233 567z" />
    <glyph glyph-name="circle" unicode="&#x25cb;" horiz-adv-x="1613" 
d="M807 -14q-207 0 -371.5 94t-256 260.5t-91.5 376.5t91.5 376.5t256 260.5t371.5 94t372 -94t257 -261t92 -376t-92 -376t-257 -261t-372 -94zM221 717q0 -176 75.5 -317t209.5 -220.5t301 -79.5q168 0 302.5 79.5t210 220.5t75.5 317t-75.5 316.5t-210 220t-302.5 79.5
q-125 0 -234 -46.5t-186 -127.5t-121.5 -195.5t-44.5 -246.5z" />
    <glyph glyph-name="uni25CF" unicode="&#x25cf;" horiz-adv-x="1583" 
d="M793 -14q-146 0 -276.5 57t-224.5 154.5t-149 233t-55 286.5t55 286.5t149 233t224.5 154.5t276.5 57q194 0 356 -96.5t255 -264.5t93 -370t-93 -370t-255 -264.5t-356 -96.5z" />
    <glyph glyph-name="uni2B0E" unicode="&#x2b0e;" horiz-adv-x="1208" 
d="M612 0l-532 518l92 94l371 -364v659h-467v125h604v-786l375 368l92 -94z" />
    <glyph glyph-name="uni2B0F" unicode="&#x2b0f;" horiz-adv-x="1208" 
d="M612 1032l535 -520l-92 -94l-375 368v-786h-604v127h467v659l-371 -364l-92 92z" />
    <glyph glyph-name="uni2B10" unicode="&#x2b10;" horiz-adv-x="1208" 
d="M602 0l-536 520l92 94l377 -368v786h602v-125h-467v-661l372 366l93 -94z" />
    <glyph glyph-name="uni2B11" unicode="&#x2b11;" horiz-adv-x="1208" 
d="M596 1032l532 -518l-94 -94l-368 364l-2 -659h469l-3 -125h-604l2 784l-374 -366l-93 94z" />
    <glyph glyph-name="uni2BA0" unicode="&#x2ba0;" horiz-adv-x="1185" 
d="M59 520l519 527l94 -93l-365 -366h674v444h127v-581h-799l365 -371l-92 -92z" />
    <glyph glyph-name="uni2BA1" unicode="&#x2ba1;" horiz-adv-x="1185" 
d="M1126 520l-522 -532l-92 92l365 371h-799v581h127v-444h674l-365 366l94 93z" />
    <glyph glyph-name="uni2BA2" unicode="&#x2ba2;" horiz-adv-x="1185" 
d="M59 512l523 532l92 -94l-367 -370h801v-580h-127v444h-674l365 -366l-94 -92z" />
    <glyph glyph-name="uni2BA3" unicode="&#x2ba3;" horiz-adv-x="1185" 
d="M1116 512l-518 -526l-94 92l364 366h-673v-444h-127v582h798l-364 370l92 92z" />
    <glyph glyph-name="uni2BA4" unicode="&#x2ba4;" horiz-adv-x="1208" 
d="M596 1034l532 -518l-94 -94l-368 364l-2 -659h469l-3 -125h-604l2 784l-374 -366l-93 94z" />
    <glyph glyph-name="uni2BA5" unicode="&#x2ba5;" horiz-adv-x="1208" 
d="M612 1032l535 -520l-92 -94l-375 368v-786h-604v127h467v659l-371 -364l-92 92z" />
    <glyph glyph-name="uni2BA6" unicode="&#x2ba6;" horiz-adv-x="1208" 
d="M596 0l-537 520l93 94l376 -368v786h602v-125h-466v-661l372 366l92 -94z" />
    <glyph glyph-name="uni2BA7" unicode="&#x2ba7;" horiz-adv-x="1208" 
d="M612 0l-532 518l92 94l371 -364v659h-467v125h604v-786l375 368l92 -94z" />
    <glyph glyph-name="fi" unicode="&#xfb01;" horiz-adv-x="1038" 
d="M164 1155q0 285 291 285h137v-148h-121q-72 0 -101.5 -34.5t-29.5 -108.5v-117h240v-143h-240v-889h-176v889h-137v143h137v123zM731 1176v206h184v-206h-184zM735 0v1032h174v-1032h-174z" />
    <glyph glyph-name="fl" unicode="&#xfb02;" horiz-adv-x="1040" 
d="M164 1155q0 285 291 285h137v-148h-121q-72 0 -101.5 -34.5t-29.5 -108.5v-117h240v-143h-240v-889h-176v889h-137v143h137v123zM733 0v1434h176v-1434h-176z" />
    <glyph glyph-name="uniFEFF" unicode="&#xfeff;" horiz-adv-x="1228" 
 />
    <glyph glyph-name="u1F150" unicode="&#x1f150;" horiz-adv-x="1089" 
d="M545 551q-123 0 -225.5 57.5t-163 161t-60.5 229.5t60.5 229.5t163 161.5t225.5 58q188 0 318 -128.5t130 -320.5t-130 -320t-318 -128z" />
    <glyph glyph-name="Adieresis.ss02" horiz-adv-x="1325" 
d="M776 1434l533 -1434h-183l-139 381h-653l-141 -381h-177l537 1434h223zM387 528h547l-272 744zM397 1694q0 44 30.5 74t74.5 30q43 0 72.5 -30t29.5 -74q0 -43 -29.5 -73t-72.5 -30q-44 0 -74.5 30t-30.5 73zM731 1694q0 44 30 74t73 30q44 0 74 -30t30 -74
q0 -43 -30 -73t-74 -30q-43 0 -73 30t-30 73z" />
    <glyph glyph-name="Edieresis.ss02" horiz-adv-x="1067" 
d="M147 0v1434h869v-148h-686v-469h577v-147h-577v-523h686v-147h-869zM336 1692q0 44 30 74t74 30q43 0 73 -30t30 -74q0 -43 -30 -73t-73 -30q-44 0 -74 30t-30 73zM670 1692q0 44 29.5 74t72.5 30q44 0 74.5 -30t30.5 -74q0 -43 -30.5 -73t-74.5 -30q-43 0 -72.5 30
t-29.5 73z" />
    <glyph glyph-name="Edotaccent.ss02" horiz-adv-x="1067" 
d="M147 0v1434h869v-148h-686v-469h577v-147h-577v-523h686v-147h-869zM494 1700q0 46 32 78t78 32q47 0 79 -32t32 -78t-32 -78.5t-79 -32.5q-46 0 -78 32.5t-32 78.5z" />
    <glyph glyph-name="uni0122.ss02" horiz-adv-x="1478" 
d="M725 -14q-134 0 -253.5 52t-208 145t-140 230t-51.5 298q0 165 52 304t142.5 233.5t214 147t264.5 52.5q127 0 231 -35t176.5 -97.5t119.5 -142t71 -174.5l-176 -41q-98 334 -434 334q-208 0 -340.5 -157t-132.5 -416q0 -166 63.5 -298t176.5 -206t256 -74
q181 0 304 123.5t136 331.5h-348l20 143h496v-739h-145v313q-66 -150 -196.5 -238.5t-297.5 -88.5zM662 -186q0 38 27 64t65 26q48 0 78 -39.5t30 -104.5q0 -86 -49 -144.5t-143 -61.5v86q49 3 75 21.5t33 59.5q-52 3 -84 27t-32 66z" />
    <glyph glyph-name="Idieresis.ss02" horiz-adv-x="477" 
d="M147 0v1434h183v-1434h-183zM-33 1692q0 44 30.5 74t74.5 30q43 0 72.5 -30t29.5 -74q0 -43 -29.5 -73t-72.5 -30q-44 0 -74.5 30t-30.5 73zM301 1692q0 44 29.5 74t72.5 30q44 0 74.5 -30t30.5 -74q0 -43 -30.5 -73t-74.5 -30q-43 0 -72.5 30t-29.5 73z" />
    <glyph glyph-name="Idotaccent.ss02" horiz-adv-x="477" 
d="M147 0v1434h183v-1434h-183zM125 1700q0 46 32.5 78t78.5 32q47 0 78.5 -32t31.5 -78t-31.5 -78.5t-78.5 -32.5q-46 0 -78.5 32.5t-32.5 78.5z" />
    <glyph glyph-name="uni0136.ss02" horiz-adv-x="1253" 
d="M147 0v1434h183v-822l678 822h202l-540 -650l561 -784h-209l-461 655l-231 -278v-377h-183zM543 -186q0 38 27 64t65 26q48 0 78 -39.5t30 -104.5q0 -86 -49 -144.5t-143 -61.5v86q49 3 75 21.5t33 59.5q-52 3 -84 27t-32 66z" />
    <glyph glyph-name="uni013B.ss02" horiz-adv-x="987" 
d="M147 0v1434h183v-1287h637v-147h-820zM496 -186q0 38 27 64t65 26q48 0 78 -39.5t30 -104.5q0 -86 -49 -144.5t-143 -61.5v86q49 3 75 21.5t33 59.5q-52 3 -84 27t-32 66z" />
    <glyph glyph-name="uni0145.ss02" horiz-adv-x="1429" 
d="M147 0v1434h207l754 -1153v1153h174v-1434h-182l-778 1190v-1190h-175zM623 -186q0 38 27 64t65 26q48 0 78 -39.5t30 -104.5q0 -86 -49 -144.5t-143 -61.5v86q49 3 75 21.5t33 59.5q-52 3 -84 27t-32 66z" />
    <glyph glyph-name="Odieresis.ss02" horiz-adv-x="1476" 
d="M739 -14q-304 0 -485.5 199t-181.5 532t181.5 532t485.5 199q303 0 484.5 -199t181.5 -532t-181.5 -532t-484.5 -199zM260 717q0 -260 131.5 -418t347.5 -158t347 157.5t131 418.5t-131 418t-347 157t-347.5 -157.5t-131.5 -417.5zM469 1692q0 44 30 74t74 30
q43 0 73 -30t30 -74q0 -43 -30 -73t-73 -30q-44 0 -74 30t-30 73zM803 1692q0 44 29.5 74t72.5 30q44 0 74.5 -30t30.5 -74q0 -43 -30.5 -73t-74.5 -30q-43 0 -72.5 30t-29.5 73z" />
    <glyph glyph-name="uni0156.ss02" horiz-adv-x="1224" 
d="M147 0v1434h484q233 0 367.5 -112.5t134.5 -313.5q0 -154 -87 -258.5t-217 -137.5l355 -612h-199l-317 565h-338v-565h-183zM330 713h303q141 0 226 75.5t85 210.5q0 138 -91 212.5t-259 74.5h-264v-573zM539 -186q0 38 27 64t65 26q48 0 78 -39.5t30 -104.5
q0 -86 -49 -144.5t-143 -61.5v86q49 3 75 21.5t33 59.5q-52 3 -84 27t-32 66z" />
    <glyph glyph-name="uni0218.ss02" horiz-adv-x="1169" 
d="M616 -12q-218 0 -375 116t-194 304l170 43q31 -143 138.5 -229.5t262.5 -86.5q135 0 222.5 65t87.5 183q0 44 -13 78.5t-32.5 58t-55.5 44.5t-67.5 34t-83.5 31l-223 73q-70 23 -120 45.5t-96.5 54t-75 68t-45 87t-16.5 112.5q0 168 129.5 273.5t343.5 105.5
q207 0 340 -98.5t183 -251.5l-174 -39q-36 104 -126 172.5t-233 68.5q-128 0 -206 -58.5t-78 -158.5q0 -90 57.5 -138t183.5 -89l230 -78q84 -29 141 -57.5t110 -73t79 -107.5t26 -147q0 -181 -130.5 -293t-359.5 -112zM530 -186q0 38 27 64t66 26q48 0 78 -39.5t30 -104.5
q0 -86 -49 -144.5t-143 -61.5v86q49 3 75 21.5t33 59.5q-52 3 -84.5 27t-32.5 66z" />
    <glyph glyph-name="uni021A.ss02" horiz-adv-x="1169" 
d="M494 0v1286h-461v148h1104v-148h-461v-1286h-182zM500 -186q0 38 27 64t65 26q48 0 78 -39.5t30 -104.5q0 -86 -49 -144.5t-143 -61.5v86q49 3 75 21.5t33 59.5q-52 3 -84 27t-32 66z" />
    <glyph glyph-name="Udieresis.ss02" horiz-adv-x="1429" 
d="M717 -16q-274 0 -426 147.5t-152 411.5v891h183v-889q0 -197 103 -301.5t292 -104.5q190 0 293.5 104.5t103.5 301.5v889h178v-891q0 -264 -151.5 -411.5t-423.5 -147.5zM457 1692q0 44 30 74t74 30q43 0 73 -30t30 -74q0 -43 -30 -73t-73 -30q-44 0 -74 30t-30 73z
M791 1692q0 44 29.5 74t72.5 30q44 0 74 -30t30 -74q0 -43 -30 -73t-74 -30q-43 0 -72.5 30t-29.5 73z" />
    <glyph glyph-name="Wdieresis.ss02" horiz-adv-x="1910" 
d="M406 0l-377 1434h176l313 -1182l359 1182h174l358 -1172l299 1172h174l-362 -1434h-189l-370 1198l-365 -1198h-190zM690 1692q0 44 30.5 74t74.5 30q43 0 72.5 -30t29.5 -74q0 -43 -29.5 -73t-72.5 -30q-44 0 -74.5 30t-30.5 73zM1024 1692q0 44 29.5 74t72.5 30
q44 0 74.5 -30t30.5 -74q0 -43 -30.5 -73t-74.5 -30q-43 0 -72.5 30t-29.5 73z" />
    <glyph glyph-name="Ydieresis.ss02" horiz-adv-x="1161" 
d="M489 659l-483 775h191l387 -623l389 623h182l-483 -775v-659h-183v659zM313 1692q0 44 30.5 74t74.5 30q43 0 72.5 -30t29.5 -74q0 -43 -29.5 -73t-72.5 -30q-44 0 -74.5 30t-30.5 73zM647 1692q0 44 30 74t73 30q44 0 74 -30t30 -74q0 -43 -30 -73t-74 -30q-43 0 -73 30
t-30 73z" />
    <glyph glyph-name="Zdotaccent.ss02" horiz-adv-x="1177" 
d="M41 147l877 1139h-867v148h1073v-148l-872 -1139h885v-147h-1096v147zM483 1700q0 46 32.5 78t78.5 32q47 0 79 -32t32 -78t-32 -78.5t-79 -32.5q-46 0 -78.5 32.5t-32.5 78.5z" />
    <glyph glyph-name="i.loclTRK" horiz-adv-x="436" 
d="M131 0v1032h174v-1032h-174zM127 1176v206h184v-206h-184z" />
    <glyph glyph-name="i.latn_TRK" horiz-adv-x="436" 
d="M131 0v1032h174v-1032h-174zM127 1176v206h184v-206h-184z" />
    <glyph glyph-name="a.ss01" horiz-adv-x="1163" 
d="M858 0v225q-53 -112 -147 -175.5t-222 -63.5q-192 0 -313 144.5t-121 387.5q0 239 124.5 384t307.5 145q126 0 222 -63.5t149 -178.5v227h174v-1032h-174zM238 518q0 -180 82 -286.5t217 -106.5q139 0 228 108.5t89 278.5q0 171 -90.5 283t-222.5 112q-135 0 -219 -105.5
t-84 -283.5z" />
    <glyph glyph-name="aacute.ss01" horiz-adv-x="1163" 
d="M858 0v225q-53 -112 -147 -175.5t-222 -63.5q-192 0 -313 144.5t-121 387.5q0 239 124.5 384t307.5 145q126 0 222 -63.5t149 -178.5v227h174v-1032h-174zM238 518q0 -180 82 -286.5t217 -106.5q139 0 228 108.5t89 278.5q0 171 -90.5 283t-222.5 112q-135 0 -219 -105.5
t-84 -283.5zM469 1151l113 244h184l-145 -244h-152z" />
    <glyph glyph-name="abreve.ss01" horiz-adv-x="1163" 
d="M858 0v225q-53 -112 -147 -175.5t-222 -63.5q-192 0 -313 144.5t-121 387.5q0 239 124.5 384t307.5 145q126 0 222 -63.5t149 -178.5v227h174v-1032h-174zM238 518q0 -180 82 -286.5t217 -106.5q139 0 228 108.5t89 278.5q0 171 -90.5 283t-222.5 112q-135 0 -219 -105.5
t-84 -283.5zM301 1403h127q0 -73 37.5 -116.5t99.5 -43.5q63 0 101.5 43.5t38.5 116.5h126q0 -123 -73.5 -198t-192.5 -75q-117 0 -190.5 75t-73.5 198z" />
    <glyph glyph-name="acircumflex.ss01" horiz-adv-x="1163" 
d="M858 0v225q-53 -112 -147 -175.5t-222 -63.5q-192 0 -313 144.5t-121 387.5q0 239 124.5 384t307.5 145q126 0 222 -63.5t149 -178.5v227h174v-1032h-174zM238 518q0 -180 82 -286.5t217 -106.5q139 0 228 108.5t89 278.5q0 171 -90.5 283t-222.5 112q-135 0 -219 -105.5
t-84 -283.5zM283 1151l204 244h154l205 -244h-166l-115 160l-119 -160h-163z" />
    <glyph glyph-name="adieresis.ss01" horiz-adv-x="1163" 
d="M858 0v225q-53 -112 -147 -175.5t-222 -63.5q-192 0 -313 144.5t-121 387.5q0 239 124.5 384t307.5 145q126 0 222 -63.5t149 -178.5v227h174v-1032h-174zM238 518q0 -180 82 -286.5t217 -106.5q139 0 228 108.5t89 278.5q0 171 -90.5 283t-222.5 112q-135 0 -219 -105.5
t-84 -283.5zM338 1176v206h145v-206h-145zM635 1176v206h145v-206h-145z" />
    <glyph glyph-name="agrave.ss01" horiz-adv-x="1163" 
d="M858 0v225q-53 -112 -147 -175.5t-222 -63.5q-192 0 -313 144.5t-121 387.5q0 239 124.5 384t307.5 145q126 0 222 -63.5t149 -178.5v227h174v-1032h-174zM238 518q0 -180 82 -286.5t217 -106.5q139 0 228 108.5t89 278.5q0 171 -90.5 283t-222.5 112q-135 0 -219 -105.5
t-84 -283.5zM367 1395h182l115 -244h-152z" />
    <glyph glyph-name="amacron.ss01" horiz-adv-x="1163" 
d="M858 0v225q-53 -112 -147 -175.5t-222 -63.5q-192 0 -313 144.5t-121 387.5q0 239 124.5 384t307.5 145q126 0 222 -63.5t149 -178.5v227h174v-1032h-174zM238 518q0 -180 82 -286.5t217 -106.5q139 0 228 108.5t89 278.5q0 171 -90.5 283t-222.5 112q-135 0 -219 -105.5
t-84 -283.5zM319 1194v117h496v-117h-496z" />
    <glyph glyph-name="aogonek.ss01" horiz-adv-x="1163" 
d="M858 0v225q-53 -112 -147 -175.5t-222 -63.5q-192 0 -313 144.5t-121 387.5q0 239 124.5 384t307.5 145q126 0 222 -63.5t149 -178.5v227h174v-1032h-61q-90 -90 -90 -166q0 -45 27.5 -72.5t70.5 -27.5q31 0 65 12l52 -106q-52 -41 -129 -41q-87 0 -145 51.5t-58 138.5
q0 61 23 108t71 103zM238 518q0 -180 82 -286.5t217 -106.5q139 0 228 108.5t89 278.5q0 171 -90.5 283t-222.5 112q-135 0 -219 -105.5t-84 -283.5z" />
    <glyph glyph-name="aring.ss01" horiz-adv-x="1163" 
d="M858 0v225q-53 -112 -147 -175.5t-222 -63.5q-192 0 -313 144.5t-121 387.5q0 239 124.5 384t307.5 145q126 0 222 -63.5t149 -178.5v227h174v-1032h-174zM238 518q0 -180 82 -286.5t217 -106.5q139 0 228 108.5t89 278.5q0 171 -90.5 283t-222.5 112q-135 0 -219 -105.5
t-84 -283.5zM387 1282q0 77 47.5 120.5t132.5 43.5q83 0 129.5 -43.5t46.5 -120.5t-46.5 -120.5t-129.5 -43.5q-85 0 -132.5 43.5t-47.5 120.5zM489 1282q0 -37 20 -58.5t58 -21.5q35 0 54.5 21.5t19.5 58.5q0 38 -19.5 59t-54.5 21q-78 0 -78 -80z" />
    <glyph glyph-name="atilde.ss01" horiz-adv-x="1163" 
d="M858 0v225q-53 -112 -147 -175.5t-222 -63.5q-192 0 -313 144.5t-121 387.5q0 239 124.5 384t307.5 145q126 0 222 -63.5t149 -178.5v227h174v-1032h-174zM238 518q0 -180 82 -286.5t217 -106.5q139 0 228 108.5t89 278.5q0 171 -90.5 283t-222.5 112q-135 0 -219 -105.5
t-84 -283.5zM272 1188q10 90 52 138t110 48q40 0 76 -15.5t59 -34.5t53 -34.5t60 -15.5q62 0 68 96l110 -33q-5 -88 -43.5 -136t-109.5 -48q-39 0 -76 16t-60.5 35t-52.5 35t-55 16q-60 0 -80 -100z" />
    <glyph glyph-name="adieresis.ss02" horiz-adv-x="1036" 
d="M748 686q0 103 -58 161t-170 58q-206 0 -274 -188l-160 41q42 128 158 208.5t286 80.5q189 0 291.5 -94t102.5 -269v-684h-176v195q-58 -98 -159.5 -153.5t-219.5 -55.5q-138 0 -229 72t-91 198q0 78 30 135.5t88 93t132 55t172 27.5q137 12 202 32t75 67v20zM236 279
q0 -82 58 -123t144 -41q117 0 207 79t103 218v125q-63 -72 -230 -88q-73 -6 -119 -14.5t-86 -26.5t-58.5 -49.5t-18.5 -79.5zM268 1290q0 44 30.5 74.5t74.5 30.5q43 0 72.5 -30.5t29.5 -74.5q0 -43 -29.5 -72.5t-72.5 -29.5q-44 0 -74.5 29.5t-30.5 72.5zM602 1290
q0 44 30 74.5t73 30.5q44 0 74 -30.5t30 -74.5q0 -43 -30 -72.5t-74 -29.5q-43 0 -73 29.5t-30 72.5z" />
    <glyph glyph-name="cdotaccent.ss02" horiz-adv-x="1056" 
d="M563 -14q-105 0 -197.5 37t-161.5 104t-109 167.5t-40 221.5t38.5 221.5t105.5 168t159 104.5t199 37q170 0 289.5 -92t157.5 -240l-173 -43q-27 110 -99.5 171.5t-180.5 61.5q-136 0 -223.5 -106.5t-87.5 -278.5q0 -185 94 -289t235 -104q103 0 175.5 63.5t105.5 171.5
l164 -40q-44 -148 -161 -242t-290 -94zM442 1298q0 46 32.5 78.5t78.5 32.5q47 0 79 -32.5t32 -78.5t-32 -78t-79 -32q-46 0 -78.5 32t-32.5 78z" />
    <glyph glyph-name="edieresis.ss02" horiz-adv-x="1073" 
d="M557 -14q-224 0 -363 144t-139 386q0 147 59.5 267t173.5 192t263 72q206 0 332.5 -134.5t126.5 -337.5q0 -39 -6 -77h-768q6 -179 97 -277t230 -98q203 0 287 217l160 -39q-42 -135 -158 -225t-295 -90zM246 629h585q-11 122 -87 201t-197 79q-118 0 -197.5 -76
t-103.5 -204zM299 1290q0 44 30 74.5t74 30.5q43 0 73 -30.5t30 -74.5q0 -43 -30 -72.5t-73 -29.5q-44 0 -74 29.5t-30 72.5zM633 1290q0 44 29.5 74.5t72.5 30.5q44 0 74.5 -30.5t30.5 -74.5q0 -43 -30.5 -72.5t-74.5 -29.5q-43 0 -72.5 29.5t-29.5 72.5z" />
    <glyph glyph-name="edotaccent.ss02" horiz-adv-x="1073" 
d="M557 -14q-224 0 -363 144t-139 386q0 147 59.5 267t173.5 192t263 72q206 0 332.5 -134.5t126.5 -337.5q0 -39 -6 -77h-768q6 -179 97 -277t230 -98q203 0 287 217l160 -39q-42 -135 -158 -225t-295 -90zM246 629h585q-11 122 -87 201t-197 79q-118 0 -197.5 -76
t-103.5 -204zM459 1298q0 46 32 78.5t78 32.5q47 0 79 -32.5t32 -78.5t-32 -78t-79 -32q-46 0 -78 32t-32 78z" />
    <glyph glyph-name="uni0123.ss02" horiz-adv-x="1167" 
d="M582 -424q-187 0 -310.5 85.5t-162.5 236.5l157 39q67 -220 314 -220q127 0 203.5 79.5t76.5 230.5v194q-53 -111 -146 -173t-220 -62q-192 0 -313.5 144.5t-121.5 387.5q0 239 125 384t308 145q125 0 220 -62t148 -176v223h176v-993q0 -225 -121.5 -344t-332.5 -119z
M242 518q0 -180 82 -286.5t217 -106.5q139 0 228 108.5t89 278.5q0 171 -90.5 283t-222.5 112q-135 0 -219 -105.5t-84 -283.5zM469 1288q0 86 49.5 145t143.5 62v-86q-49 -3 -75.5 -22t-33.5 -60q52 -3 84.5 -26.5t32.5 -65.5q0 -38 -27 -64t-65 -26q-48 0 -78.5 39
t-30.5 104z" />
    <glyph glyph-name="gdotaccent.ss02" horiz-adv-x="1167" 
d="M582 -424q-187 0 -310.5 85.5t-162.5 236.5l157 39q67 -220 314 -220q127 0 203.5 79.5t76.5 230.5v194q-53 -111 -146 -173t-220 -62q-192 0 -313.5 144.5t-121.5 387.5q0 239 125 384t308 145q125 0 220 -62t148 -176v223h176v-993q0 -225 -121.5 -344t-332.5 -119z
M242 518q0 -180 82 -286.5t217 -106.5q139 0 228 108.5t89 278.5q0 171 -90.5 283t-222.5 112q-135 0 -219 -105.5t-84 -283.5zM459 1298q0 46 32 78.5t78 32.5q47 0 79 -32.5t32 -78.5t-32 -78t-79 -32q-46 0 -78 32t-32 78z" />
    <glyph glyph-name="i.ss02" horiz-adv-x="436" 
d="M131 0v1032h174v-1032h-174zM106 1298q0 46 32.5 78.5t78.5 32.5q47 0 79 -32.5t32 -78.5t-32 -78t-79 -32q-46 0 -78.5 32t-32.5 78z" />
    <glyph glyph-name="idieresis.ss02" horiz-adv-x="436" 
d="M131 0v1032h174v-1032h-174zM-51 1290q0 44 30 74.5t74 30.5q43 0 73 -30.5t30 -74.5q0 -43 -30 -72.5t-73 -29.5q-44 0 -74 29.5t-30 72.5zM283 1290q0 44 29.5 74.5t72.5 30.5q44 0 74 -30.5t30 -74.5q0 -43 -30 -72.5t-74 -29.5q-43 0 -72.5 29.5t-29.5 72.5z" />
    <glyph glyph-name="iogonek.ss02" horiz-adv-x="436" 
d="M131 0v1032h174v-1032h-63q-90 -90 -90 -166q0 -45 27.5 -72.5t70.5 -27.5q30 0 65 12l52 -106q-52 -41 -129 -41q-87 0 -145 51.5t-58 138.5q0 61 23 108t71 103h2zM106 1298q0 46 32.5 78.5t78.5 32.5q47 0 79 -32.5t32 -78.5t-32 -78t-79 -32q-46 0 -78.5 32t-32.5 78
z" />
    <glyph glyph-name="j.ss02" horiz-adv-x="442" 
d="M-63 -410v148h67q72 0 101.5 34t29.5 109v1151h176v-1157q0 -285 -291 -285h-83zM113 1298q0 46 32 78.5t78 32.5q47 0 79 -32.5t32 -78.5t-32 -78t-79 -32q-46 0 -78 32t-32 78z" />
    <glyph glyph-name="uni0137.ss02" horiz-adv-x="995" 
d="M131 0v1434h176v-871l475 469h209l-469 -463l469 -569h-196l-381 461l-107 -105v-356h-176zM418 -186q0 38 27 64t65 26q48 0 78 -39.5t30 -104.5q0 -86 -49 -144.5t-143 -61.5v86q49 3 75.5 21.5t33.5 59.5q-52 3 -84.5 27t-32.5 66z" />
    <glyph glyph-name="uni013C.ss02" horiz-adv-x="438" 
d="M131 0v1434h176v-1434h-176zM135 -186q0 38 27 64t65 26q48 0 78.5 -39.5t30.5 -104.5q0 -86 -49 -144.5t-144 -61.5v86q49 3 75.5 21.5t33.5 59.5q-52 3 -84.5 27t-32.5 66z" />
    <glyph glyph-name="uni0146.ss02" horiz-adv-x="1105" 
d="M131 0v1032h174v-231q64 111 164 178.5t225 67.5q140 0 212.5 -91.5t72.5 -269.5v-686h-174v664q0 129 -48 183t-141 54q-114 0 -198.5 -90.5t-112.5 -220.5v-590h-174zM475 -186q0 38 27 64t65 26q48 0 78.5 -39.5t30.5 -104.5q0 -86 -49 -144.5t-144 -61.5v86
q49 3 75.5 21.5t33.5 59.5q-52 3 -84.5 27t-32.5 66z" />
    <glyph glyph-name="odieresis.ss02" horiz-adv-x="1114" 
d="M557 -12q-106 0 -198.5 37.5t-159.5 105.5t-105.5 167.5t-38.5 217.5q0 238 142.5 384.5t359.5 146.5t359.5 -146.5t142.5 -384.5q0 -118 -38.5 -217.5t-105.5 -167.5t-159.5 -105.5t-198.5 -37.5zM240 516q0 -184 87 -286.5t230 -102.5q144 0 232 102.5t88 286.5
t-88 286.5t-232 102.5q-143 0 -230 -102.5t-87 -286.5zM287 1290q0 44 30 74.5t74 30.5q43 0 73 -30.5t30 -74.5q0 -43 -30 -72.5t-73 -29.5q-44 0 -74 29.5t-30 72.5zM621 1290q0 44 29.5 74.5t72.5 30.5q44 0 74 -30.5t30 -74.5q0 -43 -30 -72.5t-74 -29.5
q-43 0 -72.5 29.5t-29.5 72.5z" />
    <glyph glyph-name="uni0157.ss02" horiz-adv-x="688" 
d="M131 0v1032h176v-278q48 136 135.5 214.5t210.5 78.5h4v-183q-166 0 -258 -99t-92 -300v-465h-176zM135 -186q0 38 27 64t65 26q48 0 78.5 -39.5t30.5 -104.5q0 -86 -49 -144.5t-144 -61.5v86q49 3 75.5 21.5t33.5 59.5q-52 3 -84.5 27t-32.5 66z" />
    <glyph glyph-name="uni0219.ss02" horiz-adv-x="940" 
d="M498 -14q-188 0 -303.5 86t-153.5 221l162 41q71 -215 299 -215q107 0 166 44.5t59 123.5q0 66 -46.5 102.5t-143.5 61.5l-166 41q-72 17 -122 37t-90.5 50.5t-60.5 74t-20 102.5q0 132 102.5 211.5t270.5 79.5q169 0 278.5 -74t149.5 -199l-164 -39q-29 83 -96 130.5
t-173 47.5q-94 0 -151 -40t-57 -109q0 -61 43.5 -94t124.5 -52l188 -45q147 -34 220 -99.5t73 -178.5q0 -139 -102 -224t-287 -85zM393 -186q0 38 27 64t65 26q48 0 78.5 -39.5t30.5 -104.5q0 -86 -49 -144.5t-144 -61.5v86q49 3 75.5 21.5t33.5 59.5q-52 3 -84.5 27
t-32.5 66z" />
    <glyph glyph-name="uni021B.ss02" horiz-adv-x="610" 
d="M444 0q-137 0 -213.5 74.5t-76.5 210.5v604h-129v143h129v207l174 76v-283h245v-143h-245v-598q0 -68 35 -106t96 -38h114v-147h-129zM342 -186q0 38 27 64t65 26q48 0 78.5 -39.5t30.5 -104.5q0 -86 -49 -144.5t-144 -61.5v86q49 3 75.5 21.5t33.5 59.5q-52 3 -84.5 27
t-32.5 66z" />
    <glyph glyph-name="udieresis.ss02" horiz-adv-x="1105" 
d="M975 1032v-1032h-174v236q-63 -113 -164 -181.5t-227 -68.5q-140 0 -212.5 91t-72.5 269v686h174v-663q0 -129 47.5 -183.5t140.5 -54.5q117 0 203.5 94.5t110.5 227.5v579h174zM274 1290q0 44 30.5 74.5t74.5 30.5q43 0 72.5 -30.5t29.5 -74.5q0 -43 -29.5 -72.5
t-72.5 -29.5q-44 0 -74.5 29.5t-30.5 72.5zM608 1290q0 44 30 74.5t73 30.5q44 0 74 -30.5t30 -74.5q0 -43 -30 -72.5t-74 -29.5q-43 0 -73 29.5t-30 72.5z" />
    <glyph glyph-name="wdieresis.ss02" horiz-adv-x="1435" 
d="M309 0l-291 1032h164l221 -788l242 788h156l231 -784l225 784h160l-295 -1032h-159l-246 821l-250 -821h-158zM451 1290q0 44 30 74.5t74 30.5q43 0 72.5 -30.5t29.5 -74.5q0 -43 -29.5 -72.5t-72.5 -29.5q-44 0 -74 29.5t-30 72.5zM784 1290q0 44 30 74.5t73 30.5
q44 0 74 -30.5t30 -74.5q0 -43 -30 -72.5t-74 -29.5q-43 0 -73 29.5t-30 72.5z" />
    <glyph glyph-name="ydieresis.ss02" horiz-adv-x="980" 
d="M106 -410v148h95q44 0 74 9.5t51.5 32t34.5 47.5t30 69l35 92l-418 1044h168l330 -825l303 825h162l-416 -1130q-33 -89 -60.5 -141.5t-67.5 -94.5t-93.5 -59t-130.5 -17h-97zM242 1290q0 44 30 74.5t74 30.5q43 0 73 -30.5t30 -74.5q0 -43 -30 -72.5t-73 -29.5
q-44 0 -74 29.5t-30 72.5zM575 1290q0 44 30 74.5t73 30.5q44 0 74 -30.5t30 -74.5q0 -43 -30 -72.5t-74 -29.5q-43 0 -73 29.5t-30 72.5z" />
    <glyph glyph-name="zdotaccent.ss02" horiz-adv-x="868" 
d="M37 0v139l577 750h-561v143h766v-139l-579 -752h589v-141h-792zM340 1298q0 46 32.5 78.5t78.5 32.5q47 0 78.5 -32.5t31.5 -78.5t-31.5 -78t-78.5 -32q-46 0 -78.5 32t-32.5 78z" />
    <glyph glyph-name="i.latn_TRK.ss02" horiz-adv-x="436" 
d="M131 0v1032h174v-1032h-174zM106 1298q0 46 32.5 78.5t78.5 32.5q47 0 79 -32.5t32 -78.5t-32 -78t-79 -32q-46 0 -78.5 32t-32.5 78z" />
    <glyph glyph-name="adieresis.ss01.ss02" horiz-adv-x="1163" 
d="M858 0v225q-53 -112 -147 -175.5t-222 -63.5q-192 0 -313 144.5t-121 387.5q0 239 124.5 384t307.5 145q126 0 222 -63.5t149 -178.5v227h174v-1032h-174zM238 518q0 -180 82 -286.5t217 -106.5q139 0 228 108.5t89 278.5q0 171 -90.5 283t-222.5 112q-135 0 -219 -105.5
t-84 -283.5zM295 1290q0 44 30 74.5t74 30.5q43 0 73 -30.5t30 -74.5q0 -43 -30 -72.5t-73 -29.5q-44 0 -74 29.5t-30 72.5zM629 1290q0 44 29.5 74.5t72.5 30.5q44 0 74.5 -30.5t30.5 -74.5q0 -43 -30.5 -72.5t-74.5 -29.5q-43 0 -72.5 29.5t-29.5 72.5z" />
    <glyph glyph-name="s_s" horiz-adv-x="2011" 
d="M1565 -14q-78 0 -138 11t-113.5 43.5t-90 63.5t-84.5 101t-80 125t-92 164q-70 126 -137 211t-130 129t-118.5 61.5t-118.5 17.5q-99 0 -163 -45.5t-64 -119.5q0 -65 43.5 -98t123.5 -46l215 -31q291 -46 291 -276q0 -135 -105 -223t-290 -88q-171 0 -297.5 83.5
t-175.5 213.5l170 41q37 -90 116 -147.5t195 -57.5q106 0 167 47t61 121q0 65 -47.5 101.5t-143.5 51.5l-190 31q-143 21 -218 84.5t-75 185.5q0 134 113 220t284 86q96 0 170.5 -27.5t143.5 -93.5t129 -155t139 -234q127 -233 243 -325.5t273 -92.5q106 0 166.5 47
t60.5 121q0 65 -47 101.5t-143 51.5l-191 31q-143 21 -218 84.5t-75 185.5q0 134 113 220t285 86q158 0 276 -77t152 -188l-162 -39q-29 79 -104 124.5t-173 45.5q-99 0 -163 -45.5t-64 -119.5q0 -64 44 -97.5t122 -46.5l215 -31q148 -23 220.5 -91t72.5 -185
q0 -134 -105 -222.5t-288 -88.5z" />
    <glyph glyph-name="w_w_w" horiz-adv-x="3991" 
d="M309 0l-291 1032h164l221 -788l242 788h156l231 -784l225 784h203l221 -788l242 788h156l231 -784l225 784h203l221 -788l242 788h156l231 -784l225 784h160l-295 -1032h-160l-245 821l-250 -821h-158l-231 819l-234 -819h-159l-246 821l-250 -821h-158l-231 819
l-234 -819h-159l-246 821l-250 -821h-158z" />
    <glyph glyph-name="f_f_i.ss02" horiz-adv-x="1628" 
d="M1307 0v1032h174v-1032h-174zM27 889v143h137v123q0 285 291 285h137v-148h-121q-72 0 -101.5 -34.5t-29.5 -108.5v-117h395v123q0 285 291 285h137v-148h-121q-72 0 -101.5 -34.5t-29.5 -108.5v-117h240v-143h-240v-889h-176v889h-395v-889h-176v889h-137zM1282 1298
q0 46 32.5 78.5t78.5 32.5q47 0 78.5 -32.5t31.5 -78.5t-31.5 -78t-78.5 -32q-46 0 -78.5 32t-32.5 78z" />
    <glyph glyph-name="f_i.ss02" horiz-adv-x="1056" 
d="M164 1155q0 285 291 285h137v-148h-121q-72 0 -101.5 -34.5t-29.5 -108.5v-117h240v-143h-240v-889h-176v889h-137v143h137v123zM711 1298q0 46 32 78.5t78 32.5q47 0 79 -32.5t32 -78.5t-32 -78t-79 -32q-46 0 -78 32t-32 78zM735 0v1032h174v-1032h-174z" />
    <glyph glyph-name="zero.zero" horiz-adv-x="1212" 
d="M606 -14q-237 0 -379.5 193.5t-142.5 533.5q0 344 142.5 539.5t379.5 195.5t380.5 -195.5t143.5 -539.5q0 -339 -143.5 -533t-380.5 -194zM270 713q0 -200 52 -342l518 790q-85 131 -234 131q-155 0 -245.5 -149t-90.5 -430zM387 252q85 -111 219 -111q154 0 245 148.5
t91 423.5q0 193 -43 321z" />
    <glyph glyph-name="zero.slash" horiz-adv-x="1212" 
d="M606 -14q-237 0 -379.5 193.5t-142.5 533.5q0 344 142.5 539.5t379.5 195.5t380.5 -195.5t143.5 -539.5q0 -339 -143.5 -533t-380.5 -194zM270 713q0 -200 52 -342l518 790q-85 131 -234 131q-155 0 -245.5 -149t-90.5 -430zM387 252q85 -111 219 -111q154 0 245 148.5
t91 423.5q0 193 -43 321z" />
    <glyph glyph-name="zero.tf" horiz-adv-x="1228" 
d="M614 -14q-237 0 -379.5 193.5t-142.5 533.5q0 344 142.5 539.5t379.5 195.5t381 -196t144 -539q0 -339 -144 -533t-381 -194zM279 713q0 -276 90.5 -424t244.5 -148t245 148.5t91 423.5q0 281 -90.5 430t-245.5 149t-245 -149t-90 -430z" />
    <glyph glyph-name="one.tf" horiz-adv-x="1228" 
d="M197 0v156h346v1036q-34 -109 -116.5 -162t-229.5 -53v168q191 0 267.5 66t76.5 223h182v-1278h346v-156h-872z" />
    <glyph glyph-name="two.tf" horiz-adv-x="1228" 
d="M121 45q0 143 43 253.5t111 179t151 122.5t166 97.5t151 88.5t111 110.5t43 150.5q0 112 -74.5 178.5t-195.5 66.5q-127 0 -208.5 -73.5t-111.5 -188.5l-172 43q47 168 178.5 271.5t335.5 103.5q193 0 313.5 -103.5t120.5 -291.5q0 -81 -24 -147t-64.5 -113.5t-94 -87.5
t-114 -73.5t-122 -66.5t-120.5 -73t-107 -85.5t-84 -111t-50 -143.5h813l-41 -152h-954v45z" />
    <glyph glyph-name="three.tf" horiz-adv-x="1228" 
d="M618 -14q-205 0 -349.5 99t-186.5 277l174 44q34 -122 130 -193.5t235 -71.5q140 0 219.5 69t79.5 198q0 119 -83.5 192.5t-240.5 73.5h-139l28 143h119q120 0 197.5 66t77.5 184q0 102 -73.5 163.5t-193.5 61.5q-122 0 -200 -64t-101 -179l-168 43q28 158 160 257
t318 99q203 0 322.5 -97t119.5 -261q0 -122 -73.5 -208.5t-194.5 -119.5q139 -28 226 -126.5t87 -234.5q0 -191 -130 -303t-360 -112z" />
    <glyph glyph-name="four.tf" horiz-adv-x="1228" 
d="M84 516l639 918h215v-918h215l-27 -147h-188v-369h-180v369h-674v147zM262 516h496v721z" />
    <glyph glyph-name="five.tf" horiz-adv-x="1228" 
d="M621 -14q-190 0 -324 103.5t-174 272.5l174 44q34 -122 118.5 -194.5t209.5 -72.5q135 0 219 94t84 242q0 152 -79 244t-210 92q-101 0 -185.5 -60t-121.5 -157h-189l117 840h813l-20 -148h-629l-76 -518q60 88 151 136t197 48q194 0 307 -130t113 -345
q0 -219 -136.5 -355t-358.5 -136z" />
    <glyph glyph-name="six.tf" horiz-adv-x="1228" 
d="M645 -14q-107 0 -201 40t-167 117t-115.5 202t-42.5 284q0 249 62 432.5t185.5 285t297.5 101.5q171 0 285.5 -89t156.5 -243l-174 -41q-69 217 -279 217q-339 0 -368 -667q47 131 157 209.5t244 78.5q196 0 315 -119.5t119 -324.5q0 -216 -129 -349.5t-346 -133.5z
M322 461q0 -138 94.5 -229t222.5 -91q132 0 212.5 87t80.5 233q0 145 -78.5 229t-214.5 84q-83 0 -154.5 -37t-117 -110t-45.5 -166z" />
    <glyph glyph-name="seven.tf" horiz-adv-x="1228" 
d="M229 0l645 1286h-677l-29 148h893v-148l-645 -1286h-187z" />
    <glyph glyph-name="eight.tf" horiz-adv-x="1228" 
d="M614 -12q-238 0 -373 105t-135 292q0 141 90.5 238.5t241.5 124.5q-122 26 -199 112t-77 215q0 167 122.5 270t329.5 103t330 -103t123 -270q0 -124 -75 -213t-197 -114q147 -26 236 -122t89 -229q0 -195 -133.5 -302t-372.5 -107zM295 397q0 -121 85 -188.5t234 -67.5
q148 0 233 70t85 199q0 112 -87.5 187t-230.5 75q-146 0 -232.5 -76t-86.5 -199zM348 1061q0 -110 71.5 -175t194.5 -65t195 65t72 175q0 104 -72.5 167.5t-194.5 63.5t-194 -63.5t-72 -167.5z" />
    <glyph glyph-name="nine.tf" horiz-adv-x="1228" 
d="M586 1448q107 0 201 -40t167 -117t115.5 -202t42.5 -284q0 -249 -62 -432.5t-185.5 -285t-297.5 -101.5q-171 0 -285.5 88.5t-156.5 242.5l174 41q69 -217 279 -217q339 0 368 668q-47 -131 -157 -210t-244 -79q-196 0 -315 120t-119 325q0 216 129 349.5t346 133.5z
M299 973q0 -145 78.5 -229.5t214.5 -84.5q83 0 154.5 37.5t117 110.5t45.5 166q0 137 -94.5 228t-222.5 91q-133 0 -213 -86.5t-80 -232.5z" />
    <glyph glyph-name="zero.tf.zero" horiz-adv-x="1228" 
d="M614 -14q-237 0 -379.5 193.5t-142.5 533.5q0 344 142.5 539.5t379.5 195.5t381 -196t144 -539q0 -339 -144 -533t-381 -194zM279 713q0 -203 51 -342l518 790q-85 131 -234 131q-155 0 -245 -149t-90 -430zM395 252q85 -111 219 -111q154 0 245 148.5t91 423.5
q0 193 -43 321z" />
    <glyph glyph-name="zero.dnom" horiz-adv-x="782" 
d="M391 -10q-151 0 -239.5 113.5t-88.5 308.5q0 196 88.5 310t239.5 114t238.5 -114t87.5 -310q0 -195 -87.5 -308.5t-238.5 -113.5zM207 412q0 -150 48 -230t136 -80t136 80t48 230q0 153 -48 233t-136 80t-136 -80t-48 -233z" />
    <glyph glyph-name="one.dnom" horiz-adv-x="477" 
d="M8 621q49 0 82 7t63.5 27.5t45 63t14.5 108.5h137v-827h-137v616q-24 -65 -73 -93.5t-132 -28.5v127z" />
    <glyph glyph-name="two.dnom" horiz-adv-x="671" 
d="M53 41q2 79 27 141.5t62.5 102t82.5 71.5t89 57t81 50.5t59.5 61t22.5 79.5q0 56 -39 88.5t-106 32.5q-58 0 -101.5 -38t-64.5 -101l-121 30q30 105 111.5 162.5t191.5 57.5q117 0 191.5 -63.5t74.5 -162.5q0 -53 -20 -95.5t-52.5 -71.5t-73 -54.5t-83.5 -51.5t-81 -55
t-69 -72t-45 -95h443l-15 -115h-565v41z" />
    <glyph glyph-name="three.dnom" horiz-adv-x="710" 
d="M358 -8q-126 0 -214 63.5t-113 165.5l121 29q22 -72 72 -111t124 -39q71 0 113.5 38t42.5 102q0 67 -44 103t-124 36h-94l18 100h74q69 0 109 35t40 98q0 52 -39.5 84.5t-105.5 32.5q-67 0 -110 -36.5t-54 -94.5l-115 29q17 96 92.5 152.5t192.5 56.5t197 -57.5
t80 -155.5q0 -70 -42 -122.5t-122 -72.5q83 -18 133.5 -71t50.5 -130q0 -106 -80 -170.5t-203 -64.5z" />
    <glyph glyph-name="four.dnom" horiz-adv-x="708" 
d="M10 309l381 518h158v-518h131l-14 -102h-117v-207h-135v207h-404v102zM137 309h277v381z" />
    <glyph glyph-name="five.dnom" horiz-adv-x="724" 
d="M379 -8q-125 0 -210.5 59t-107.5 158l129 31q12 -63 59 -100.5t120 -37.5q68 0 113.5 50t45.5 129q0 78 -45.5 125t-115.5 47q-56 0 -99 -31t-61 -78h-119l72 483h463l-15 -114h-350l-43 -277q68 109 199 109q111 0 183.5 -72.5t72.5 -193.5q0 -131 -82 -209t-209 -78z
" />
    <glyph glyph-name="six.dnom" horiz-adv-x="708" 
d="M356 -8q-134 0 -218.5 100t-84.5 268q0 216 93 346t251 130q97 0 164 -53t86 -136l-119 -29q-16 51 -51.5 81t-89.5 30q-96 0 -155 -92.5t-66 -292.5q19 90 83 138t146 48q106 0 175 -74t69 -188q0 -125 -78 -200.5t-205 -75.5zM188 266q0 -74 44.5 -120t111.5 -46
q71 0 114.5 45.5t43.5 120.5q0 72 -41.5 118t-106.5 46q-73 0 -119.5 -46t-46.5 -118z" />
    <glyph glyph-name="seven.dnom" horiz-adv-x="593" 
d="M70 0l374 713h-413l-15 114h570v-114l-375 -713h-141z" />
    <glyph glyph-name="eight.dnom" horiz-adv-x="739" 
d="M369 -10q-140 0 -224 60t-84 161q0 87 56 145.5t153 73.5q-80 17 -127 67t-47 117q0 99 74 160.5t199 61.5q126 0 200 -58.5t74 -156.5q0 -68 -46.5 -121t-119.5 -70q92 -15 146.5 -71.5t54.5 -139.5q0 -105 -84 -167t-225 -62zM203 227q0 -60 46 -95.5t120 -35.5
q75 0 120.5 37t45.5 100q0 66 -45.5 105t-120.5 39q-74 0 -120 -41.5t-46 -108.5zM227 606q0 -55 38 -87t104 -32q68 0 105.5 32.5t37.5 92.5q0 53 -37.5 85t-105.5 32q-63 0 -102.5 -34t-39.5 -89z" />
    <glyph glyph-name="nine.dnom" horiz-adv-x="710" 
d="M358 836q130 0 213.5 -101.5t83.5 -273.5q0 -217 -80 -343t-233 -126q-103 0 -180.5 55t-100.5 148l117 30q19 -56 64.5 -90.5t103.5 -34.5q91 0 137.5 78.5t53.5 253.5q-27 -64 -80.5 -99.5t-130.5 -35.5q-108 0 -182 75t-74 189q0 124 81 199.5t207 75.5zM209 561
q0 -72 40.5 -118t106.5 -46q73 0 119.5 46t46.5 118q0 74 -44 121t-111 47q-72 0 -115 -46.5t-43 -121.5z" />
    <glyph glyph-name="zero.numr" horiz-adv-x="782" 
d="M391 596q-151 0 -239.5 113.5t-88.5 308.5q0 196 88.5 310t239.5 114t238.5 -114t87.5 -310q0 -195 -87.5 -308.5t-238.5 -113.5zM207 1018q0 -150 48 -229.5t136 -79.5t136 79.5t48 229.5q0 153 -48 233t-136 80t-136 -80t-48 -233z" />
    <glyph glyph-name="one.numr" horiz-adv-x="477" 
d="M8 1227q39 0 66.5 4t55.5 16.5t45 35t27.5 60.5t10.5 91h137v-828h-137v617q-24 -65 -73 -94t-132 -29v127z" />
    <glyph glyph-name="two.numr" horiz-adv-x="671" 
d="M53 647q2 79 27 141.5t62.5 102t82.5 71.5t89 57t81 50.5t59.5 61t22.5 79.5q0 56 -39 88.5t-106 32.5q-58 0 -101.5 -38t-64.5 -101l-121 31q30 105 111.5 162t191.5 57q117 0 191.5 -63.5t74.5 -161.5q0 -53 -20 -95.5t-52.5 -71.5t-73 -55t-83.5 -52t-81 -55t-69 -72
t-45 -95h443l-15 -115h-565v41z" />
    <glyph glyph-name="three.numr" horiz-adv-x="710" 
d="M358 598q-126 0 -214 63.5t-113 165.5l121 29q22 -71 72 -110t124 -39q71 0 113.5 37.5t42.5 101.5q0 67 -44 103t-124 36h-94l18 100h74q69 0 109 35.5t40 98.5q0 52 -39 84t-106 32t-110 -36.5t-54 -94.5l-115 29q17 96 92.5 152.5t192.5 56.5t197 -57.5t80 -155.5
q0 -70 -42 -122.5t-122 -72.5q84 -18 134 -71t50 -129q0 -106 -80 -171t-203 -65z" />
    <glyph glyph-name="four.numr" horiz-adv-x="708" 
d="M10 915l381 519h158v-519h131l-14 -102h-117v-207h-135v207h-404v102zM137 915h277v381z" />
    <glyph glyph-name="five.numr" horiz-adv-x="724" 
d="M379 598q-125 0 -210.5 59t-107.5 158l129 31q12 -63 59 -100t120 -37q68 0 113.5 49.5t45.5 128.5q0 78 -45.5 125t-115.5 47q-56 0 -99 -31t-61 -78h-119l72 484h463l-15 -115h-350l-43 -277q68 109 199 109q111 0 183.5 -72.5t72.5 -193.5q0 -131 -82 -209t-209 -78z
" />
    <glyph glyph-name="six.numr" horiz-adv-x="708" 
d="M356 598q-134 0 -218.5 100.5t-84.5 268.5q0 216 93 345.5t251 129.5q97 0 164 -53t86 -136l-119 -28q-35 110 -141 110q-96 0 -155 -92.5t-66 -292.5q19 90 83 138.5t146 48.5q106 0 175 -74.5t69 -188.5q0 -125 -78 -200.5t-205 -75.5zM188 872q0 -74 44.5 -119.5
t111.5 -45.5q71 0 114.5 45t43.5 120q0 72 -41.5 118t-106.5 46q-73 0 -119.5 -46t-46.5 -118z" />
    <glyph glyph-name="seven.numr" horiz-adv-x="593" 
d="M70 606l374 713h-413l-15 115h570v-115l-375 -713h-141z" />
    <glyph glyph-name="eight.numr" horiz-adv-x="739" 
d="M369 596q-140 0 -224 60t-84 161q0 87 56 145.5t153 73.5q-80 17 -127 67.5t-47 117.5q0 99 74 160t199 61q126 0 200 -58.5t74 -156.5q0 -68 -46.5 -121t-119.5 -70q92 -15 146.5 -71.5t54.5 -139.5q0 -105 -84 -167t-225 -62zM203 834q0 -60 46 -96t120 -36
q75 0 120.5 37.5t45.5 100.5q0 66 -45.5 104.5t-120.5 38.5q-74 0 -120 -41t-46 -108zM227 1212q0 -55 38 -86.5t104 -31.5q68 0 105.5 32.5t37.5 92.5q0 53 -37.5 84.5t-105.5 31.5q-63 0 -102.5 -34t-39.5 -89z" />
    <glyph glyph-name="nine.numr" horiz-adv-x="710" 
d="M358 1442q130 0 213.5 -101.5t83.5 -273.5q0 -217 -80 -343t-233 -126q-103 0 -180.5 55t-100.5 148l117 30q19 -56 64.5 -90t103.5 -34q91 0 137.5 78.5t53.5 252.5q-27 -64 -80.5 -99.5t-130.5 -35.5q-108 0 -182 75t-74 189q0 124 81 199.5t207 75.5zM209 1167
q0 -72 40.5 -117.5t106.5 -45.5q73 0 119.5 45.5t46.5 117.5q0 74 -44 121t-111 47q-72 0 -115 -46.5t-43 -121.5z" />
    <glyph glyph-name="space.frac" horiz-adv-x="1228" 
 />
    <glyph glyph-name="uni2007.tf" horiz-adv-x="1228" 
 />
    <glyph glyph-name="periodcentered.case" horiz-adv-x="376" 
d="M100 637v211h176v-211h-176z" />
    <glyph glyph-name="bullet.case" horiz-adv-x="473" 
d="M102 602v272h271v-272h-271z" />
    <glyph glyph-name="period.ss02" horiz-adv-x="385" 
d="M193 -10q-50 0 -81.5 31.5t-31.5 80.5t31.5 80t81.5 31q49 0 79.5 -30.5t30.5 -80.5t-30.5 -81t-79.5 -31z" />
    <glyph glyph-name="comma.ss02" horiz-adv-x="391" 
d="M80 -121q108 7 129 113q-59 0 -94 30.5t-35 81.5q0 47 32 78t81 31q48 0 83 -35t35 -117q0 -125 -67.5 -204.5t-163.5 -79.5v102z" />
    <glyph glyph-name="colon.ss02" horiz-adv-x="385" 
d="M193 633q-50 0 -81.5 31.5t-31.5 80.5t31.5 80t81.5 31q49 0 79.5 -30.5t30.5 -80.5t-30.5 -81t-79.5 -31zM80 102q0 49 31.5 80t81.5 31q49 0 79.5 -30.5t30.5 -80.5t-30.5 -81t-79.5 -31q-50 0 -81.5 31.5t-31.5 80.5z" />
    <glyph glyph-name="semicolon.ss02" horiz-adv-x="391" 
d="M190 633q-50 0 -81 31.5t-31 80.5t31 80t81 31t80.5 -31t30.5 -80q0 -50 -31 -81t-80 -31zM80 -223v102q108 7 129 113q-59 0 -94 30.5t-35 81.5q0 47 32 78t81 31q48 0 83 -35t35 -117q0 -125 -67.5 -204.5t-163.5 -79.5z" />
    <glyph glyph-name="ellipsis.ss02" horiz-adv-x="993" 
d="M193 -10q-50 0 -81.5 31.5t-31.5 80.5t31.5 80t81.5 31q49 0 79.5 -30.5t30.5 -80.5t-30.5 -81t-79.5 -31zM385 102q0 49 31.5 80t81.5 31q49 0 79.5 -30.5t30.5 -80.5t-30.5 -81t-79.5 -31q-50 0 -81.5 31.5t-31.5 80.5zM690 102q0 49 31.5 80t81.5 31q49 0 79.5 -30.5
t30.5 -80.5t-30.5 -81t-79.5 -31q-50 0 -81.5 31.5t-31.5 80.5z" />
    <glyph glyph-name="exclam.ss02" horiz-adv-x="471" 
d="M190 344l-34 424v666h159v-666l-34 -424h-91zM125 102q0 49 31.5 80t81.5 31q49 0 79.5 -30.5t30.5 -80.5t-30.5 -81t-79.5 -31q-50 0 -81.5 31.5t-31.5 80.5z" />
    <glyph glyph-name="exclamdown.ss02" horiz-adv-x="471" 
d="M281 688l34 -424v-665h-159v665l34 424h91zM123 930q0 50 30.5 81t79.5 31q50 0 81.5 -31.5t31.5 -80.5t-31.5 -80t-81.5 -31q-49 0 -79.5 30.5t-30.5 80.5z" />
    <glyph glyph-name="question.ss02" horiz-adv-x="991" 
d="M371 406q0 96 22.5 169t58 116.5t79 78t86.5 62t78.5 57.5t58 76.5t22.5 107.5q0 102 -67.5 160.5t-188.5 58.5q-262 0 -317 -282l-170 37q37 188 164 294.5t327 106.5q199 0 315.5 -99.5t116.5 -256.5q0 -79 -23.5 -139.5t-61.5 -99.5t-84 -72l-92 -66t-84 -71.5
t-61.5 -99t-23.5 -138.5v-35h-155v35zM338 102q0 49 31.5 80t81.5 31q49 0 79.5 -30.5t30.5 -80.5t-30.5 -81t-79.5 -31q-50 0 -81.5 31.5t-31.5 80.5z" />
    <glyph glyph-name="questiondown.ss02" horiz-adv-x="991" 
d="M621 627q0 -96 -22.5 -169t-58 -117t-79 -78t-87 -62t-79 -58t-58 -76.5t-22.5 -107.5q0 -102 67.5 -160.5t188.5 -58.5q262 0 317 283l170 -37q-37 -188 -164 -295t-327 -107q-199 0 -315.5 100t-116.5 257q0 79 23.5 139.5t61.5 99.5t84 72l92 66t84 71.5t61.5 99
t23.5 138.5v35h156v-35zM430 930q0 50 31 81t80 31t80.5 -31t31.5 -81q0 -49 -31 -80t-81 -31q-49 0 -80 30.5t-31 80.5z" />
    <glyph glyph-name="periodcentered.ss02" horiz-adv-x="385" 
d="M193 465q-49 0 -81 31.5t-32 81.5q0 49 31.5 79.5t81.5 30.5q49 0 79.5 -30t30.5 -80t-30.5 -81.5t-79.5 -31.5z" />
    <glyph glyph-name="bullet.ss02" horiz-adv-x="512" 
d="M264 410q-83 0 -136.5 53.5t-53.5 136.5t53 134.5t137 51.5q85 0 137 -51.5t52 -134.5q0 -84 -52.5 -137t-136.5 -53z" />
    <glyph glyph-name="periodcentered.case.ss02" horiz-adv-x="385" 
d="M193 635q-49 0 -81 31.5t-32 81.5q0 49 31.5 79.5t81.5 30.5q49 0 79.5 -30t30.5 -80t-30.5 -81.5t-79.5 -31.5z" />
    <glyph glyph-name="bullet.case.ss02" horiz-adv-x="512" 
d="M264 578q-83 0 -136.5 53.5t-53.5 136.5q0 84 53 136t137 52q85 0 137 -51.5t52 -136.5q0 -84 -52.5 -137t-136.5 -53z" />
    <glyph glyph-name="hyphen.case" horiz-adv-x="872" 
d="M135 772h600v-139h-600v139z" />
    <glyph glyph-name="uni00AD.case" horiz-adv-x="872" 
d="M135 772h600v-139h-600v139z" />
    <glyph glyph-name="endash.case" horiz-adv-x="1220" 
d="M135 772h950v-139h-950v139z" />
    <glyph glyph-name="emdash.case" horiz-adv-x="1673" 
d="M135 772h1401v-139h-1401v139z" />
    <glyph glyph-name="parenleft.case" horiz-adv-x="555" 
d="M373 -92q-11 11 -37 45.5t-71.5 113t-83.5 169t-66.5 222.5t-28.5 265q0 134 27.5 263.5t64 217.5t81.5 163.5t72 110t42 48.5h143q-252 -322 -252 -803q0 -144 25 -279t56.5 -221t74 -164t62 -104.5t36.5 -46.5h-145z" />
    <glyph glyph-name="parenright.case" horiz-adv-x="555" 
d="M182 1526q11 -11 37 -45.5t71.5 -113t83.5 -169t66.5 -222.5t28.5 -265q0 -134 -27.5 -263.5t-64 -217.5t-81.5 -163.5t-72 -110t-42 -48.5h-143q252 322 252 803q0 144 -25 279t-56.5 221t-74 164t-62 104.5t-36.5 46.5h145z" />
    <glyph glyph-name="braceleft.case" horiz-adv-x="581" 
d="M41 793q95 0 136.5 28t41.5 92v349q0 58 5 99t19 71t33.5 48t52.5 28.5t71.5 14t95.5 3.5v-133q-56 0 -78.5 -24.5t-22.5 -96.5v-381q0 -68 -38 -107.5t-132 -60.5q94 -23 132 -62.5t38 -107.5v-389q0 -74 22 -98.5t79 -24.5v-133q-57 0 -95.5 3.5t-71.5 14t-52.5 28.5
t-33.5 48t-19 71t-5 99v358q0 65 -41.5 93t-136.5 28v142z" />
    <glyph glyph-name="braceright.case" horiz-adv-x="581" 
d="M541 641q-95 0 -137 -28.5t-42 -92.5v-348q0 -58 -5 -99t-19 -71t-33 -48t-52 -28.5t-71.5 -14t-95.5 -3.5v133q56 0 78 24.5t22 96.5v381q0 68 38 107.5t132 60.5q-94 23 -132 62.5t-38 107.5v389q0 74 -22 98.5t-78 24.5v133q57 0 95.5 -3.5t71.5 -14t52 -28.5t33 -48
t19 -71t5 -99v-359q0 -64 42 -92.5t137 -28.5v-141z" />
    <glyph glyph-name="bracketleft.case" horiz-adv-x="706" 
d="M160 1526h487v-137h-313v-1344h313v-137h-487v1618z" />
    <glyph glyph-name="bracketright.case" horiz-adv-x="706" 
d="M547 -92h-488v137h314v1344h-314v137h488v-1618z" />
    <glyph glyph-name="guillemotleft.case" horiz-adv-x="948" 
d="M485 1065v-170l-282 -186l282 -185v-168l-417 299v107zM436 655v107l418 303v-170l-283 -186l283 -185v-168z" />
    <glyph glyph-name="guillemotright.case" horiz-adv-x="948" 
d="M463 356v170l282 187l-282 184v168l418 -299v-107zM94 356v170l283 187l-283 184v168l418 -299v-107z" />
    <glyph glyph-name="guilsinglleft.case" horiz-adv-x="579" 
d="M485 1067v-170l-282 -186l282 -185v-168l-417 299v107z" />
    <glyph glyph-name="guilsinglright.case" horiz-adv-x="579" 
d="M94 356v170l283 187l-283 184v168l418 -299v-107z" />
    <glyph glyph-name="quotesinglbase.ss02" horiz-adv-x="401" 
d="M88 -137q48 8 80 40.5t41 86.5q-58 2 -93.5 31.5t-35.5 78.5t33.5 81t83.5 32q51 0 88 -38t37 -122q0 -122 -68.5 -205t-165.5 -88v103z" />
    <glyph glyph-name="quotedblbase.ss02" horiz-adv-x="692" 
d="M379 -137q48 8 80 40.5t41 86.5q-58 2 -93.5 31.5t-35.5 78.5t33 81t83 32q51 0 88 -38t37 -122q0 -122 -68 -205t-165 -88v103zM80 100q0 49 33.5 81t83.5 32q51 0 88 -38t37 -122q0 -122 -68.5 -205t-165.5 -88v103q48 8 80 40.5t41 86.5q-58 2 -93.5 31.5t-35.5 78.5z
" />
    <glyph glyph-name="quotedblleft.ss02" horiz-adv-x="700" 
d="M313 1341q-48 -8 -79.5 -40.5t-40.5 -86.5q58 -2 93.5 -31.5t35.5 -78.5t-33.5 -81t-83.5 -32q-51 0 -88 38t-37 122q0 122 68 205t165 88v-103zM379 1151q0 122 68 205t165 88v-103q-48 -8 -79.5 -40.5t-40.5 -86.5q58 -2 93.5 -31.5t35.5 -78.5t-33.5 -81t-83.5 -32
q-51 0 -88 38t-37 122z" />
    <glyph glyph-name="quotedblright.ss02" horiz-adv-x="700" 
d="M387 1094q48 8 80 40.5t41 86.5q-58 2 -93.5 31.5t-35.5 78.5t33.5 81t83.5 32q51 0 88 -38t37 -122q0 -122 -68.5 -205t-165.5 -88v103zM80 1331q0 49 33.5 81t83.5 32q51 0 88 -38t37 -122q0 -122 -68.5 -205t-165.5 -88v103q48 8 80 40.5t41 86.5q-58 2 -93.5 31.5
t-35.5 78.5z" />
    <glyph glyph-name="quoteleft.ss02" horiz-adv-x="401" 
d="M313 1339q-48 -8 -79.5 -40.5t-40.5 -86.5q58 -2 93.5 -31.5t35.5 -78.5t-33.5 -81t-83.5 -32q-51 0 -88 38t-37 122q0 122 68 205t165 88v-103z" />
    <glyph glyph-name="quoteright.ss02" horiz-adv-x="401" 
d="M88 1094q48 8 80 40.5t41 86.5q-58 2 -93.5 31.5t-35.5 78.5t33.5 81t83.5 32q51 0 88 -38t37 -122q0 -122 -68.5 -205t-165.5 -88v103z" />
    <glyph glyph-name="divide.ss02" horiz-adv-x="993" 
d="M94 561v141h805v-141h-805zM397 317q0 41 29 70t72 29q41 0 69.5 -29t28.5 -70q0 -43 -28.5 -71.5t-69.5 -28.5q-43 0 -72 28.5t-29 71.5zM397 946q0 41 29 69.5t72 28.5q41 0 69.5 -28.5t28.5 -69.5q0 -43 -28.5 -71.5t-71.5 -28.5q-42 0 -70.5 29t-28.5 71z" />
    </font>
</defs>
</svg>
